<?xml version="1.0" encoding="utf-8" standalone="no"?>
<!DOCTYPE svg PUBLIC "-//W3C//DTD SVG 1.1//EN"
  "http://www.w3.org/Graphics/SVG/1.1/DTD/svg11.dtd">
<!-- Created with matplotlib (http://matplotlib.org/) -->
<svg height="288pt" version="1.1" viewBox="0 0 432 288" width="432pt" xmlns="http://www.w3.org/2000/svg" xmlns:xlink="http://www.w3.org/1999/xlink">
 <defs>
  <style type="text/css">
*{stroke-linecap:butt;stroke-linejoin:round;stroke-miterlimit:100000;}
  </style>
 </defs>
 <g id="figure_1">
  <g id="patch_1">
   <path d="M 0 288 
L 432 288 
L 432 0 
L 0 0 
z
" style="fill:#ffffff;"/>
  </g>
  <g id="axes_1">
   <g id="patch_2">
    <path d="M 54 252 
L 388.8 252 
L 388.8 28.8 
L 54 28.8 
z
" style="fill:#eaeaf2;"/>
   </g>
   <g id="matplotlib.axis_1">
    <g id="xtick_1">
     <g id="line2d_1">
      <path clip-path="url(#pe84f26082f)" d="M 54 252 
L 54 28.8 
" style="fill:none;stroke:#ffffff;stroke-linecap:round;"/>
     </g>
     <g id="line2d_2">
      <defs>
       <path d="M 0 0 
L 0 0 
" id="m9aa418d110" style="stroke:#262626;"/>
      </defs>
      <g>
       <use style="fill:#262626;stroke:#262626;" x="54.0" xlink:href="#m9aa418d110" y="252.0"/>
      </g>
     </g>
     <g id="line2d_3">
      <g>
       <use style="fill:#262626;stroke:#262626;" x="54.0" xlink:href="#m9aa418d110" y="28.8"/>
      </g>
     </g>
     <g id="text_1">
      <!-- 450 -->
      <defs>
       <path d="M 4.15625 35.296875 
Q 4.15625 48 6.765625 55.734375 
Q 9.375 63.484375 14.515625 67.671875 
Q 19.671875 71.875 27.484375 71.875 
Q 33.25 71.875 37.59375 69.546875 
Q 41.9375 67.234375 44.765625 62.859375 
Q 47.609375 58.5 49.21875 52.21875 
Q 50.828125 45.953125 50.828125 35.296875 
Q 50.828125 22.703125 48.234375 14.96875 
Q 45.65625 7.234375 40.5 3 
Q 35.359375 -1.21875 27.484375 -1.21875 
Q 17.140625 -1.21875 11.234375 6.203125 
Q 4.15625 15.140625 4.15625 35.296875 
M 13.1875 35.296875 
Q 13.1875 17.671875 17.3125 11.828125 
Q 21.4375 6 27.484375 6 
Q 33.546875 6 37.671875 11.859375 
Q 41.796875 17.71875 41.796875 35.296875 
Q 41.796875 52.984375 37.671875 58.78125 
Q 33.546875 64.59375 27.390625 64.59375 
Q 21.34375 64.59375 17.71875 59.46875 
Q 13.1875 52.9375 13.1875 35.296875 
" id="ArialMT-30"/>
       <path d="M 32.328125 0 
L 32.328125 17.140625 
L 1.265625 17.140625 
L 1.265625 25.203125 
L 33.9375 71.578125 
L 41.109375 71.578125 
L 41.109375 25.203125 
L 50.78125 25.203125 
L 50.78125 17.140625 
L 41.109375 17.140625 
L 41.109375 0 
z
M 32.328125 25.203125 
L 32.328125 57.46875 
L 9.90625 25.203125 
z
" id="ArialMT-34"/>
       <path d="M 4.15625 18.75 
L 13.375 19.53125 
Q 14.40625 12.796875 18.140625 9.390625 
Q 21.875 6 27.15625 6 
Q 33.5 6 37.890625 10.78125 
Q 42.28125 15.578125 42.28125 23.484375 
Q 42.28125 31 38.0625 35.34375 
Q 33.84375 39.703125 27 39.703125 
Q 22.75 39.703125 19.328125 37.765625 
Q 15.921875 35.84375 13.96875 32.765625 
L 5.71875 33.84375 
L 12.640625 70.609375 
L 48.25 70.609375 
L 48.25 62.203125 
L 19.671875 62.203125 
L 15.828125 42.96875 
Q 22.265625 47.46875 29.34375 47.46875 
Q 38.71875 47.46875 45.15625 40.96875 
Q 51.609375 34.46875 51.609375 24.265625 
Q 51.609375 14.546875 45.953125 7.46875 
Q 39.0625 -1.21875 27.15625 -1.21875 
Q 17.390625 -1.21875 11.203125 4.25 
Q 5.03125 9.71875 4.15625 18.75 
" id="ArialMT-35"/>
      </defs>
      <g style="fill:#262626;" transform="translate(43.9903125 267.589375)scale(0.12 -0.12)">
       <use xlink:href="#ArialMT-34"/>
       <use x="55.615234375" xlink:href="#ArialMT-35"/>
       <use x="111.23046875" xlink:href="#ArialMT-30"/>
      </g>
     </g>
    </g>
    <g id="xtick_2">
     <g id="line2d_4">
      <path clip-path="url(#pe84f26082f)" d="M 109.8 252 
L 109.8 28.8 
" style="fill:none;stroke:#ffffff;stroke-linecap:round;"/>
     </g>
     <g id="line2d_5">
      <g>
       <use style="fill:#262626;stroke:#262626;" x="109.8" xlink:href="#m9aa418d110" y="252.0"/>
      </g>
     </g>
     <g id="line2d_6">
      <g>
       <use style="fill:#262626;stroke:#262626;" x="109.8" xlink:href="#m9aa418d110" y="28.8"/>
      </g>
     </g>
     <g id="text_2">
      <!-- 500 -->
      <g style="fill:#262626;" transform="translate(99.7903125 267.589375)scale(0.12 -0.12)">
       <use xlink:href="#ArialMT-35"/>
       <use x="55.615234375" xlink:href="#ArialMT-30"/>
       <use x="111.23046875" xlink:href="#ArialMT-30"/>
      </g>
     </g>
    </g>
    <g id="xtick_3">
     <g id="line2d_7">
      <path clip-path="url(#pe84f26082f)" d="M 165.6 252 
L 165.6 28.8 
" style="fill:none;stroke:#ffffff;stroke-linecap:round;"/>
     </g>
     <g id="line2d_8">
      <g>
       <use style="fill:#262626;stroke:#262626;" x="165.6" xlink:href="#m9aa418d110" y="252.0"/>
      </g>
     </g>
     <g id="line2d_9">
      <g>
       <use style="fill:#262626;stroke:#262626;" x="165.6" xlink:href="#m9aa418d110" y="28.8"/>
      </g>
     </g>
     <g id="text_3">
      <!-- 550 -->
      <g style="fill:#262626;" transform="translate(155.5903125 267.589375)scale(0.12 -0.12)">
       <use xlink:href="#ArialMT-35"/>
       <use x="55.615234375" xlink:href="#ArialMT-35"/>
       <use x="111.23046875" xlink:href="#ArialMT-30"/>
      </g>
     </g>
    </g>
    <g id="xtick_4">
     <g id="line2d_10">
      <path clip-path="url(#pe84f26082f)" d="M 221.4 252 
L 221.4 28.8 
" style="fill:none;stroke:#ffffff;stroke-linecap:round;"/>
     </g>
     <g id="line2d_11">
      <g>
       <use style="fill:#262626;stroke:#262626;" x="221.4" xlink:href="#m9aa418d110" y="252.0"/>
      </g>
     </g>
     <g id="line2d_12">
      <g>
       <use style="fill:#262626;stroke:#262626;" x="221.4" xlink:href="#m9aa418d110" y="28.8"/>
      </g>
     </g>
     <g id="text_4">
      <!-- 600 -->
      <defs>
       <path d="M 49.75 54.046875 
L 41.015625 53.375 
Q 39.84375 58.546875 37.703125 60.890625 
Q 34.125 64.65625 28.90625 64.65625 
Q 24.703125 64.65625 21.53125 62.3125 
Q 17.390625 59.28125 14.984375 53.46875 
Q 12.59375 47.65625 12.5 36.921875 
Q 15.671875 41.75 20.265625 44.09375 
Q 24.859375 46.4375 29.890625 46.4375 
Q 38.671875 46.4375 44.84375 39.96875 
Q 51.03125 33.5 51.03125 23.25 
Q 51.03125 16.5 48.125 10.71875 
Q 45.21875 4.9375 40.140625 1.859375 
Q 35.0625 -1.21875 28.609375 -1.21875 
Q 17.625 -1.21875 10.6875 6.859375 
Q 3.765625 14.9375 3.765625 33.5 
Q 3.765625 54.25 11.421875 63.671875 
Q 18.109375 71.875 29.4375 71.875 
Q 37.890625 71.875 43.28125 67.140625 
Q 48.6875 62.40625 49.75 54.046875 
M 13.875 23.1875 
Q 13.875 18.65625 15.796875 14.5 
Q 17.71875 10.359375 21.1875 8.171875 
Q 24.65625 6 28.46875 6 
Q 34.03125 6 38.03125 10.484375 
Q 42.046875 14.984375 42.046875 22.703125 
Q 42.046875 30.125 38.078125 34.390625 
Q 34.125 38.671875 28.125 38.671875 
Q 22.171875 38.671875 18.015625 34.390625 
Q 13.875 30.125 13.875 23.1875 
" id="ArialMT-36"/>
      </defs>
      <g style="fill:#262626;" transform="translate(211.3903125 267.589375)scale(0.12 -0.12)">
       <use xlink:href="#ArialMT-36"/>
       <use x="55.615234375" xlink:href="#ArialMT-30"/>
       <use x="111.23046875" xlink:href="#ArialMT-30"/>
      </g>
     </g>
    </g>
    <g id="xtick_5">
     <g id="line2d_13">
      <path clip-path="url(#pe84f26082f)" d="M 277.2 252 
L 277.2 28.8 
" style="fill:none;stroke:#ffffff;stroke-linecap:round;"/>
     </g>
     <g id="line2d_14">
      <g>
       <use style="fill:#262626;stroke:#262626;" x="277.2" xlink:href="#m9aa418d110" y="252.0"/>
      </g>
     </g>
     <g id="line2d_15">
      <g>
       <use style="fill:#262626;stroke:#262626;" x="277.2" xlink:href="#m9aa418d110" y="28.8"/>
      </g>
     </g>
     <g id="text_5">
      <!-- 650 -->
      <g style="fill:#262626;" transform="translate(267.1903125 267.589375)scale(0.12 -0.12)">
       <use xlink:href="#ArialMT-36"/>
       <use x="55.615234375" xlink:href="#ArialMT-35"/>
       <use x="111.23046875" xlink:href="#ArialMT-30"/>
      </g>
     </g>
    </g>
    <g id="xtick_6">
     <g id="line2d_16">
      <path clip-path="url(#pe84f26082f)" d="M 333 252 
L 333 28.8 
" style="fill:none;stroke:#ffffff;stroke-linecap:round;"/>
     </g>
     <g id="line2d_17">
      <g>
       <use style="fill:#262626;stroke:#262626;" x="333.0" xlink:href="#m9aa418d110" y="252.0"/>
      </g>
     </g>
     <g id="line2d_18">
      <g>
       <use style="fill:#262626;stroke:#262626;" x="333.0" xlink:href="#m9aa418d110" y="28.8"/>
      </g>
     </g>
     <g id="text_6">
      <!-- 700 -->
      <defs>
       <path d="M 4.734375 62.203125 
L 4.734375 70.65625 
L 51.078125 70.65625 
L 51.078125 63.8125 
Q 44.234375 56.546875 37.515625 44.484375 
Q 30.8125 32.421875 27.15625 19.671875 
Q 24.515625 10.6875 23.78125 0 
L 14.75 0 
Q 14.890625 8.453125 18.0625 20.40625 
Q 21.234375 32.375 27.171875 43.484375 
Q 33.109375 54.59375 39.796875 62.203125 
z
" id="ArialMT-37"/>
      </defs>
      <g style="fill:#262626;" transform="translate(322.9903125 267.589375)scale(0.12 -0.12)">
       <use xlink:href="#ArialMT-37"/>
       <use x="55.615234375" xlink:href="#ArialMT-30"/>
       <use x="111.23046875" xlink:href="#ArialMT-30"/>
      </g>
     </g>
    </g>
    <g id="xtick_7">
     <g id="line2d_19">
      <path clip-path="url(#pe84f26082f)" d="M 388.8 252 
L 388.8 28.8 
" style="fill:none;stroke:#ffffff;stroke-linecap:round;"/>
     </g>
     <g id="line2d_20">
      <g>
       <use style="fill:#262626;stroke:#262626;" x="388.8" xlink:href="#m9aa418d110" y="252.0"/>
      </g>
     </g>
     <g id="line2d_21">
      <g>
       <use style="fill:#262626;stroke:#262626;" x="388.8" xlink:href="#m9aa418d110" y="28.8"/>
      </g>
     </g>
     <g id="text_7">
      <!-- 750 -->
      <g style="fill:#262626;" transform="translate(378.7903125 267.589375)scale(0.12 -0.12)">
       <use xlink:href="#ArialMT-37"/>
       <use x="55.615234375" xlink:href="#ArialMT-35"/>
       <use x="111.23046875" xlink:href="#ArialMT-30"/>
      </g>
     </g>
    </g>
    <g id="text_8">
     <!-- Strike -->
     <defs>
      <path d="M 42.09375 16.703125 
L 51.171875 15.578125 
Q 49.03125 7.625 43.21875 3.21875 
Q 37.40625 -1.171875 28.375 -1.171875 
Q 17 -1.171875 10.328125 5.828125 
Q 3.65625 12.84375 3.65625 25.484375 
Q 3.65625 38.578125 10.390625 45.796875 
Q 17.140625 53.03125 27.875 53.03125 
Q 38.28125 53.03125 44.875 45.953125 
Q 51.46875 38.875 51.46875 26.03125 
Q 51.46875 25.25 51.421875 23.6875 
L 12.75 23.6875 
Q 13.234375 15.140625 17.578125 10.59375 
Q 21.921875 6.0625 28.421875 6.0625 
Q 33.25 6.0625 36.671875 8.59375 
Q 40.09375 11.140625 42.09375 16.703125 
M 13.234375 30.90625 
L 42.1875 30.90625 
Q 41.609375 37.453125 38.875 40.71875 
Q 34.671875 45.796875 27.984375 45.796875 
Q 21.921875 45.796875 17.796875 41.75 
Q 13.671875 37.703125 13.234375 30.90625 
" id="ArialMT-65"/>
      <path d="M 25.78125 7.859375 
L 27.046875 0.09375 
Q 23.34375 -0.6875 20.40625 -0.6875 
Q 15.625 -0.6875 12.984375 0.828125 
Q 10.359375 2.34375 9.28125 4.8125 
Q 8.203125 7.28125 8.203125 15.1875 
L 8.203125 45.015625 
L 1.765625 45.015625 
L 1.765625 51.859375 
L 8.203125 51.859375 
L 8.203125 64.703125 
L 16.9375 69.96875 
L 16.9375 51.859375 
L 25.78125 51.859375 
L 25.78125 45.015625 
L 16.9375 45.015625 
L 16.9375 14.703125 
Q 16.9375 10.9375 17.40625 9.859375 
Q 17.875 8.796875 18.921875 8.15625 
Q 19.96875 7.515625 21.921875 7.515625 
Q 23.390625 7.515625 25.78125 7.859375 
" id="ArialMT-74"/>
      <path d="M 4.5 23 
L 13.421875 23.78125 
Q 14.0625 18.40625 16.375 14.96875 
Q 18.703125 11.53125 23.578125 9.40625 
Q 28.46875 7.28125 34.578125 7.28125 
Q 39.984375 7.28125 44.140625 8.890625 
Q 48.296875 10.5 50.3125 13.296875 
Q 52.34375 16.109375 52.34375 19.4375 
Q 52.34375 22.796875 50.390625 25.3125 
Q 48.4375 27.828125 43.953125 29.546875 
Q 41.0625 30.671875 31.203125 33.03125 
Q 21.34375 35.40625 17.390625 37.5 
Q 12.25 40.1875 9.734375 44.15625 
Q 7.234375 48.140625 7.234375 53.078125 
Q 7.234375 58.5 10.296875 63.203125 
Q 13.375 67.921875 19.28125 70.359375 
Q 25.203125 72.796875 32.421875 72.796875 
Q 40.375 72.796875 46.453125 70.234375 
Q 52.546875 67.671875 55.8125 62.6875 
Q 59.078125 57.71875 59.328125 51.421875 
L 50.25 50.734375 
Q 49.515625 57.515625 45.28125 60.984375 
Q 41.0625 64.453125 32.8125 64.453125 
Q 24.21875 64.453125 20.28125 61.296875 
Q 16.359375 58.15625 16.359375 53.71875 
Q 16.359375 49.859375 19.140625 47.359375 
Q 21.875 44.875 33.421875 42.265625 
Q 44.96875 39.65625 49.265625 37.703125 
Q 55.515625 34.8125 58.484375 30.390625 
Q 61.46875 25.984375 61.46875 20.21875 
Q 61.46875 14.5 58.203125 9.4375 
Q 54.9375 4.390625 48.796875 1.578125 
Q 42.671875 -1.21875 35.015625 -1.21875 
Q 25.296875 -1.21875 18.71875 1.609375 
Q 12.15625 4.4375 8.421875 10.125 
Q 4.6875 15.828125 4.5 23 
" id="ArialMT-53"/>
      <path d="M 6.640625 61.46875 
L 6.640625 71.578125 
L 15.4375 71.578125 
L 15.4375 61.46875 
z
M 6.640625 0 
L 6.640625 51.859375 
L 15.4375 51.859375 
L 15.4375 0 
z
" id="ArialMT-69"/>
      <path d="M 6.5 0 
L 6.5 51.859375 
L 14.40625 51.859375 
L 14.40625 44 
Q 17.4375 49.515625 20 51.265625 
Q 22.5625 53.03125 25.640625 53.03125 
Q 30.078125 53.03125 34.671875 50.203125 
L 31.640625 42.046875 
Q 28.421875 43.953125 25.203125 43.953125 
Q 22.3125 43.953125 20.015625 42.21875 
Q 17.71875 40.484375 16.75 37.40625 
Q 15.28125 32.71875 15.28125 27.15625 
L 15.28125 0 
z
" id="ArialMT-72"/>
      <path d="M 6.640625 0 
L 6.640625 71.578125 
L 15.4375 71.578125 
L 15.4375 30.765625 
L 36.234375 51.859375 
L 47.609375 51.859375 
L 27.78125 32.625 
L 49.609375 0 
L 38.765625 0 
L 21.625 26.515625 
L 15.4375 20.5625 
L 15.4375 0 
z
" id="ArialMT-6b"/>
     </defs>
     <g style="fill:#262626;" transform="translate(203.50734375 284.9953125)scale(0.14 -0.14)">
      <use xlink:href="#ArialMT-53"/>
      <use x="66.69921875" xlink:href="#ArialMT-74"/>
      <use x="94.482421875" xlink:href="#ArialMT-72"/>
      <use x="127.783203125" xlink:href="#ArialMT-69"/>
      <use x="150.0" xlink:href="#ArialMT-6b"/>
      <use x="200.0" xlink:href="#ArialMT-65"/>
     </g>
    </g>
   </g>
   <g id="matplotlib.axis_2">
    <g id="ytick_1">
     <g id="line2d_22">
      <path clip-path="url(#pe84f26082f)" d="M 54 252 
L 388.8 252 
" style="fill:none;stroke:#ffffff;stroke-linecap:round;"/>
     </g>
     <g id="line2d_23">
      <g>
       <use style="fill:#262626;stroke:#262626;" x="54.0" xlink:href="#m9aa418d110" y="252.0"/>
      </g>
     </g>
     <g id="line2d_24">
      <g>
       <use style="fill:#262626;stroke:#262626;" x="388.8" xlink:href="#m9aa418d110" y="252.0"/>
      </g>
     </g>
     <g id="text_9">
      <!-- 0 -->
      <g style="fill:#262626;" transform="translate(40.326875 255.1021875)scale(0.12 -0.12)">
       <use xlink:href="#ArialMT-30"/>
      </g>
     </g>
    </g>
    <g id="ytick_2">
     <g id="line2d_25">
      <path clip-path="url(#pe84f26082f)" d="M 54 227.2 
L 388.8 227.2 
" style="fill:none;stroke:#ffffff;stroke-linecap:round;"/>
     </g>
     <g id="line2d_26">
      <g>
       <use style="fill:#262626;stroke:#262626;" x="54.0" xlink:href="#m9aa418d110" y="227.2"/>
      </g>
     </g>
     <g id="line2d_27">
      <g>
       <use style="fill:#262626;stroke:#262626;" x="388.8" xlink:href="#m9aa418d110" y="227.2"/>
      </g>
     </g>
     <g id="text_10">
      <!-- 20 -->
      <defs>
       <path d="M 50.34375 8.453125 
L 50.34375 0 
L 3.03125 0 
Q 2.9375 3.171875 4.046875 6.109375 
Q 5.859375 10.9375 9.828125 15.625 
Q 13.8125 20.3125 21.34375 26.46875 
Q 33.015625 36.03125 37.109375 41.625 
Q 41.21875 47.21875 41.21875 52.203125 
Q 41.21875 57.421875 37.46875 61 
Q 33.734375 64.59375 27.734375 64.59375 
Q 21.390625 64.59375 17.578125 60.78125 
Q 13.765625 56.984375 13.71875 50.25 
L 4.6875 51.171875 
Q 5.609375 61.28125 11.65625 66.578125 
Q 17.71875 71.875 27.9375 71.875 
Q 38.234375 71.875 44.234375 66.15625 
Q 50.25 60.453125 50.25 52 
Q 50.25 47.703125 48.484375 43.546875 
Q 46.734375 39.40625 42.65625 34.8125 
Q 38.578125 30.21875 29.109375 22.21875 
Q 21.1875 15.578125 18.9375 13.203125 
Q 16.703125 10.84375 15.234375 8.453125 
z
" id="ArialMT-32"/>
      </defs>
      <g style="fill:#262626;" transform="translate(33.65375 230.3021875)scale(0.12 -0.12)">
       <use xlink:href="#ArialMT-32"/>
       <use x="55.615234375" xlink:href="#ArialMT-30"/>
      </g>
     </g>
    </g>
    <g id="ytick_3">
     <g id="line2d_28">
      <path clip-path="url(#pe84f26082f)" d="M 54 202.4 
L 388.8 202.4 
" style="fill:none;stroke:#ffffff;stroke-linecap:round;"/>
     </g>
     <g id="line2d_29">
      <g>
       <use style="fill:#262626;stroke:#262626;" x="54.0" xlink:href="#m9aa418d110" y="202.4"/>
      </g>
     </g>
     <g id="line2d_30">
      <g>
       <use style="fill:#262626;stroke:#262626;" x="388.8" xlink:href="#m9aa418d110" y="202.4"/>
      </g>
     </g>
     <g id="text_11">
      <!-- 40 -->
      <g style="fill:#262626;" transform="translate(33.65375 205.5021875)scale(0.12 -0.12)">
       <use xlink:href="#ArialMT-34"/>
       <use x="55.615234375" xlink:href="#ArialMT-30"/>
      </g>
     </g>
    </g>
    <g id="ytick_4">
     <g id="line2d_31">
      <path clip-path="url(#pe84f26082f)" d="M 54 177.6 
L 388.8 177.6 
" style="fill:none;stroke:#ffffff;stroke-linecap:round;"/>
     </g>
     <g id="line2d_32">
      <g>
       <use style="fill:#262626;stroke:#262626;" x="54.0" xlink:href="#m9aa418d110" y="177.6"/>
      </g>
     </g>
     <g id="line2d_33">
      <g>
       <use style="fill:#262626;stroke:#262626;" x="388.8" xlink:href="#m9aa418d110" y="177.6"/>
      </g>
     </g>
     <g id="text_12">
      <!-- 60 -->
      <g style="fill:#262626;" transform="translate(33.65375 180.7021875)scale(0.12 -0.12)">
       <use xlink:href="#ArialMT-36"/>
       <use x="55.615234375" xlink:href="#ArialMT-30"/>
      </g>
     </g>
    </g>
    <g id="ytick_5">
     <g id="line2d_34">
      <path clip-path="url(#pe84f26082f)" d="M 54 152.8 
L 388.8 152.8 
" style="fill:none;stroke:#ffffff;stroke-linecap:round;"/>
     </g>
     <g id="line2d_35">
      <g>
       <use style="fill:#262626;stroke:#262626;" x="54.0" xlink:href="#m9aa418d110" y="152.8"/>
      </g>
     </g>
     <g id="line2d_36">
      <g>
       <use style="fill:#262626;stroke:#262626;" x="388.8" xlink:href="#m9aa418d110" y="152.8"/>
      </g>
     </g>
     <g id="text_13">
      <!-- 80 -->
      <defs>
       <path d="M 17.671875 38.8125 
Q 12.203125 40.828125 9.5625 44.53125 
Q 6.9375 48.25 6.9375 53.421875 
Q 6.9375 61.234375 12.546875 66.546875 
Q 18.171875 71.875 27.484375 71.875 
Q 36.859375 71.875 42.578125 66.421875 
Q 48.296875 60.984375 48.296875 53.171875 
Q 48.296875 48.1875 45.671875 44.5 
Q 43.0625 40.828125 37.75 38.8125 
Q 44.34375 36.671875 47.78125 31.875 
Q 51.21875 27.09375 51.21875 20.453125 
Q 51.21875 11.28125 44.71875 5.03125 
Q 38.234375 -1.21875 27.640625 -1.21875 
Q 17.046875 -1.21875 10.546875 5.046875 
Q 4.046875 11.328125 4.046875 20.703125 
Q 4.046875 27.6875 7.59375 32.390625 
Q 11.140625 37.109375 17.671875 38.8125 
M 15.921875 53.71875 
Q 15.921875 48.640625 19.1875 45.40625 
Q 22.46875 42.1875 27.6875 42.1875 
Q 32.765625 42.1875 36.015625 45.375 
Q 39.265625 48.578125 39.265625 53.21875 
Q 39.265625 58.0625 35.90625 61.359375 
Q 32.5625 64.65625 27.59375 64.65625 
Q 22.5625 64.65625 19.234375 61.421875 
Q 15.921875 58.203125 15.921875 53.71875 
M 13.09375 20.65625 
Q 13.09375 16.890625 14.875 13.375 
Q 16.65625 9.859375 20.171875 7.921875 
Q 23.6875 6 27.734375 6 
Q 34.03125 6 38.125 10.046875 
Q 42.234375 14.109375 42.234375 20.359375 
Q 42.234375 26.703125 38.015625 30.859375 
Q 33.796875 35.015625 27.4375 35.015625 
Q 21.234375 35.015625 17.15625 30.90625 
Q 13.09375 26.8125 13.09375 20.65625 
" id="ArialMT-38"/>
      </defs>
      <g style="fill:#262626;" transform="translate(33.65375 155.9021875)scale(0.12 -0.12)">
       <use xlink:href="#ArialMT-38"/>
       <use x="55.615234375" xlink:href="#ArialMT-30"/>
      </g>
     </g>
    </g>
    <g id="ytick_6">
     <g id="line2d_37">
      <path clip-path="url(#pe84f26082f)" d="M 54 128 
L 388.8 128 
" style="fill:none;stroke:#ffffff;stroke-linecap:round;"/>
     </g>
     <g id="line2d_38">
      <g>
       <use style="fill:#262626;stroke:#262626;" x="54.0" xlink:href="#m9aa418d110" y="128.0"/>
      </g>
     </g>
     <g id="line2d_39">
      <g>
       <use style="fill:#262626;stroke:#262626;" x="388.8" xlink:href="#m9aa418d110" y="128.0"/>
      </g>
     </g>
     <g id="text_14">
      <!-- 100 -->
      <defs>
       <path d="M 37.25 0 
L 28.46875 0 
L 28.46875 56 
Q 25.296875 52.984375 20.140625 49.953125 
Q 14.984375 46.921875 10.890625 45.40625 
L 10.890625 53.90625 
Q 18.265625 57.375 23.78125 62.296875 
Q 29.296875 67.234375 31.59375 71.875 
L 37.25 71.875 
z
" id="ArialMT-31"/>
      </defs>
      <g style="fill:#262626;" transform="translate(26.980625 131.1021875)scale(0.12 -0.12)">
       <use xlink:href="#ArialMT-31"/>
       <use x="55.615234375" xlink:href="#ArialMT-30"/>
       <use x="111.23046875" xlink:href="#ArialMT-30"/>
      </g>
     </g>
    </g>
    <g id="ytick_7">
     <g id="line2d_40">
      <path clip-path="url(#pe84f26082f)" d="M 54 103.2 
L 388.8 103.2 
" style="fill:none;stroke:#ffffff;stroke-linecap:round;"/>
     </g>
     <g id="line2d_41">
      <g>
       <use style="fill:#262626;stroke:#262626;" x="54.0" xlink:href="#m9aa418d110" y="103.2"/>
      </g>
     </g>
     <g id="line2d_42">
      <g>
       <use style="fill:#262626;stroke:#262626;" x="388.8" xlink:href="#m9aa418d110" y="103.2"/>
      </g>
     </g>
     <g id="text_15">
      <!-- 120 -->
      <g style="fill:#262626;" transform="translate(26.980625 106.3021875)scale(0.12 -0.12)">
       <use xlink:href="#ArialMT-31"/>
       <use x="55.615234375" xlink:href="#ArialMT-32"/>
       <use x="111.23046875" xlink:href="#ArialMT-30"/>
      </g>
     </g>
    </g>
    <g id="ytick_8">
     <g id="line2d_43">
      <path clip-path="url(#pe84f26082f)" d="M 54 78.4 
L 388.8 78.4 
" style="fill:none;stroke:#ffffff;stroke-linecap:round;"/>
     </g>
     <g id="line2d_44">
      <g>
       <use style="fill:#262626;stroke:#262626;" x="54.0" xlink:href="#m9aa418d110" y="78.4"/>
      </g>
     </g>
     <g id="line2d_45">
      <g>
       <use style="fill:#262626;stroke:#262626;" x="388.8" xlink:href="#m9aa418d110" y="78.4"/>
      </g>
     </g>
     <g id="text_16">
      <!-- 140 -->
      <g style="fill:#262626;" transform="translate(26.980625 81.5021875)scale(0.12 -0.12)">
       <use xlink:href="#ArialMT-31"/>
       <use x="55.615234375" xlink:href="#ArialMT-34"/>
       <use x="111.23046875" xlink:href="#ArialMT-30"/>
      </g>
     </g>
    </g>
    <g id="ytick_9">
     <g id="line2d_46">
      <path clip-path="url(#pe84f26082f)" d="M 54 53.6 
L 388.8 53.6 
" style="fill:none;stroke:#ffffff;stroke-linecap:round;"/>
     </g>
     <g id="line2d_47">
      <g>
       <use style="fill:#262626;stroke:#262626;" x="54.0" xlink:href="#m9aa418d110" y="53.6"/>
      </g>
     </g>
     <g id="line2d_48">
      <g>
       <use style="fill:#262626;stroke:#262626;" x="388.8" xlink:href="#m9aa418d110" y="53.6"/>
      </g>
     </g>
     <g id="text_17">
      <!-- 160 -->
      <g style="fill:#262626;" transform="translate(26.980625 56.7021875)scale(0.12 -0.12)">
       <use xlink:href="#ArialMT-31"/>
       <use x="55.615234375" xlink:href="#ArialMT-36"/>
       <use x="111.23046875" xlink:href="#ArialMT-30"/>
      </g>
     </g>
    </g>
    <g id="ytick_10">
     <g id="line2d_49">
      <path clip-path="url(#pe84f26082f)" d="M 54 28.8 
L 388.8 28.8 
" style="fill:none;stroke:#ffffff;stroke-linecap:round;"/>
     </g>
     <g id="line2d_50">
      <g>
       <use style="fill:#262626;stroke:#262626;" x="54.0" xlink:href="#m9aa418d110" y="28.8"/>
      </g>
     </g>
     <g id="line2d_51">
      <g>
       <use style="fill:#262626;stroke:#262626;" x="388.8" xlink:href="#m9aa418d110" y="28.8"/>
      </g>
     </g>
     <g id="text_18">
      <!-- 180 -->
      <g style="fill:#262626;" transform="translate(26.980625 31.9021875)scale(0.12 -0.12)">
       <use xlink:href="#ArialMT-31"/>
       <use x="55.615234375" xlink:href="#ArialMT-38"/>
       <use x="111.23046875" xlink:href="#ArialMT-30"/>
      </g>
     </g>
    </g>
    <g id="text_19">
     <!-- Price -->
     <defs>
      <path d="M 40.4375 19 
L 49.078125 17.875 
Q 47.65625 8.9375 41.8125 3.875 
Q 35.984375 -1.171875 27.484375 -1.171875 
Q 16.84375 -1.171875 10.375 5.78125 
Q 3.90625 12.75 3.90625 25.734375 
Q 3.90625 34.125 6.6875 40.421875 
Q 9.46875 46.734375 15.15625 49.875 
Q 20.84375 53.03125 27.546875 53.03125 
Q 35.984375 53.03125 41.359375 48.75 
Q 46.734375 44.484375 48.25 36.625 
L 39.703125 35.296875 
Q 38.484375 40.53125 35.375 43.15625 
Q 32.28125 45.796875 27.875 45.796875 
Q 21.234375 45.796875 17.078125 41.03125 
Q 12.9375 36.28125 12.9375 25.984375 
Q 12.9375 15.53125 16.9375 10.796875 
Q 20.953125 6.0625 27.390625 6.0625 
Q 32.5625 6.0625 36.03125 9.234375 
Q 39.5 12.40625 40.4375 19 
" id="ArialMT-63"/>
      <path d="M 7.71875 0 
L 7.71875 71.578125 
L 34.71875 71.578125 
Q 41.84375 71.578125 45.609375 70.90625 
Q 50.875 70.015625 54.4375 67.546875 
Q 58.015625 65.09375 60.1875 60.640625 
Q 62.359375 56.203125 62.359375 50.875 
Q 62.359375 41.75 56.546875 35.421875 
Q 50.734375 29.109375 35.546875 29.109375 
L 17.1875 29.109375 
L 17.1875 0 
z
M 17.1875 37.546875 
L 35.6875 37.546875 
Q 44.875 37.546875 48.734375 40.96875 
Q 52.59375 44.390625 52.59375 50.59375 
Q 52.59375 55.078125 50.3125 58.265625 
Q 48.046875 61.46875 44.34375 62.5 
Q 41.9375 63.140625 35.5 63.140625 
L 17.1875 63.140625 
z
" id="ArialMT-50"/>
     </defs>
     <g style="fill:#262626;" transform="translate(19.198125 156.34796875)rotate(-90.0)scale(0.14 -0.14)">
      <use xlink:href="#ArialMT-50"/>
      <use x="66.69921875" xlink:href="#ArialMT-72"/>
      <use x="100.0" xlink:href="#ArialMT-69"/>
      <use x="122.216796875" xlink:href="#ArialMT-63"/>
      <use x="172.216796875" xlink:href="#ArialMT-65"/>
     </g>
    </g>
   </g>
   <g id="line2d_52">
    <defs>
     <path d="M 0 -2.5 
L -2.5 2.5 
L 2.5 2.5 
z
" id="md36b96f34b"/>
    </defs>
    <g clip-path="url(#pe84f26082f)">
     <use style="fill:#ff0000;" x="81.9" xlink:href="#md36b96f34b" y="109.1148"/>
     <use style="fill:#ff0000;" x="87.48" xlink:href="#md36b96f34b" y="114.92048"/>
     <use style="fill:#ff0000;" x="93.06" xlink:href="#md36b96f34b" y="120.69144"/>
     <use style="fill:#ff0000;" x="98.64" xlink:href="#md36b96f34b" y="126.30244"/>
     <use style="fill:#ff0000;" x="104.22" xlink:href="#md36b96f34b" y="132.216"/>
     <use style="fill:#ff0000;" x="109.8" xlink:href="#md36b96f34b" y="138.022424"/>
     <use style="fill:#ff0000;" x="115.38" xlink:href="#md36b96f34b" y="142.88124"/>
     <use style="fill:#ff0000;" x="120.96" xlink:href="#md36b96f34b" y="148.600492"/>
     <use style="fill:#ff0000;" x="126.54" xlink:href="#md36b96f34b" y="154.258736"/>
     <use style="fill:#ff0000;" x="132.12" xlink:href="#md36b96f34b" y="158.447456"/>
     <use style="fill:#ff0000;" x="137.7" xlink:href="#md36b96f34b" y="163.93582"/>
     <use style="fill:#ff0000;" x="143.28" xlink:href="#md36b96f34b" y="168.850436"/>
     <use style="fill:#ff0000;" x="148.86" xlink:href="#md36b96f34b" y="173.1949"/>
     <use style="fill:#ff0000;" x="154.44" xlink:href="#md36b96f34b" y="177.786"/>
     <use style="fill:#ff0000;" x="160.02" xlink:href="#md36b96f34b" y="182.312"/>
     <use style="fill:#ff0000;" x="165.6" xlink:href="#md36b96f34b" y="186.59"/>
     <use style="fill:#ff0000;" x="171.18" xlink:href="#md36b96f34b" y="190.62"/>
     <use style="fill:#ff0000;" x="176.76" xlink:href="#md36b96f34b" y="194.730848"/>
     <use style="fill:#ff0000;" x="182.34" xlink:href="#md36b96f34b" y="198.556"/>
     <use style="fill:#ff0000;" x="187.92" xlink:href="#md36b96f34b" y="202.238304"/>
     <use style="fill:#ff0000;" x="193.5" xlink:href="#md36b96f34b" y="205.826864"/>
     <use style="fill:#ff0000;" x="199.08" xlink:href="#md36b96f34b" y="209.158"/>
     <use style="fill:#ff0000;" x="204.66" xlink:href="#md36b96f34b" y="212.156444"/>
     <use style="fill:#ff0000;" x="210.24" xlink:href="#md36b96f34b" y="214.986"/>
     <use style="fill:#ff0000;" x="215.82" xlink:href="#md36b96f34b" y="217.776"/>
     <use style="fill:#ff0000;" x="221.4" xlink:href="#md36b96f34b" y="220.429228"/>
     <use style="fill:#ff0000;" x="226.98" xlink:href="#md36b96f34b" y="223.17"/>
     <use style="fill:#ff0000;" x="232.56" xlink:href="#md36b96f34b" y="225.404232"/>
     <use style="fill:#ff0000;" x="238.14" xlink:href="#md36b96f34b" y="227.758"/>
     <use style="fill:#ff0000;" x="243.72" xlink:href="#md36b96f34b" y="229.929364"/>
     <use style="fill:#ff0000;" x="249.3" xlink:href="#md36b96f34b" y="231.664"/>
     <use style="fill:#ff0000;" x="254.88" xlink:href="#md36b96f34b" y="233.366024"/>
     <use style="fill:#ff0000;" x="260.46" xlink:href="#md36b96f34b" y="234.982364"/>
     <use style="fill:#ff0000;" x="266.04" xlink:href="#md36b96f34b" y="236.5"/>
     <use style="fill:#ff0000;" x="271.62" xlink:href="#md36b96f34b" y="237.926"/>
     <use style="fill:#ff0000;" x="277.2" xlink:href="#md36b96f34b" y="239.166"/>
     <use style="fill:#ff0000;" x="282.78" xlink:href="#md36b96f34b" y="240.3938604"/>
     <use style="fill:#ff0000;" x="288.36" xlink:href="#md36b96f34b" y="241.3981736"/>
     <use style="fill:#ff0000;" x="293.94" xlink:href="#md36b96f34b" y="242.39"/>
     <use style="fill:#ff0000;" x="299.52" xlink:href="#md36b96f34b" y="243.3161808"/>
     <use style="fill:#ff0000;" x="305.1" xlink:href="#md36b96f34b" y="244.154892"/>
     <use style="fill:#ff0000;" x="310.68" xlink:href="#md36b96f34b" y="244.8137908"/>
     <use style="fill:#ff0000;" x="316.26" xlink:href="#md36b96f34b" y="245.5143908"/>
     <use style="fill:#ff0000;" x="321.84" xlink:href="#md36b96f34b" y="246.1125916"/>
     <use style="fill:#ff0000;" x="327.42" xlink:href="#md36b96f34b" y="246.6193052"/>
     <use style="fill:#ff0000;" x="333.0" xlink:href="#md36b96f34b" y="246.9176244"/>
     <use style="fill:#ff0000;" x="338.58" xlink:href="#md36b96f34b" y="247.5667272"/>
     <use style="fill:#ff0000;" x="344.16" xlink:href="#md36b96f34b" y="247.955058"/>
     <use style="fill:#ff0000;" x="349.74" xlink:href="#md36b96f34b" y="248.3642952"/>
     <use style="fill:#ff0000;" x="355.32" xlink:href="#md36b96f34b" y="248.6579148"/>
     <use style="fill:#ff0000;" x="360.9" xlink:href="#md36b96f34b" y="248.8975572"/>
     <use style="fill:#ff0000;" x="366.48" xlink:href="#md36b96f34b" y="249.3823848"/>
     <use style="fill:#ff0000;" x="372.06" xlink:href="#md36b96f34b" y="249.3939788"/>
     <use style="fill:#ff0000;" x="377.64" xlink:href="#md36b96f34b" y="249.5847032"/>
     <use style="fill:#ff0000;" x="383.22" xlink:href="#md36b96f34b" y="250.0667656"/>
     <use style="fill:#ff0000;" x="388.8" xlink:href="#md36b96f34b" y="249.9873064"/>
    </g>
   </g>
   <g id="line2d_53">
    <defs>
     <path d="M -0 2.5 
L 2.5 -2.5 
L -2.5 -2.5 
z
" id="m54f73ae6bf"/>
    </defs>
    <g clip-path="url(#pe84f26082f)">
     <use style="fill:#ff0000;" x="81.9" xlink:href="#m54f73ae6bf" y="105.70852"/>
     <use style="fill:#ff0000;" x="87.48" xlink:href="#m54f73ae6bf" y="112.0784"/>
     <use style="fill:#ff0000;" x="93.06" xlink:href="#m54f73ae6bf" y="117.78736"/>
     <use style="fill:#ff0000;" x="98.64" xlink:href="#m54f73ae6bf" y="123.63768"/>
     <use style="fill:#ff0000;" x="104.22" xlink:href="#m54f73ae6bf" y="129.250044"/>
     <use style="fill:#ff0000;" x="109.8" xlink:href="#m54f73ae6bf" y="134.92416"/>
     <use style="fill:#ff0000;" x="115.38" xlink:href="#m54f73ae6bf" y="140.46324"/>
     <use style="fill:#ff0000;" x="120.96" xlink:href="#m54f73ae6bf" y="145.87336"/>
     <use style="fill:#ff0000;" x="126.54" xlink:href="#m54f73ae6bf" y="151.108764"/>
     <use style="fill:#ff0000;" x="132.12" xlink:href="#m54f73ae6bf" y="156.02958"/>
     <use style="fill:#ff0000;" x="137.7" xlink:href="#m54f73ae6bf" y="161.161072"/>
     <use style="fill:#ff0000;" x="143.28" xlink:href="#m54f73ae6bf" y="166.742684"/>
     <use style="fill:#ff0000;" x="148.86" xlink:href="#m54f73ae6bf" y="171.769644"/>
     <use style="fill:#ff0000;" x="154.44" xlink:href="#m54f73ae6bf" y="176.483752"/>
     <use style="fill:#ff0000;" x="160.02" xlink:href="#m54f73ae6bf" y="180.999212"/>
     <use style="fill:#ff0000;" x="165.6" xlink:href="#m54f73ae6bf" y="185.364508"/>
     <use style="fill:#ff0000;" x="171.18" xlink:href="#m54f73ae6bf" y="189.606176"/>
     <use style="fill:#ff0000;" x="176.76" xlink:href="#m54f73ae6bf" y="193.441"/>
     <use style="fill:#ff0000;" x="182.34" xlink:href="#m54f73ae6bf" y="197.455376"/>
     <use style="fill:#ff0000;" x="187.92" xlink:href="#m54f73ae6bf" y="201.137184"/>
     <use style="fill:#ff0000;" x="193.5" xlink:href="#m54f73ae6bf" y="204.532428"/>
     <use style="fill:#ff0000;" x="199.08" xlink:href="#m54f73ae6bf" y="207.998104"/>
     <use style="fill:#ff0000;" x="204.66" xlink:href="#m54f73ae6bf" y="211.204"/>
     <use style="fill:#ff0000;" x="210.24" xlink:href="#m54f73ae6bf" y="214.222284"/>
     <use style="fill:#ff0000;" x="215.82" xlink:href="#m54f73ae6bf" y="217.09214"/>
     <use style="fill:#ff0000;" x="221.4" xlink:href="#m54f73ae6bf" y="219.884"/>
     <use style="fill:#ff0000;" x="226.98" xlink:href="#m54f73ae6bf" y="222.238264"/>
     <use style="fill:#ff0000;" x="232.56" xlink:href="#m54f73ae6bf" y="224.671764"/>
     <use style="fill:#ff0000;" x="238.14" xlink:href="#m54f73ae6bf" y="226.773564"/>
     <use style="fill:#ff0000;" x="243.72" xlink:href="#m54f73ae6bf" y="228.829484"/>
     <use style="fill:#ff0000;" x="249.3" xlink:href="#m54f73ae6bf" y="230.841012"/>
     <use style="fill:#ff0000;" x="254.88" xlink:href="#m54f73ae6bf" y="232.630952"/>
     <use style="fill:#ff0000;" x="260.46" xlink:href="#m54f73ae6bf" y="234.33"/>
     <use style="fill:#ff0000;" x="266.04" xlink:href="#m54f73ae6bf" y="235.753272"/>
     <use style="fill:#ff0000;" x="271.62" xlink:href="#m54f73ae6bf" y="237.135376"/>
     <use style="fill:#ff0000;" x="277.2" xlink:href="#m54f73ae6bf" y="238.457092"/>
     <use style="fill:#ff0000;" x="282.78" xlink:href="#m54f73ae6bf" y="239.724"/>
     <use style="fill:#ff0000;" x="288.36" xlink:href="#m54f73ae6bf" y="240.7346372"/>
     <use style="fill:#ff0000;" x="293.94" xlink:href="#m54f73ae6bf" y="241.6511336"/>
     <use style="fill:#ff0000;" x="299.52" xlink:href="#m54f73ae6bf" y="242.7"/>
     <use style="fill:#ff0000;" x="305.1" xlink:href="#m54f73ae6bf" y="243.444"/>
     <use style="fill:#ff0000;" x="310.68" xlink:href="#m54f73ae6bf" y="244.1416488"/>
     <use style="fill:#ff0000;" x="316.26" xlink:href="#m54f73ae6bf" y="244.808"/>
     <use style="fill:#ff0000;" x="321.84" xlink:href="#m54f73ae6bf" y="245.366"/>
     <use style="fill:#ff0000;" x="327.42" xlink:href="#m54f73ae6bf" y="245.924"/>
     <use style="fill:#ff0000;" x="333.0" xlink:href="#m54f73ae6bf" y="246.4498592"/>
     <use style="fill:#ff0000;" x="338.58" xlink:href="#m54f73ae6bf" y="246.916"/>
     <use style="fill:#ff0000;" x="344.16" xlink:href="#m54f73ae6bf" y="247.35"/>
     <use style="fill:#ff0000;" x="349.74" xlink:href="#m54f73ae6bf" y="247.66"/>
     <use style="fill:#ff0000;" x="355.32" xlink:href="#m54f73ae6bf" y="248.032"/>
     <use style="fill:#ff0000;" x="360.9" xlink:href="#m54f73ae6bf" y="248.3172"/>
     <use style="fill:#ff0000;" x="366.48" xlink:href="#m54f73ae6bf" y="248.601408"/>
     <use style="fill:#ff0000;" x="372.06" xlink:href="#m54f73ae6bf" y="248.8628"/>
     <use style="fill:#ff0000;" x="377.64" xlink:href="#m54f73ae6bf" y="249.0364"/>
     <use style="fill:#ff0000;" x="383.22" xlink:href="#m54f73ae6bf" y="249.2373048"/>
     <use style="fill:#ff0000;" x="388.8" xlink:href="#m54f73ae6bf" y="249.4456"/>
    </g>
   </g>
   <g id="line2d_54">
    <defs>
     <path d="M 0 -2.5 
L -2.5 2.5 
L 2.5 2.5 
z
" id="mcfab41c655"/>
    </defs>
    <g clip-path="url(#pe84f26082f)">
     <use style="fill:#0000ff;" x="81.9" xlink:href="#mcfab41c655" y="249.417018"/>
     <use style="fill:#0000ff;" x="87.48" xlink:href="#mcfab41c655" y="248.9280984"/>
     <use style="fill:#0000ff;" x="93.06" xlink:href="#mcfab41c655" y="248.6892"/>
     <use style="fill:#0000ff;" x="98.64" xlink:href="#mcfab41c655" y="248.094"/>
     <use style="fill:#0000ff;" x="104.22" xlink:href="#mcfab41c655" y="247.474"/>
     <use style="fill:#0000ff;" x="109.8" xlink:href="#mcfab41c655" y="246.668"/>
     <use style="fill:#0000ff;" x="115.38" xlink:href="#mcfab41c655" y="245.924"/>
     <use style="fill:#0000ff;" x="120.96" xlink:href="#mcfab41c655" y="244.898582"/>
     <use style="fill:#0000ff;" x="126.54" xlink:href="#mcfab41c655" y="243.9188704"/>
     <use style="fill:#0000ff;" x="132.12" xlink:href="#mcfab41c655" y="242.8196104"/>
     <use style="fill:#0000ff;" x="137.7" xlink:href="#mcfab41c655" y="241.654308"/>
     <use style="fill:#0000ff;" x="143.28" xlink:href="#mcfab41c655" y="240.314054"/>
     <use style="fill:#0000ff;" x="148.86" xlink:href="#mcfab41c655" y="238.79524"/>
     <use style="fill:#0000ff;" x="154.44" xlink:href="#mcfab41c655" y="237.162036"/>
     <use style="fill:#0000ff;" x="160.02" xlink:href="#mcfab41c655" y="235.351884"/>
     <use style="fill:#0000ff;" x="165.6" xlink:href="#mcfab41c655" y="233.424552"/>
     <use style="fill:#0000ff;" x="171.18" xlink:href="#mcfab41c655" y="231.314196"/>
     <use style="fill:#0000ff;" x="176.76" xlink:href="#mcfab41c655" y="229.100052"/>
     <use style="fill:#0000ff;" x="182.34" xlink:href="#mcfab41c655" y="226.697924"/>
     <use style="fill:#0000ff;" x="187.92" xlink:href="#mcfab41c655" y="224.108432"/>
     <use style="fill:#0000ff;" x="193.5" xlink:href="#mcfab41c655" y="221.362452"/>
     <use style="fill:#0000ff;" x="199.08" xlink:href="#mcfab41c655" y="218.461596"/>
     <use style="fill:#0000ff;" x="204.66" xlink:href="#mcfab41c655" y="215.207464"/>
     <use style="fill:#0000ff;" x="210.24" xlink:href="#mcfab41c655" y="212.117632"/>
     <use style="fill:#0000ff;" x="215.82" xlink:href="#mcfab41c655" y="208.734044"/>
     <use style="fill:#0000ff;" x="221.4" xlink:href="#mcfab41c655" y="205.199424"/>
     <use style="fill:#0000ff;" x="226.98" xlink:href="#mcfab41c655" y="201.51216"/>
     <use style="fill:#0000ff;" x="232.56" xlink:href="#mcfab41c655" y="197.673616"/>
     <use style="fill:#0000ff;" x="238.14" xlink:href="#mcfab41c655" y="193.740212"/>
     <use style="fill:#0000ff;" x="243.72" xlink:href="#mcfab41c655" y="189.507472"/>
     <use style="fill:#0000ff;" x="249.3" xlink:href="#mcfab41c655" y="185.21174"/>
     <use style="fill:#0000ff;" x="254.88" xlink:href="#mcfab41c655" y="180.831316"/>
     <use style="fill:#0000ff;" x="260.46" xlink:href="#mcfab41c655" y="176.300356"/>
     <use style="fill:#0000ff;" x="266.04" xlink:href="#mcfab41c655" y="171.593812"/>
     <use style="fill:#0000ff;" x="271.62" xlink:href="#mcfab41c655" y="166.84672"/>
     <use style="fill:#0000ff;" x="277.2" xlink:href="#mcfab41c655" y="161.895152"/>
     <use style="fill:#0000ff;" x="282.78" xlink:href="#mcfab41c655" y="156.902788"/>
     <use style="fill:#0000ff;" x="288.36" xlink:href="#mcfab41c655" y="151.781464"/>
     <use style="fill:#0000ff;" x="293.94" xlink:href="#mcfab41c655" y="146.635464"/>
     <use style="fill:#0000ff;" x="299.52" xlink:href="#mcfab41c655" y="142.020804"/>
     <use style="fill:#0000ff;" x="305.1" xlink:href="#mcfab41c655" y="136.698972"/>
     <use style="fill:#0000ff;" x="310.68" xlink:href="#mcfab41c655" y="130.976"/>
     <use style="fill:#0000ff;" x="316.26" xlink:href="#mcfab41c655" y="125.30548"/>
     <use style="fill:#0000ff;" x="321.84" xlink:href="#mcfab41c655" y="119.96976"/>
     <use style="fill:#0000ff;" x="327.42" xlink:href="#mcfab41c655" y="114.07232"/>
     <use style="fill:#0000ff;" x="333.0" xlink:href="#mcfab41c655" y="108.04468"/>
     <use style="fill:#0000ff;" x="338.58" xlink:href="#mcfab41c655" y="102.47212"/>
     <use style="fill:#0000ff;" x="344.16" xlink:href="#mcfab41c655" y="96.80656"/>
     <use style="fill:#0000ff;" x="349.74" xlink:href="#mcfab41c655" y="90.98724"/>
     <use style="fill:#0000ff;" x="355.32" xlink:href="#mcfab41c655" y="85.0898"/>
     <use style="fill:#0000ff;" x="360.9" xlink:href="#mcfab41c655" y="79.18988"/>
     <use style="fill:#0000ff;" x="366.48" xlink:href="#mcfab41c655" y="73.28748"/>
     <use style="fill:#0000ff;" x="372.06" xlink:href="#mcfab41c655" y="67.45948"/>
     <use style="fill:#0000ff;" x="377.64" xlink:href="#mcfab41c655" y="61.37356"/>
     <use style="fill:#0000ff;" x="383.22" xlink:href="#mcfab41c655" y="55.33104"/>
     <use style="fill:#0000ff;" x="388.8" xlink:href="#mcfab41c655" y="49.24636"/>
    </g>
   </g>
   <g id="line2d_55">
    <defs>
     <path d="M -0 2.5 
L 2.5 -2.5 
L -2.5 -2.5 
z
" id="m64b4656c9c"/>
    </defs>
    <g clip-path="url(#pe84f26082f)">
     <use style="fill:#0000ff;" x="81.9" xlink:href="#m64b4656c9c" y="248.7602768"/>
     <use style="fill:#0000ff;" x="87.48" xlink:href="#m64b4656c9c" y="248.1743644"/>
     <use style="fill:#0000ff;" x="93.06" xlink:href="#m64b4656c9c" y="247.8536756"/>
     <use style="fill:#0000ff;" x="98.64" xlink:href="#m64b4656c9c" y="247.1876716"/>
     <use style="fill:#0000ff;" x="104.22" xlink:href="#m64b4656c9c" y="246.5546268"/>
     <use style="fill:#0000ff;" x="109.8" xlink:href="#m64b4656c9c" y="245.9041848"/>
     <use style="fill:#0000ff;" x="115.38" xlink:href="#m64b4656c9c" y="245.0963124"/>
     <use style="fill:#0000ff;" x="120.96" xlink:href="#m64b4656c9c" y="244.289494"/>
     <use style="fill:#0000ff;" x="126.54" xlink:href="#m64b4656c9c" y="243.309832"/>
     <use style="fill:#0000ff;" x="132.12" xlink:href="#m64b4656c9c" y="242.144046"/>
     <use style="fill:#0000ff;" x="137.7" xlink:href="#m64b4656c9c" y="240.902"/>
     <use style="fill:#0000ff;" x="143.28" xlink:href="#m64b4656c9c" y="239.538"/>
     <use style="fill:#0000ff;" x="148.86" xlink:href="#m64b4656c9c" y="238.05"/>
     <use style="fill:#0000ff;" x="154.44" xlink:href="#m64b4656c9c" y="236.376"/>
     <use style="fill:#0000ff;" x="160.02" xlink:href="#m64b4656c9c" y="234.516"/>
     <use style="fill:#0000ff;" x="165.6" xlink:href="#m64b4656c9c" y="232.718"/>
     <use style="fill:#0000ff;" x="171.18" xlink:href="#m64b4656c9c" y="230.61"/>
     <use style="fill:#0000ff;" x="176.76" xlink:href="#m64b4656c9c" y="228.192"/>
     <use style="fill:#0000ff;" x="182.34" xlink:href="#m64b4656c9c" y="225.836"/>
     <use style="fill:#0000ff;" x="187.92" xlink:href="#m64b4656c9c" y="223.046"/>
     <use style="fill:#0000ff;" x="193.5" xlink:href="#m64b4656c9c" y="220.38"/>
     <use style="fill:#0000ff;" x="199.08" xlink:href="#m64b4656c9c" y="217.404"/>
     <use style="fill:#0000ff;" x="204.66" xlink:href="#m64b4656c9c" y="214.676496"/>
     <use style="fill:#0000ff;" x="210.24" xlink:href="#m64b4656c9c" y="211.39"/>
     <use style="fill:#0000ff;" x="215.82" xlink:href="#m64b4656c9c" y="207.98"/>
     <use style="fill:#0000ff;" x="221.4" xlink:href="#m64b4656c9c" y="204.012"/>
     <use style="fill:#0000ff;" x="226.98" xlink:href="#m64b4656c9c" y="200.043628"/>
     <use style="fill:#0000ff;" x="232.56" xlink:href="#m64b4656c9c" y="196.324"/>
     <use style="fill:#0000ff;" x="238.14" xlink:href="#m64b4656c9c" y="192.232"/>
     <use style="fill:#0000ff;" x="243.72" xlink:href="#m64b4656c9c" y="188.14"/>
     <use style="fill:#0000ff;" x="249.3" xlink:href="#m64b4656c9c" y="183.862"/>
     <use style="fill:#0000ff;" x="254.88" xlink:href="#m64b4656c9c" y="179.336"/>
     <use style="fill:#0000ff;" x="260.46" xlink:href="#m64b4656c9c" y="174.872"/>
     <use style="fill:#0000ff;" x="266.04" xlink:href="#m64b4656c9c" y="170.222"/>
     <use style="fill:#0000ff;" x="271.62" xlink:href="#m64b4656c9c" y="165.324"/>
     <use style="fill:#0000ff;" x="277.2" xlink:href="#m64b4656c9c" y="160.55"/>
     <use style="fill:#0000ff;" x="282.78" xlink:href="#m64b4656c9c" y="155.528"/>
     <use style="fill:#0000ff;" x="288.36" xlink:href="#m64b4656c9c" y="150.382"/>
     <use style="fill:#0000ff;" x="293.94" xlink:href="#m64b4656c9c" y="144.848376"/>
     <use style="fill:#0000ff;" x="299.52" xlink:href="#m64b4656c9c" y="139.43156"/>
     <use style="fill:#0000ff;" x="305.1" xlink:href="#m64b4656c9c" y="133.61348"/>
     <use style="fill:#0000ff;" x="310.68" xlink:href="#m64b4656c9c" y="128.504184"/>
     <use style="fill:#0000ff;" x="316.26" xlink:href="#m64b4656c9c" y="122.70396"/>
     <use style="fill:#0000ff;" x="321.84" xlink:href="#m64b4656c9c" y="117.06196"/>
     <use style="fill:#0000ff;" x="327.42" xlink:href="#m64b4656c9c" y="111.59728"/>
     <use style="fill:#0000ff;" x="333.0" xlink:href="#m64b4656c9c" y="105.99868"/>
     <use style="fill:#0000ff;" x="338.58" xlink:href="#m64b4656c9c" y="100.18804"/>
     <use style="fill:#0000ff;" x="344.16" xlink:href="#m64b4656c9c" y="93.962"/>
     <use style="fill:#0000ff;" x="349.74" xlink:href="#m64b4656c9c" y="88.134"/>
     <use style="fill:#0000ff;" x="355.32" xlink:href="#m64b4656c9c" y="82.43"/>
     <use style="fill:#0000ff;" x="360.9" xlink:href="#m64b4656c9c" y="76.5338"/>
     <use style="fill:#0000ff;" x="366.48" xlink:href="#m64b4656c9c" y="70.62892"/>
     <use style="fill:#0000ff;" x="372.06" xlink:href="#m64b4656c9c" y="64.55168"/>
     <use style="fill:#0000ff;" x="377.64" xlink:href="#m64b4656c9c" y="58.77576"/>
     <use style="fill:#0000ff;" x="383.22" xlink:href="#m64b4656c9c" y="52.546"/>
     <use style="fill:#0000ff;" x="388.8" xlink:href="#m64b4656c9c" y="46.52332"/>
    </g>
   </g>
   <g id="patch_3">
    <path d="M 54 28.8 
L 388.8 28.8 
" style="fill:none;"/>
   </g>
   <g id="patch_4">
    <path d="M 388.8 252 
L 388.8 28.8 
" style="fill:none;"/>
   </g>
   <g id="patch_5">
    <path d="M 54 252 
L 388.8 252 
" style="fill:none;"/>
   </g>
   <g id="patch_6">
    <path d="M 54 252 
L 54 28.8 
" style="fill:none;"/>
   </g>
   <g id="legend_1">
    <g id="line2d_56"/>
    <g id="line2d_57">
     <g>
      <use style="fill:#ff0000;" x="80.6" xlink:href="#md36b96f34b" y="46.6915625"/>
     </g>
    </g>
    <g id="text_20">
     <!-- Call (Ask) -->
     <defs>
      <path d="M 40.4375 6.390625 
Q 35.546875 2.25 31.03125 0.53125 
Q 26.515625 -1.171875 21.34375 -1.171875 
Q 12.796875 -1.171875 8.203125 3 
Q 3.609375 7.171875 3.609375 13.671875 
Q 3.609375 17.484375 5.34375 20.625 
Q 7.078125 23.78125 9.890625 25.6875 
Q 12.703125 27.59375 16.21875 28.5625 
Q 18.796875 29.25 24.03125 29.890625 
Q 34.671875 31.15625 39.703125 32.90625 
Q 39.75 34.71875 39.75 35.203125 
Q 39.75 40.578125 37.25 42.78125 
Q 33.890625 45.75 27.25 45.75 
Q 21.046875 45.75 18.09375 43.578125 
Q 15.140625 41.40625 13.71875 35.890625 
L 5.125 37.0625 
Q 6.296875 42.578125 8.984375 45.96875 
Q 11.671875 49.359375 16.75 51.1875 
Q 21.828125 53.03125 28.515625 53.03125 
Q 35.15625 53.03125 39.296875 51.46875 
Q 43.453125 49.90625 45.40625 47.53125 
Q 47.359375 45.171875 48.140625 41.546875 
Q 48.578125 39.3125 48.578125 33.453125 
L 48.578125 21.734375 
Q 48.578125 9.46875 49.140625 6.21875 
Q 49.703125 2.984375 51.375 0 
L 42.1875 0 
Q 40.828125 2.734375 40.4375 6.390625 
M 39.703125 26.03125 
Q 34.90625 24.078125 25.34375 22.703125 
Q 19.921875 21.921875 17.671875 20.9375 
Q 15.4375 19.96875 14.203125 18.09375 
Q 12.984375 16.21875 12.984375 13.921875 
Q 12.984375 10.40625 15.640625 8.0625 
Q 18.3125 5.71875 23.4375 5.71875 
Q 28.515625 5.71875 32.46875 7.9375 
Q 36.421875 10.15625 38.28125 14.015625 
Q 39.703125 17 39.703125 22.796875 
z
" id="ArialMT-61"/>
      <path d="M -0.140625 0 
L 27.34375 71.578125 
L 37.546875 71.578125 
L 66.84375 0 
L 56.0625 0 
L 47.703125 21.6875 
L 17.78125 21.6875 
L 9.90625 0 
z
M 20.515625 29.390625 
L 44.78125 29.390625 
L 37.3125 49.21875 
Q 33.890625 58.25 32.234375 64.0625 
Q 30.859375 57.171875 28.375 50.390625 
z
" id="ArialMT-41"/>
      <path d="M 58.796875 25.09375 
L 68.265625 22.703125 
Q 65.28125 11.03125 57.546875 4.90625 
Q 49.8125 -1.21875 38.625 -1.21875 
Q 27.046875 -1.21875 19.796875 3.484375 
Q 12.546875 8.203125 8.765625 17.140625 
Q 4.984375 26.078125 4.984375 36.328125 
Q 4.984375 47.515625 9.25 55.828125 
Q 13.53125 64.15625 21.40625 68.46875 
Q 29.296875 72.796875 38.765625 72.796875 
Q 49.515625 72.796875 56.828125 67.328125 
Q 64.15625 61.859375 67.046875 51.953125 
L 57.71875 49.75 
Q 55.21875 57.5625 50.484375 61.125 
Q 45.75 64.703125 38.578125 64.703125 
Q 30.328125 64.703125 24.78125 60.734375 
Q 19.234375 56.78125 16.984375 50.109375 
Q 14.75 43.453125 14.75 36.375 
Q 14.75 27.25 17.40625 20.4375 
Q 20.0625 13.625 25.671875 10.25 
Q 31.296875 6.890625 37.84375 6.890625 
Q 45.796875 6.890625 51.3125 11.46875 
Q 56.84375 16.0625 58.796875 25.09375 
" id="ArialMT-43"/>
      <path d="M 3.078125 15.484375 
L 11.765625 16.84375 
Q 12.5 11.625 15.84375 8.84375 
Q 19.1875 6.0625 25.203125 6.0625 
Q 31.25 6.0625 34.171875 8.515625 
Q 37.109375 10.984375 37.109375 14.3125 
Q 37.109375 17.28125 34.515625 19 
Q 32.71875 20.171875 25.53125 21.96875 
Q 15.875 24.421875 12.140625 26.203125 
Q 8.40625 27.984375 6.46875 31.125 
Q 4.546875 34.28125 4.546875 38.09375 
Q 4.546875 41.546875 6.125 44.5 
Q 7.71875 47.46875 10.453125 49.421875 
Q 12.5 50.921875 16.03125 51.96875 
Q 19.578125 53.03125 23.640625 53.03125 
Q 29.734375 53.03125 34.34375 51.265625 
Q 38.96875 49.515625 41.15625 46.5 
Q 43.359375 43.5 44.1875 38.484375 
L 35.59375 37.3125 
Q 35.015625 41.3125 32.203125 43.546875 
Q 29.390625 45.796875 24.265625 45.796875 
Q 18.21875 45.796875 15.625 43.796875 
Q 13.03125 41.796875 13.03125 39.109375 
Q 13.03125 37.40625 14.109375 36.03125 
Q 15.1875 34.625 17.484375 33.6875 
Q 18.796875 33.203125 25.25 31.453125 
Q 34.578125 28.953125 38.25 27.359375 
Q 41.9375 25.78125 44.03125 22.75 
Q 46.140625 19.734375 46.140625 15.234375 
Q 46.140625 10.84375 43.578125 6.953125 
Q 41.015625 3.078125 36.171875 0.953125 
Q 31.34375 -1.171875 25.25 -1.171875 
Q 15.140625 -1.171875 9.84375 3.03125 
Q 4.546875 7.234375 3.078125 15.484375 
" id="ArialMT-73"/>
      <path d="M 6.390625 0 
L 6.390625 71.578125 
L 15.1875 71.578125 
L 15.1875 0 
z
" id="ArialMT-6c"/>
      <path d="M 12.359375 -21.046875 
L 6.0625 -21.046875 
Q 20.65625 2.390625 20.65625 25.875 
Q 20.65625 35.0625 18.5625 44.09375 
Q 16.890625 51.421875 13.921875 58.15625 
Q 12.015625 62.546875 6.0625 72.796875 
L 12.359375 72.796875 
Q 21.53125 60.546875 25.921875 48.1875 
Q 29.6875 37.546875 29.6875 25.921875 
Q 29.6875 12.75 24.625 0.4375 
Q 19.578125 -11.859375 12.359375 -21.046875 
" id="ArialMT-29"/>
      <path d="M 23.390625 -21.046875 
Q 16.109375 -11.859375 11.078125 0.4375 
Q 6.0625 12.75 6.0625 25.921875 
Q 6.0625 37.546875 9.8125 48.1875 
Q 14.203125 60.546875 23.390625 72.796875 
L 29.6875 72.796875 
Q 23.78125 62.640625 21.875 58.296875 
Q 18.890625 51.5625 17.1875 44.234375 
Q 15.09375 35.109375 15.09375 25.875 
Q 15.09375 2.390625 29.6875 -21.046875 
z
" id="ArialMT-28"/>
      <path id="ArialMT-20"/>
     </defs>
     <g style="fill:#262626;" transform="translate(105.8 51.5915625)scale(0.14 -0.14)">
      <use xlink:href="#ArialMT-43"/>
      <use x="72.216796875" xlink:href="#ArialMT-61"/>
      <use x="127.83203125" xlink:href="#ArialMT-6c"/>
      <use x="150.048828125" xlink:href="#ArialMT-6c"/>
      <use x="172.265625" xlink:href="#ArialMT-20"/>
      <use x="200.048828125" xlink:href="#ArialMT-28"/>
      <use x="233.349609375" xlink:href="#ArialMT-41"/>
      <use x="300.048828125" xlink:href="#ArialMT-73"/>
      <use x="350.048828125" xlink:href="#ArialMT-6b"/>
      <use x="400.048828125" xlink:href="#ArialMT-29"/>
     </g>
    </g>
    <g id="line2d_58"/>
    <g id="line2d_59">
     <g>
      <use style="fill:#ff0000;" x="80.6" xlink:href="#m54f73ae6bf" y="66.8296875"/>
     </g>
    </g>
    <g id="text_21">
     <!-- Call (Bid) -->
     <defs>
      <path d="M 7.328125 0 
L 7.328125 71.578125 
L 34.1875 71.578125 
Q 42.390625 71.578125 47.34375 69.40625 
Q 52.296875 67.234375 55.09375 62.71875 
Q 57.90625 58.203125 57.90625 53.265625 
Q 57.90625 48.6875 55.421875 44.625 
Q 52.9375 40.578125 47.90625 38.09375 
Q 54.390625 36.1875 57.875 31.59375 
Q 61.375 27 61.375 20.75 
Q 61.375 15.71875 59.25 11.390625 
Q 57.125 7.078125 54 4.734375 
Q 50.875 2.390625 46.15625 1.1875 
Q 41.453125 0 34.625 0 
z
M 16.796875 41.5 
L 32.28125 41.5 
Q 38.578125 41.5 41.3125 42.328125 
Q 44.921875 43.40625 46.75 45.890625 
Q 48.578125 48.390625 48.578125 52.15625 
Q 48.578125 55.71875 46.875 58.421875 
Q 45.171875 61.140625 41.984375 62.140625 
Q 38.8125 63.140625 31.109375 63.140625 
L 16.796875 63.140625 
z
M 16.796875 8.453125 
L 34.625 8.453125 
Q 39.203125 8.453125 41.0625 8.796875 
Q 44.34375 9.375 46.53125 10.734375 
Q 48.734375 12.109375 50.140625 14.71875 
Q 51.5625 17.328125 51.5625 20.75 
Q 51.5625 24.75 49.515625 27.703125 
Q 47.46875 30.671875 43.828125 31.859375 
Q 40.1875 33.0625 33.34375 33.0625 
L 16.796875 33.0625 
z
" id="ArialMT-42"/>
      <path d="M 40.234375 0 
L 40.234375 6.546875 
Q 35.296875 -1.171875 25.734375 -1.171875 
Q 19.53125 -1.171875 14.328125 2.25 
Q 9.125 5.671875 6.265625 11.796875 
Q 3.421875 17.921875 3.421875 25.875 
Q 3.421875 33.640625 6 39.96875 
Q 8.59375 46.296875 13.765625 49.65625 
Q 18.953125 53.03125 25.34375 53.03125 
Q 30.03125 53.03125 33.6875 51.046875 
Q 37.359375 49.078125 39.65625 45.90625 
L 39.65625 71.578125 
L 48.390625 71.578125 
L 48.390625 0 
z
M 12.453125 25.875 
Q 12.453125 15.921875 16.640625 10.984375 
Q 20.84375 6.0625 26.5625 6.0625 
Q 32.328125 6.0625 36.34375 10.765625 
Q 40.375 15.484375 40.375 25.140625 
Q 40.375 35.796875 36.265625 40.765625 
Q 32.171875 45.75 26.171875 45.75 
Q 20.3125 45.75 16.375 40.96875 
Q 12.453125 36.1875 12.453125 25.875 
" id="ArialMT-64"/>
     </defs>
     <g style="fill:#262626;" transform="translate(105.8 71.7296875)scale(0.14 -0.14)">
      <use xlink:href="#ArialMT-43"/>
      <use x="72.216796875" xlink:href="#ArialMT-61"/>
      <use x="127.83203125" xlink:href="#ArialMT-6c"/>
      <use x="150.048828125" xlink:href="#ArialMT-6c"/>
      <use x="172.265625" xlink:href="#ArialMT-20"/>
      <use x="200.048828125" xlink:href="#ArialMT-28"/>
      <use x="233.349609375" xlink:href="#ArialMT-42"/>
      <use x="300.048828125" xlink:href="#ArialMT-69"/>
      <use x="322.265625" xlink:href="#ArialMT-64"/>
      <use x="377.880859375" xlink:href="#ArialMT-29"/>
     </g>
    </g>
    <g id="line2d_60"/>
    <g id="line2d_61">
     <g>
      <use style="fill:#0000ff;" x="80.6" xlink:href="#mcfab41c655" y="86.9678125"/>
     </g>
    </g>
    <g id="text_22">
     <!-- Put (Ask) -->
     <defs>
      <path d="M 40.578125 0 
L 40.578125 7.625 
Q 34.515625 -1.171875 24.125 -1.171875 
Q 19.53125 -1.171875 15.546875 0.578125 
Q 11.578125 2.34375 9.640625 5 
Q 7.71875 7.671875 6.9375 11.53125 
Q 6.390625 14.109375 6.390625 19.734375 
L 6.390625 51.859375 
L 15.1875 51.859375 
L 15.1875 23.09375 
Q 15.1875 16.21875 15.71875 13.8125 
Q 16.546875 10.359375 19.234375 8.375 
Q 21.921875 6.390625 25.875 6.390625 
Q 29.828125 6.390625 33.296875 8.421875 
Q 36.765625 10.453125 38.203125 13.9375 
Q 39.65625 17.4375 39.65625 24.078125 
L 39.65625 51.859375 
L 48.4375 51.859375 
L 48.4375 0 
z
" id="ArialMT-75"/>
     </defs>
     <g style="fill:#262626;" transform="translate(105.8 91.8678125)scale(0.14 -0.14)">
      <use xlink:href="#ArialMT-50"/>
      <use x="66.69921875" xlink:href="#ArialMT-75"/>
      <use x="122.314453125" xlink:href="#ArialMT-74"/>
      <use x="150.09765625" xlink:href="#ArialMT-20"/>
      <use x="177.880859375" xlink:href="#ArialMT-28"/>
      <use x="211.181640625" xlink:href="#ArialMT-41"/>
      <use x="277.880859375" xlink:href="#ArialMT-73"/>
      <use x="327.880859375" xlink:href="#ArialMT-6b"/>
      <use x="377.880859375" xlink:href="#ArialMT-29"/>
     </g>
    </g>
    <g id="line2d_62"/>
    <g id="line2d_63">
     <g>
      <use style="fill:#0000ff;" x="80.6" xlink:href="#m64b4656c9c" y="107.1059375"/>
     </g>
    </g>
    <g id="text_23">
     <!-- Put (Bid) -->
     <g style="fill:#262626;" transform="translate(105.8 112.0059375)scale(0.14 -0.14)">
      <use xlink:href="#ArialMT-50"/>
      <use x="66.69921875" xlink:href="#ArialMT-75"/>
      <use x="122.314453125" xlink:href="#ArialMT-74"/>
      <use x="150.09765625" xlink:href="#ArialMT-20"/>
      <use x="177.880859375" xlink:href="#ArialMT-28"/>
      <use x="211.181640625" xlink:href="#ArialMT-42"/>
      <use x="277.880859375" xlink:href="#ArialMT-69"/>
      <use x="300.09765625" xlink:href="#ArialMT-64"/>
      <use x="355.712890625" xlink:href="#ArialMT-29"/>
     </g>
    </g>
   </g>
  </g>
 </g>
 <defs>
  <clipPath id="pe84f26082f">
   <rect height="223.2" width="334.8" x="54.0" y="28.8"/>
  </clipPath>
 </defs>
</svg>
