<?xml version="1.0" encoding="utf-8" standalone="no"?>
<!DOCTYPE svg PUBLIC "-//W3C//DTD SVG 1.1//EN"
  "http://www.w3.org/Graphics/SVG/1.1/DTD/svg11.dtd">
<!-- Created with matplotlib (http://matplotlib.org/) -->
<svg height="288pt" version="1.1" viewBox="0 0 432 288" width="432pt" xmlns="http://www.w3.org/2000/svg" xmlns:xlink="http://www.w3.org/1999/xlink">
 <defs>
  <style type="text/css">
*{stroke-linecap:butt;stroke-linejoin:round;stroke-miterlimit:100000;}
  </style>
 </defs>
 <g id="figure_1">
  <g id="patch_1">
   <path d="M 0 288 
L 432 288 
L 432 0 
L 0 0 
z
" style="fill:#ffffff;"/>
  </g>
  <g id="axes_1">
   <g id="patch_2">
    <path d="M 54 252 
L 388.8 252 
L 388.8 28.8 
L 54 28.8 
z
" style="fill:#eaeaf2;"/>
   </g>
   <g id="matplotlib.axis_1">
    <g id="xtick_1">
     <g id="line2d_1">
      <path clip-path="url(#p610de5fa94)" d="M 54 252 
L 54 28.8 
" style="fill:none;stroke:#ffffff;stroke-linecap:round;"/>
     </g>
     <g id="line2d_2">
      <defs>
       <path d="M 0 0 
L 0 0 
" id="m20b586cab0" style="stroke:#262626;"/>
      </defs>
      <g>
       <use style="fill:#262626;stroke:#262626;" x="54.0" xlink:href="#m20b586cab0" y="252.0"/>
      </g>
     </g>
     <g id="line2d_3">
      <g>
       <use style="fill:#262626;stroke:#262626;" x="54.0" xlink:href="#m20b586cab0" y="28.8"/>
      </g>
     </g>
     <g id="text_1">
      <!-- 11.0 -->
      <defs>
       <path d="M 4.15625 35.296875 
Q 4.15625 48 6.765625 55.734375 
Q 9.375 63.484375 14.515625 67.671875 
Q 19.671875 71.875 27.484375 71.875 
Q 33.25 71.875 37.59375 69.546875 
Q 41.9375 67.234375 44.765625 62.859375 
Q 47.609375 58.5 49.21875 52.21875 
Q 50.828125 45.953125 50.828125 35.296875 
Q 50.828125 22.703125 48.234375 14.96875 
Q 45.65625 7.234375 40.5 3 
Q 35.359375 -1.21875 27.484375 -1.21875 
Q 17.140625 -1.21875 11.234375 6.203125 
Q 4.15625 15.140625 4.15625 35.296875 
M 13.1875 35.296875 
Q 13.1875 17.671875 17.3125 11.828125 
Q 21.4375 6 27.484375 6 
Q 33.546875 6 37.671875 11.859375 
Q 41.796875 17.71875 41.796875 35.296875 
Q 41.796875 52.984375 37.671875 58.78125 
Q 33.546875 64.59375 27.390625 64.59375 
Q 21.34375 64.59375 17.71875 59.46875 
Q 13.1875 52.9375 13.1875 35.296875 
" id="ArialMT-30"/>
       <path d="M 37.25 0 
L 28.46875 0 
L 28.46875 56 
Q 25.296875 52.984375 20.140625 49.953125 
Q 14.984375 46.921875 10.890625 45.40625 
L 10.890625 53.90625 
Q 18.265625 57.375 23.78125 62.296875 
Q 29.296875 67.234375 31.59375 71.875 
L 37.25 71.875 
z
" id="ArialMT-31"/>
       <path d="M 9.078125 0 
L 9.078125 10.015625 
L 19.09375 10.015625 
L 19.09375 0 
z
" id="ArialMT-2e"/>
      </defs>
      <g style="fill:#262626;" transform="translate(42.33 267.589375)scale(0.12 -0.12)">
       <use xlink:href="#ArialMT-31"/>
       <use x="55.505859375" xlink:href="#ArialMT-31"/>
       <use x="111.12109375" xlink:href="#ArialMT-2e"/>
       <use x="138.904296875" xlink:href="#ArialMT-30"/>
      </g>
     </g>
    </g>
    <g id="xtick_2">
     <g id="line2d_4">
      <path clip-path="url(#p610de5fa94)" d="M 137.7 252 
L 137.7 28.8 
" style="fill:none;stroke:#ffffff;stroke-linecap:round;"/>
     </g>
     <g id="line2d_5">
      <g>
       <use style="fill:#262626;stroke:#262626;" x="137.7" xlink:href="#m20b586cab0" y="252.0"/>
      </g>
     </g>
     <g id="line2d_6">
      <g>
       <use style="fill:#262626;stroke:#262626;" x="137.7" xlink:href="#m20b586cab0" y="28.8"/>
      </g>
     </g>
     <g id="text_2">
      <!-- 11.5 -->
      <defs>
       <path d="M 4.15625 18.75 
L 13.375 19.53125 
Q 14.40625 12.796875 18.140625 9.390625 
Q 21.875 6 27.15625 6 
Q 33.5 6 37.890625 10.78125 
Q 42.28125 15.578125 42.28125 23.484375 
Q 42.28125 31 38.0625 35.34375 
Q 33.84375 39.703125 27 39.703125 
Q 22.75 39.703125 19.328125 37.765625 
Q 15.921875 35.84375 13.96875 32.765625 
L 5.71875 33.84375 
L 12.640625 70.609375 
L 48.25 70.609375 
L 48.25 62.203125 
L 19.671875 62.203125 
L 15.828125 42.96875 
Q 22.265625 47.46875 29.34375 47.46875 
Q 38.71875 47.46875 45.15625 40.96875 
Q 51.609375 34.46875 51.609375 24.265625 
Q 51.609375 14.546875 45.953125 7.46875 
Q 39.0625 -1.21875 27.15625 -1.21875 
Q 17.390625 -1.21875 11.203125 4.25 
Q 5.03125 9.71875 4.15625 18.75 
" id="ArialMT-35"/>
      </defs>
      <g style="fill:#262626;" transform="translate(126.03 267.589375)scale(0.12 -0.12)">
       <use xlink:href="#ArialMT-31"/>
       <use x="55.505859375" xlink:href="#ArialMT-31"/>
       <use x="111.12109375" xlink:href="#ArialMT-2e"/>
       <use x="138.904296875" xlink:href="#ArialMT-35"/>
      </g>
     </g>
    </g>
    <g id="xtick_3">
     <g id="line2d_7">
      <path clip-path="url(#p610de5fa94)" d="M 221.4 252 
L 221.4 28.8 
" style="fill:none;stroke:#ffffff;stroke-linecap:round;"/>
     </g>
     <g id="line2d_8">
      <g>
       <use style="fill:#262626;stroke:#262626;" x="221.4" xlink:href="#m20b586cab0" y="252.0"/>
      </g>
     </g>
     <g id="line2d_9">
      <g>
       <use style="fill:#262626;stroke:#262626;" x="221.4" xlink:href="#m20b586cab0" y="28.8"/>
      </g>
     </g>
     <g id="text_3">
      <!-- 12.0 -->
      <defs>
       <path d="M 50.34375 8.453125 
L 50.34375 0 
L 3.03125 0 
Q 2.9375 3.171875 4.046875 6.109375 
Q 5.859375 10.9375 9.828125 15.625 
Q 13.8125 20.3125 21.34375 26.46875 
Q 33.015625 36.03125 37.109375 41.625 
Q 41.21875 47.21875 41.21875 52.203125 
Q 41.21875 57.421875 37.46875 61 
Q 33.734375 64.59375 27.734375 64.59375 
Q 21.390625 64.59375 17.578125 60.78125 
Q 13.765625 56.984375 13.71875 50.25 
L 4.6875 51.171875 
Q 5.609375 61.28125 11.65625 66.578125 
Q 17.71875 71.875 27.9375 71.875 
Q 38.234375 71.875 44.234375 66.15625 
Q 50.25 60.453125 50.25 52 
Q 50.25 47.703125 48.484375 43.546875 
Q 46.734375 39.40625 42.65625 34.8125 
Q 38.578125 30.21875 29.109375 22.21875 
Q 21.1875 15.578125 18.9375 13.203125 
Q 16.703125 10.84375 15.234375 8.453125 
z
" id="ArialMT-32"/>
      </defs>
      <g style="fill:#262626;" transform="translate(209.7234375 267.589375)scale(0.12 -0.12)">
       <use xlink:href="#ArialMT-31"/>
       <use x="55.615234375" xlink:href="#ArialMT-32"/>
       <use x="111.23046875" xlink:href="#ArialMT-2e"/>
       <use x="139.013671875" xlink:href="#ArialMT-30"/>
      </g>
     </g>
    </g>
    <g id="xtick_4">
     <g id="line2d_10">
      <path clip-path="url(#p610de5fa94)" d="M 305.1 252 
L 305.1 28.8 
" style="fill:none;stroke:#ffffff;stroke-linecap:round;"/>
     </g>
     <g id="line2d_11">
      <g>
       <use style="fill:#262626;stroke:#262626;" x="305.1" xlink:href="#m20b586cab0" y="252.0"/>
      </g>
     </g>
     <g id="line2d_12">
      <g>
       <use style="fill:#262626;stroke:#262626;" x="305.1" xlink:href="#m20b586cab0" y="28.8"/>
      </g>
     </g>
     <g id="text_4">
      <!-- 12.5 -->
      <g style="fill:#262626;" transform="translate(293.4234375 267.589375)scale(0.12 -0.12)">
       <use xlink:href="#ArialMT-31"/>
       <use x="55.615234375" xlink:href="#ArialMT-32"/>
       <use x="111.23046875" xlink:href="#ArialMT-2e"/>
       <use x="139.013671875" xlink:href="#ArialMT-35"/>
      </g>
     </g>
    </g>
    <g id="xtick_5">
     <g id="line2d_13">
      <path clip-path="url(#p610de5fa94)" d="M 388.8 252 
L 388.8 28.8 
" style="fill:none;stroke:#ffffff;stroke-linecap:round;"/>
     </g>
     <g id="line2d_14">
      <g>
       <use style="fill:#262626;stroke:#262626;" x="388.8" xlink:href="#m20b586cab0" y="252.0"/>
      </g>
     </g>
     <g id="line2d_15">
      <g>
       <use style="fill:#262626;stroke:#262626;" x="388.8" xlink:href="#m20b586cab0" y="28.8"/>
      </g>
     </g>
     <g id="text_5">
      <!-- 13.0 -->
      <defs>
       <path d="M 4.203125 18.890625 
L 12.984375 20.0625 
Q 14.5 12.59375 18.140625 9.296875 
Q 21.78125 6 27 6 
Q 33.203125 6 37.46875 10.296875 
Q 41.75 14.59375 41.75 20.953125 
Q 41.75 27 37.796875 30.921875 
Q 33.84375 34.859375 27.734375 34.859375 
Q 25.25 34.859375 21.53125 33.890625 
L 22.515625 41.609375 
Q 23.390625 41.5 23.921875 41.5 
Q 29.546875 41.5 34.03125 44.421875 
Q 38.53125 47.359375 38.53125 53.46875 
Q 38.53125 58.296875 35.25 61.46875 
Q 31.984375 64.65625 26.8125 64.65625 
Q 21.6875 64.65625 18.265625 61.421875 
Q 14.84375 58.203125 13.875 51.765625 
L 5.078125 53.328125 
Q 6.6875 62.15625 12.390625 67.015625 
Q 18.109375 71.875 26.609375 71.875 
Q 32.46875 71.875 37.390625 69.359375 
Q 42.328125 66.84375 44.9375 62.5 
Q 47.5625 58.15625 47.5625 53.265625 
Q 47.5625 48.640625 45.0625 44.828125 
Q 42.578125 41.015625 37.703125 38.765625 
Q 44.046875 37.3125 47.5625 32.6875 
Q 51.078125 28.078125 51.078125 21.140625 
Q 51.078125 11.765625 44.234375 5.25 
Q 37.40625 -1.265625 26.953125 -1.265625 
Q 17.53125 -1.265625 11.296875 4.34375 
Q 5.078125 9.96875 4.203125 18.890625 
" id="ArialMT-33"/>
      </defs>
      <g style="fill:#262626;" transform="translate(377.1234375 267.589375)scale(0.12 -0.12)">
       <use xlink:href="#ArialMT-31"/>
       <use x="55.615234375" xlink:href="#ArialMT-33"/>
       <use x="111.23046875" xlink:href="#ArialMT-2e"/>
       <use x="139.013671875" xlink:href="#ArialMT-30"/>
      </g>
     </g>
    </g>
    <g id="text_6">
     <!-- Price of Game 2 -->
     <defs>
      <path d="M 40.4375 19 
L 49.078125 17.875 
Q 47.65625 8.9375 41.8125 3.875 
Q 35.984375 -1.171875 27.484375 -1.171875 
Q 16.84375 -1.171875 10.375 5.78125 
Q 3.90625 12.75 3.90625 25.734375 
Q 3.90625 34.125 6.6875 40.421875 
Q 9.46875 46.734375 15.15625 49.875 
Q 20.84375 53.03125 27.546875 53.03125 
Q 35.984375 53.03125 41.359375 48.75 
Q 46.734375 44.484375 48.25 36.625 
L 39.703125 35.296875 
Q 38.484375 40.53125 35.375 43.15625 
Q 32.28125 45.796875 27.875 45.796875 
Q 21.234375 45.796875 17.078125 41.03125 
Q 12.9375 36.28125 12.9375 25.984375 
Q 12.9375 15.53125 16.9375 10.796875 
Q 20.953125 6.0625 27.390625 6.0625 
Q 32.5625 6.0625 36.03125 9.234375 
Q 39.5 12.40625 40.4375 19 
" id="ArialMT-63"/>
      <path d="M 40.4375 6.390625 
Q 35.546875 2.25 31.03125 0.53125 
Q 26.515625 -1.171875 21.34375 -1.171875 
Q 12.796875 -1.171875 8.203125 3 
Q 3.609375 7.171875 3.609375 13.671875 
Q 3.609375 17.484375 5.34375 20.625 
Q 7.078125 23.78125 9.890625 25.6875 
Q 12.703125 27.59375 16.21875 28.5625 
Q 18.796875 29.25 24.03125 29.890625 
Q 34.671875 31.15625 39.703125 32.90625 
Q 39.75 34.71875 39.75 35.203125 
Q 39.75 40.578125 37.25 42.78125 
Q 33.890625 45.75 27.25 45.75 
Q 21.046875 45.75 18.09375 43.578125 
Q 15.140625 41.40625 13.71875 35.890625 
L 5.125 37.0625 
Q 6.296875 42.578125 8.984375 45.96875 
Q 11.671875 49.359375 16.75 51.1875 
Q 21.828125 53.03125 28.515625 53.03125 
Q 35.15625 53.03125 39.296875 51.46875 
Q 43.453125 49.90625 45.40625 47.53125 
Q 47.359375 45.171875 48.140625 41.546875 
Q 48.578125 39.3125 48.578125 33.453125 
L 48.578125 21.734375 
Q 48.578125 9.46875 49.140625 6.21875 
Q 49.703125 2.984375 51.375 0 
L 42.1875 0 
Q 40.828125 2.734375 40.4375 6.390625 
M 39.703125 26.03125 
Q 34.90625 24.078125 25.34375 22.703125 
Q 19.921875 21.921875 17.671875 20.9375 
Q 15.4375 19.96875 14.203125 18.09375 
Q 12.984375 16.21875 12.984375 13.921875 
Q 12.984375 10.40625 15.640625 8.0625 
Q 18.3125 5.71875 23.4375 5.71875 
Q 28.515625 5.71875 32.46875 7.9375 
Q 36.421875 10.15625 38.28125 14.015625 
Q 39.703125 17 39.703125 22.796875 
z
" id="ArialMT-61"/>
      <path d="M 8.6875 0 
L 8.6875 45.015625 
L 0.921875 45.015625 
L 0.921875 51.859375 
L 8.6875 51.859375 
L 8.6875 57.375 
Q 8.6875 62.59375 9.625 65.140625 
Q 10.890625 68.5625 14.078125 70.671875 
Q 17.28125 72.796875 23.046875 72.796875 
Q 26.765625 72.796875 31.25 71.921875 
L 29.9375 64.265625 
Q 27.203125 64.75 24.75 64.75 
Q 20.75 64.75 19.09375 63.03125 
Q 17.4375 61.328125 17.4375 56.640625 
L 17.4375 51.859375 
L 27.546875 51.859375 
L 27.546875 45.015625 
L 17.4375 45.015625 
L 17.4375 0 
z
" id="ArialMT-66"/>
      <path d="M 42.09375 16.703125 
L 51.171875 15.578125 
Q 49.03125 7.625 43.21875 3.21875 
Q 37.40625 -1.171875 28.375 -1.171875 
Q 17 -1.171875 10.328125 5.828125 
Q 3.65625 12.84375 3.65625 25.484375 
Q 3.65625 38.578125 10.390625 45.796875 
Q 17.140625 53.03125 27.875 53.03125 
Q 38.28125 53.03125 44.875 45.953125 
Q 51.46875 38.875 51.46875 26.03125 
Q 51.46875 25.25 51.421875 23.6875 
L 12.75 23.6875 
Q 13.234375 15.140625 17.578125 10.59375 
Q 21.921875 6.0625 28.421875 6.0625 
Q 33.25 6.0625 36.671875 8.59375 
Q 40.09375 11.140625 42.09375 16.703125 
M 13.234375 30.90625 
L 42.1875 30.90625 
Q 41.609375 37.453125 38.875 40.71875 
Q 34.671875 45.796875 27.984375 45.796875 
Q 21.921875 45.796875 17.796875 41.75 
Q 13.671875 37.703125 13.234375 30.90625 
" id="ArialMT-65"/>
      <path d="M 7.71875 0 
L 7.71875 71.578125 
L 34.71875 71.578125 
Q 41.84375 71.578125 45.609375 70.90625 
Q 50.875 70.015625 54.4375 67.546875 
Q 58.015625 65.09375 60.1875 60.640625 
Q 62.359375 56.203125 62.359375 50.875 
Q 62.359375 41.75 56.546875 35.421875 
Q 50.734375 29.109375 35.546875 29.109375 
L 17.1875 29.109375 
L 17.1875 0 
z
M 17.1875 37.546875 
L 35.6875 37.546875 
Q 44.875 37.546875 48.734375 40.96875 
Q 52.59375 44.390625 52.59375 50.59375 
Q 52.59375 55.078125 50.3125 58.265625 
Q 48.046875 61.46875 44.34375 62.5 
Q 41.9375 63.140625 35.5 63.140625 
L 17.1875 63.140625 
z
" id="ArialMT-50"/>
      <path d="M 41.21875 28.078125 
L 41.21875 36.46875 
L 71.53125 36.53125 
L 71.53125 9.96875 
Q 64.546875 4.390625 57.125 1.578125 
Q 49.703125 -1.21875 41.890625 -1.21875 
Q 31.34375 -1.21875 22.71875 3.296875 
Q 14.109375 7.8125 9.71875 16.359375 
Q 5.328125 24.90625 5.328125 35.453125 
Q 5.328125 45.90625 9.6875 54.953125 
Q 14.0625 64.015625 22.265625 68.40625 
Q 30.46875 72.796875 41.15625 72.796875 
Q 48.921875 72.796875 55.1875 70.28125 
Q 61.46875 67.78125 65.03125 63.28125 
Q 68.609375 58.796875 70.453125 51.5625 
L 61.921875 49.21875 
Q 60.296875 54.6875 57.90625 57.8125 
Q 55.515625 60.9375 51.0625 62.8125 
Q 46.625 64.703125 41.21875 64.703125 
Q 34.71875 64.703125 29.984375 62.71875 
Q 25.25 60.75 22.34375 57.515625 
Q 19.4375 54.296875 17.828125 50.4375 
Q 15.09375 43.796875 15.09375 36.03125 
Q 15.09375 26.46875 18.390625 20.015625 
Q 21.6875 13.578125 27.984375 10.453125 
Q 34.28125 7.328125 41.359375 7.328125 
Q 47.515625 7.328125 53.375 9.6875 
Q 59.234375 12.0625 62.25 14.75 
L 62.25 28.078125 
z
" id="ArialMT-47"/>
      <path d="M 6.5 0 
L 6.5 51.859375 
L 14.40625 51.859375 
L 14.40625 44 
Q 17.4375 49.515625 20 51.265625 
Q 22.5625 53.03125 25.640625 53.03125 
Q 30.078125 53.03125 34.671875 50.203125 
L 31.640625 42.046875 
Q 28.421875 43.953125 25.203125 43.953125 
Q 22.3125 43.953125 20.015625 42.21875 
Q 17.71875 40.484375 16.75 37.40625 
Q 15.28125 32.71875 15.28125 27.15625 
L 15.28125 0 
z
" id="ArialMT-72"/>
      <path d="M 3.328125 25.921875 
Q 3.328125 40.328125 11.328125 47.265625 
Q 18.015625 53.03125 27.640625 53.03125 
Q 38.328125 53.03125 45.109375 46.015625 
Q 51.90625 39.015625 51.90625 26.65625 
Q 51.90625 16.65625 48.90625 10.90625 
Q 45.90625 5.171875 40.15625 2 
Q 34.421875 -1.171875 27.640625 -1.171875 
Q 16.75 -1.171875 10.03125 5.8125 
Q 3.328125 12.796875 3.328125 25.921875 
M 12.359375 25.921875 
Q 12.359375 15.96875 16.703125 11.015625 
Q 21.046875 6.0625 27.640625 6.0625 
Q 34.1875 6.0625 38.53125 11.03125 
Q 42.875 16.015625 42.875 26.21875 
Q 42.875 35.84375 38.5 40.796875 
Q 34.125 45.75 27.640625 45.75 
Q 21.046875 45.75 16.703125 40.8125 
Q 12.359375 35.890625 12.359375 25.921875 
" id="ArialMT-6f"/>
      <path d="M 6.59375 0 
L 6.59375 51.859375 
L 14.453125 51.859375 
L 14.453125 44.578125 
Q 16.890625 48.390625 20.9375 50.703125 
Q 25 53.03125 30.171875 53.03125 
Q 35.9375 53.03125 39.625 50.640625 
Q 43.3125 48.25 44.828125 43.953125 
Q 50.984375 53.03125 60.84375 53.03125 
Q 68.5625 53.03125 72.703125 48.75 
Q 76.859375 44.484375 76.859375 35.59375 
L 76.859375 0 
L 68.109375 0 
L 68.109375 32.671875 
Q 68.109375 37.9375 67.25 40.25 
Q 66.40625 42.578125 64.15625 43.984375 
Q 61.921875 45.40625 58.890625 45.40625 
Q 53.421875 45.40625 49.796875 41.765625 
Q 46.1875 38.140625 46.1875 30.125 
L 46.1875 0 
L 37.40625 0 
L 37.40625 33.6875 
Q 37.40625 39.546875 35.25 42.46875 
Q 33.109375 45.40625 28.21875 45.40625 
Q 24.515625 45.40625 21.359375 43.453125 
Q 18.21875 41.5 16.796875 37.734375 
Q 15.375 33.984375 15.375 26.90625 
L 15.375 0 
z
" id="ArialMT-6d"/>
      <path d="M 6.640625 61.46875 
L 6.640625 71.578125 
L 15.4375 71.578125 
L 15.4375 61.46875 
z
M 6.640625 0 
L 6.640625 51.859375 
L 15.4375 51.859375 
L 15.4375 0 
z
" id="ArialMT-69"/>
      <path id="ArialMT-20"/>
     </defs>
     <g style="fill:#262626;" transform="translate(170.8271875 284.9953125)scale(0.14 -0.14)">
      <use xlink:href="#ArialMT-50"/>
      <use x="66.69921875" xlink:href="#ArialMT-72"/>
      <use x="100.0" xlink:href="#ArialMT-69"/>
      <use x="122.216796875" xlink:href="#ArialMT-63"/>
      <use x="172.216796875" xlink:href="#ArialMT-65"/>
      <use x="227.83203125" xlink:href="#ArialMT-20"/>
      <use x="255.615234375" xlink:href="#ArialMT-6f"/>
      <use x="311.23046875" xlink:href="#ArialMT-66"/>
      <use x="339.013671875" xlink:href="#ArialMT-20"/>
      <use x="366.796875" xlink:href="#ArialMT-47"/>
      <use x="444.580078125" xlink:href="#ArialMT-61"/>
      <use x="500.1953125" xlink:href="#ArialMT-6d"/>
      <use x="583.49609375" xlink:href="#ArialMT-65"/>
      <use x="639.111328125" xlink:href="#ArialMT-20"/>
      <use x="666.89453125" xlink:href="#ArialMT-32"/>
     </g>
    </g>
   </g>
   <g id="matplotlib.axis_2">
    <g id="ytick_1">
     <g id="line2d_16">
      <path clip-path="url(#p610de5fa94)" d="M 54 224.1 
L 388.8 224.1 
" style="fill:none;stroke:#ffffff;stroke-linecap:round;"/>
     </g>
     <g id="line2d_17">
      <g>
       <use style="fill:#262626;stroke:#262626;" x="54.0" xlink:href="#m20b586cab0" y="224.1"/>
      </g>
     </g>
     <g id="line2d_18">
      <g>
       <use style="fill:#262626;stroke:#262626;" x="388.8" xlink:href="#m20b586cab0" y="224.1"/>
      </g>
     </g>
     <g id="text_7">
      <!-- 0.8 -->
      <defs>
       <path d="M 17.671875 38.8125 
Q 12.203125 40.828125 9.5625 44.53125 
Q 6.9375 48.25 6.9375 53.421875 
Q 6.9375 61.234375 12.546875 66.546875 
Q 18.171875 71.875 27.484375 71.875 
Q 36.859375 71.875 42.578125 66.421875 
Q 48.296875 60.984375 48.296875 53.171875 
Q 48.296875 48.1875 45.671875 44.5 
Q 43.0625 40.828125 37.75 38.8125 
Q 44.34375 36.671875 47.78125 31.875 
Q 51.21875 27.09375 51.21875 20.453125 
Q 51.21875 11.28125 44.71875 5.03125 
Q 38.234375 -1.21875 27.640625 -1.21875 
Q 17.046875 -1.21875 10.546875 5.046875 
Q 4.046875 11.328125 4.046875 20.703125 
Q 4.046875 27.6875 7.59375 32.390625 
Q 11.140625 37.109375 17.671875 38.8125 
M 15.921875 53.71875 
Q 15.921875 48.640625 19.1875 45.40625 
Q 22.46875 42.1875 27.6875 42.1875 
Q 32.765625 42.1875 36.015625 45.375 
Q 39.265625 48.578125 39.265625 53.21875 
Q 39.265625 58.0625 35.90625 61.359375 
Q 32.5625 64.65625 27.59375 64.65625 
Q 22.5625 64.65625 19.234375 61.421875 
Q 15.921875 58.203125 15.921875 53.71875 
M 13.09375 20.65625 
Q 13.09375 16.890625 14.875 13.375 
Q 16.65625 9.859375 20.171875 7.921875 
Q 23.6875 6 27.734375 6 
Q 34.03125 6 38.125 10.046875 
Q 42.234375 14.109375 42.234375 20.359375 
Q 42.234375 26.703125 38.015625 30.859375 
Q 33.796875 35.015625 27.4375 35.015625 
Q 21.234375 35.015625 17.15625 30.90625 
Q 13.09375 26.8125 13.09375 20.65625 
" id="ArialMT-38"/>
      </defs>
      <g style="fill:#262626;" transform="translate(30.32 227.2021875)scale(0.12 -0.12)">
       <use xlink:href="#ArialMT-30"/>
       <use x="55.615234375" xlink:href="#ArialMT-2e"/>
       <use x="83.3984375" xlink:href="#ArialMT-38"/>
      </g>
     </g>
    </g>
    <g id="ytick_2">
     <g id="line2d_19">
      <path clip-path="url(#p610de5fa94)" d="M 54 168.3 
L 388.8 168.3 
" style="fill:none;stroke:#ffffff;stroke-linecap:round;"/>
     </g>
     <g id="line2d_20">
      <g>
       <use style="fill:#262626;stroke:#262626;" x="54.0" xlink:href="#m20b586cab0" y="168.3"/>
      </g>
     </g>
     <g id="line2d_21">
      <g>
       <use style="fill:#262626;stroke:#262626;" x="388.8" xlink:href="#m20b586cab0" y="168.3"/>
      </g>
     </g>
     <g id="text_8">
      <!-- 1.0 -->
      <g style="fill:#262626;" transform="translate(30.32 171.4021875)scale(0.12 -0.12)">
       <use xlink:href="#ArialMT-31"/>
       <use x="55.615234375" xlink:href="#ArialMT-2e"/>
       <use x="83.3984375" xlink:href="#ArialMT-30"/>
      </g>
     </g>
    </g>
    <g id="ytick_3">
     <g id="line2d_22">
      <path clip-path="url(#p610de5fa94)" d="M 54 112.5 
L 388.8 112.5 
" style="fill:none;stroke:#ffffff;stroke-linecap:round;"/>
     </g>
     <g id="line2d_23">
      <g>
       <use style="fill:#262626;stroke:#262626;" x="54.0" xlink:href="#m20b586cab0" y="112.5"/>
      </g>
     </g>
     <g id="line2d_24">
      <g>
       <use style="fill:#262626;stroke:#262626;" x="388.8" xlink:href="#m20b586cab0" y="112.5"/>
      </g>
     </g>
     <g id="text_9">
      <!-- 1.2 -->
      <g style="fill:#262626;" transform="translate(30.32 115.6021875)scale(0.12 -0.12)">
       <use xlink:href="#ArialMT-31"/>
       <use x="55.615234375" xlink:href="#ArialMT-2e"/>
       <use x="83.3984375" xlink:href="#ArialMT-32"/>
      </g>
     </g>
    </g>
    <g id="ytick_4">
     <g id="line2d_25">
      <path clip-path="url(#p610de5fa94)" d="M 54 56.7 
L 388.8 56.7 
" style="fill:none;stroke:#ffffff;stroke-linecap:round;"/>
     </g>
     <g id="line2d_26">
      <g>
       <use style="fill:#262626;stroke:#262626;" x="54.0" xlink:href="#m20b586cab0" y="56.7"/>
      </g>
     </g>
     <g id="line2d_27">
      <g>
       <use style="fill:#262626;stroke:#262626;" x="388.8" xlink:href="#m20b586cab0" y="56.7"/>
      </g>
     </g>
     <g id="text_10">
      <!-- 1.4 -->
      <defs>
       <path d="M 32.328125 0 
L 32.328125 17.140625 
L 1.265625 17.140625 
L 1.265625 25.203125 
L 33.9375 71.578125 
L 41.109375 71.578125 
L 41.109375 25.203125 
L 50.78125 25.203125 
L 50.78125 17.140625 
L 41.109375 17.140625 
L 41.109375 0 
z
M 32.328125 25.203125 
L 32.328125 57.46875 
L 9.90625 25.203125 
z
" id="ArialMT-34"/>
      </defs>
      <g style="fill:#262626;" transform="translate(30.32 59.8021875)scale(0.12 -0.12)">
       <use xlink:href="#ArialMT-31"/>
       <use x="55.615234375" xlink:href="#ArialMT-2e"/>
       <use x="83.3984375" xlink:href="#ArialMT-34"/>
      </g>
     </g>
    </g>
    <g id="text_11">
     <!-- $\alpha$ -->
     <defs>
      <path d="M 20.125 -1.125 
Q 15.375 -1.125 11.6875 1.125 
Q 8.015625 3.375 6 7.171875 
Q 4 10.984375 4 15.828125 
Q 4 22.609375 7.78125 29.25 
Q 11.578125 35.890625 17.84375 40.03125 
Q 24.125 44.1875 31 44.1875 
Q 36.078125 44.1875 39.9375 41.53125 
Q 43.796875 38.875 45.796875 34.453125 
Q 47.796875 30.03125 47.796875 25 
L 47.90625 18.3125 
Q 51.3125 23.046875 53.6875 28.140625 
Q 56.0625 33.25 57.328125 38.71875 
Q 57.515625 39.3125 58.109375 39.3125 
L 59.28125 39.3125 
Q 60.203125 39.3125 60.203125 38.375 
Q 60.203125 38.28125 60.109375 38.09375 
Q 58.9375 33.5 57.171875 29.265625 
Q 55.421875 25.046875 53.046875 21.09375 
Q 50.6875 17.140625 47.90625 13.921875 
Q 47.90625 1.515625 50.78125 1.515625 
Q 52.640625 1.515625 53.828125 2.609375 
Q 55.03125 3.71875 55.9375 5.328125 
Q 56.84375 6.9375 57.078125 6.984375 
L 58.296875 6.984375 
Q 59.078125 6.984375 59.078125 6 
Q 59.078125 3.515625 56.21875 1.1875 
Q 53.375 -1.125 50.59375 -1.125 
Q 46.96875 -1.125 44.578125 1.21875 
Q 42.1875 3.5625 41.3125 7.328125 
Q 36.625 3.328125 31.15625 1.09375 
Q 25.6875 -1.125 20.125 -1.125 
M 20.3125 1.515625 
Q 31 1.515625 40.828125 10.296875 
Q 40.765625 10.890625 40.671875 11.734375 
Q 40.578125 12.59375 40.578125 12.703125 
L 40.578125 23.484375 
Q 40.578125 41.609375 30.8125 41.609375 
Q 24.953125 41.609375 20.546875 36.59375 
Q 16.15625 31.59375 13.9375 24.625 
Q 11.71875 17.671875 11.71875 11.921875 
Q 11.71875 7.5625 13.9375 4.53125 
Q 16.15625 1.515625 20.3125 1.515625 
" id="Cmmi10-ae"/>
     </defs>
     <g style="fill:#262626;" transform="translate(22.5375 144.88)rotate(-90.0)scale(0.14 -0.14)">
      <use transform="translate(0.0 0.8125)" xlink:href="#Cmmi10-ae"/>
     </g>
    </g>
   </g>
   <g id="PolyCollection_1">
    <defs>
     <path d="M 54 -49.95 
L 54 -231.3 
L 57.381818 -229.728169 
L 60.763636 -228.168938 
L 64.145455 -226.622156 
L 67.527273 -225.087674 
L 70.909091 -223.565347 
L 74.290909 -222.05503 
L 77.672727 -220.556582 
L 81.054545 -219.069863 
L 84.436364 -217.594737 
L 87.818182 -216.131068 
L 91.2 -214.678723 
L 94.581818 -213.237572 
L 97.963636 -211.807486 
L 101.345455 -210.388337 
L 104.727273 -208.98 
L 108.109091 -207.582353 
L 111.490909 -206.195274 
L 114.872727 -204.818644 
L 118.254545 -203.452345 
L 121.636364 -202.096262 
L 125.018182 -200.750279 
L 128.4 -199.414286 
L 131.781818 -198.08817 
L 135.163636 -196.771823 
L 138.545455 -195.465138 
L 141.927273 -194.168007 
L 145.309091 -192.880328 
L 148.690909 -191.601996 
L 152.072727 -190.332911 
L 155.454545 -189.072973 
L 158.836364 -187.822083 
L 162.218182 -186.580143 
L 165.6 -185.347059 
L 168.981818 -184.122735 
L 172.363636 -182.90708 
L 175.745455 -181.7 
L 179.127273 -180.501406 
L 182.509091 -179.311208 
L 185.890909 -178.129319 
L 189.272727 -176.955652 
L 192.654545 -175.790121 
L 196.036364 -174.632642 
L 199.418182 -173.483133 
L 202.8 -172.341509 
L 206.181818 -171.207692 
L 209.563636 -170.081601 
L 212.945455 -168.963158 
L 216.327273 -167.852284 
L 219.709091 -166.748904 
L 223.090909 -165.652941 
L 226.472727 -164.564322 
L 229.854545 -163.482972 
L 233.236364 -162.408819 
L 236.618182 -161.341791 
L 240 -160.281818 
L 243.381818 -159.22883 
L 246.763636 -158.182759 
L 250.145455 -157.143535 
L 253.527273 -156.111093 
L 256.909091 -155.085366 
L 260.290909 -154.066288 
L 263.672727 -153.053796 
L 267.054545 -152.047826 
L 270.436364 -151.048315 
L 270.436364 -149.890299 
L 270.436364 -149.890299 
L 267.054545 -147.6 
L 263.672727 -145.343382 
L 260.290909 -143.119708 
L 256.909091 -140.928261 
L 253.527273 -138.768345 
L 250.145455 -136.639286 
L 246.763636 -134.540426 
L 243.381818 -132.471127 
L 240 -130.430769 
L 236.618182 -128.41875 
L 233.236364 -126.434483 
L 229.854545 -124.477397 
L 226.472727 -122.546939 
L 223.090909 -120.642568 
L 219.709091 -118.763758 
L 216.327273 -116.91 
L 212.945455 -115.080795 
L 209.563636 -113.275658 
L 206.181818 -111.494118 
L 202.8 -109.735714 
L 199.418182 -108 
L 196.036364 -106.286538 
L 192.654545 -104.594904 
L 189.272727 -102.924684 
L 185.890909 -101.275472 
L 182.509091 -99.646875 
L 179.127273 -98.038509 
L 175.745455 -96.45 
L 172.363636 -94.880982 
L 168.981818 -93.331098 
L 165.6 -91.8 
L 162.218182 -90.287349 
L 158.836364 -88.792814 
L 155.454545 -87.316071 
L 152.072727 -85.856805 
L 148.690909 -84.414706 
L 145.309091 -82.989474 
L 141.927273 -81.580814 
L 138.545455 -80.188439 
L 135.163636 -78.812069 
L 131.781818 -77.451429 
L 128.4 -76.10625 
L 125.018182 -74.776271 
L 121.636364 -73.461236 
L 118.254545 -72.160894 
L 114.872727 -70.875 
L 111.490909 -69.603315 
L 108.109091 -68.345604 
L 104.727273 -67.101639 
L 101.345455 -65.871196 
L 97.963636 -64.654054 
L 94.581818 -63.45 
L 91.2 -62.258824 
L 87.818182 -61.080319 
L 84.436364 -59.914286 
L 81.054545 -58.760526 
L 77.672727 -57.618848 
L 74.290909 -56.489063 
L 70.909091 -55.370984 
L 67.527273 -54.264433 
L 64.145455 -53.169231 
L 60.763636 -52.085204 
L 57.381818 -51.012183 
L 54 -49.95 
z
" id="m81cc0a0ec1" style="stroke:#000000;stroke-opacity:0.5;stroke-width:0.3;"/>
    </defs>
    <g clip-path="url(#p610de5fa94)">
     <use style="fill:#4c72b0;fill-opacity:0.5;stroke:#000000;stroke-opacity:0.5;stroke-width:0.3;" x="0.0" xlink:href="#m81cc0a0ec1" y="288.0"/>
    </g>
   </g>
   <g id="PolyCollection_2">
    <defs>
     <path d="M 273.818182 -152.215038 
L 273.818182 -150.0552 
L 277.2 -149.068421 
L 280.581818 -148.087917 
L 283.963636 -147.113629 
L 287.345455 -146.145498 
L 290.727273 -145.183465 
L 294.109091 -144.227473 
L 297.490909 -143.277465 
L 300.872727 -142.333385 
L 304.254545 -141.395179 
L 307.636364 -140.462791 
L 311.018182 -139.536167 
L 314.4 -138.615254 
L 317.781818 -137.7 
L 321.163636 -136.790352 
L 324.545455 -135.88626 
L 327.927273 -134.987671 
L 331.309091 -134.094537 
L 334.690909 -133.206808 
L 338.072727 -132.324434 
L 341.454545 -131.447368 
L 344.836364 -130.575562 
L 348.218182 -129.708969 
L 351.6 -128.847541 
L 354.981818 -127.991233 
L 358.363636 -127.14 
L 361.745455 -126.293796 
L 365.127273 -125.452577 
L 368.509091 -124.6163 
L 371.890909 -123.784919 
L 375.272727 -122.958394 
L 378.654545 -122.136681 
L 382.036364 -121.319739 
L 385.418182 -120.507525 
L 388.8 -119.7 
L 388.8 -259.2 
L 388.8 -259.2 
L 385.418182 -255.015 
L 382.036364 -250.912871 
L 378.654545 -246.891176 
L 375.272727 -242.947573 
L 371.890909 -239.079808 
L 368.509091 -235.285714 
L 365.127273 -231.563208 
L 361.745455 -227.91028 
L 358.363636 -224.325 
L 354.981818 -220.805505 
L 351.6 -217.35 
L 348.218182 -213.956757 
L 344.836364 -210.624107 
L 341.454545 -207.350442 
L 338.072727 -204.134211 
L 334.690909 -200.973913 
L 331.309091 -197.868103 
L 327.927273 -194.815385 
L 324.545455 -191.814407 
L 321.163636 -188.863866 
L 317.781818 -185.9625 
L 314.4 -183.109091 
L 311.018182 -180.302459 
L 307.636364 -177.541463 
L 304.254545 -174.825 
L 300.872727 -172.152 
L 297.490909 -169.521429 
L 294.109091 -166.932283 
L 290.727273 -164.383594 
L 287.345455 -161.874419 
L 283.963636 -159.403846 
L 280.581818 -156.970992 
L 277.2 -154.575 
L 273.818182 -152.215038 
z
" id="mc3af5aaa7d" style="stroke:#000000;stroke-opacity:0.5;stroke-width:0.3;"/>
    </defs>
    <g clip-path="url(#p610de5fa94)">
     <use style="fill-opacity:0.5;stroke:#000000;stroke-opacity:0.5;stroke-width:0.3;" x="0.0" xlink:href="#mc3af5aaa7d" y="288.0"/>
    </g>
   </g>
   <g id="line2d_28">
    <path clip-path="url(#p610de5fa94)" d="M 271.62 252 
L 271.62 249.745455 
L 271.62 247.490909 
L 271.62 245.236364 
L 271.62 242.981818 
L 271.62 240.727273 
L 271.62 238.472727 
L 271.62 236.218182 
L 271.62 233.963636 
L 271.62 231.709091 
L 271.62 229.454545 
L 271.62 227.2 
L 271.62 224.945455 
L 271.62 222.690909 
L 271.62 220.436364 
L 271.62 218.181818 
L 271.62 215.927273 
L 271.62 213.672727 
L 271.62 211.418182 
L 271.62 209.163636 
L 271.62 206.909091 
L 271.62 204.654545 
L 271.62 202.4 
L 271.62 200.145455 
L 271.62 197.890909 
L 271.62 195.636364 
L 271.62 193.381818 
L 271.62 191.127273 
L 271.62 188.872727 
L 271.62 186.618182 
L 271.62 184.363636 
L 271.62 182.109091 
L 271.62 179.854545 
L 271.62 177.6 
L 271.62 175.345455 
L 271.62 173.090909 
L 271.62 170.836364 
L 271.62 168.581818 
L 271.62 166.327273 
L 271.62 164.072727 
L 271.62 161.818182 
L 271.62 159.563636 
L 271.62 157.309091 
L 271.62 155.054545 
L 271.62 152.8 
L 271.62 150.545455 
L 271.62 148.290909 
L 271.62 146.036364 
L 271.62 143.781818 
L 271.62 141.527273 
L 271.62 139.272727 
L 271.62 137.018182 
L 271.62 134.763636 
L 271.62 132.509091 
L 271.62 130.254545 
L 271.62 128 
L 271.62 125.745455 
L 271.62 123.490909 
L 271.62 121.236364 
L 271.62 118.981818 
L 271.62 116.727273 
L 271.62 114.472727 
L 271.62 112.218182 
L 271.62 109.963636 
L 271.62 107.709091 
L 271.62 105.454545 
L 271.62 103.2 
L 271.62 100.945455 
L 271.62 98.690909 
L 271.62 96.436364 
L 271.62 94.181818 
L 271.62 91.927273 
L 271.62 89.672727 
L 271.62 87.418182 
L 271.62 85.163636 
L 271.62 82.909091 
L 271.62 80.654545 
L 271.62 78.4 
L 271.62 76.145455 
L 271.62 73.890909 
L 271.62 71.636364 
L 271.62 69.381818 
L 271.62 67.127273 
L 271.62 64.872727 
L 271.62 62.618182 
L 271.62 60.363636 
L 271.62 58.109091 
L 271.62 55.854545 
L 271.62 53.6 
L 271.62 51.345455 
L 271.62 49.090909 
L 271.62 46.836364 
L 271.62 44.581818 
L 271.62 42.327273 
L 271.62 40.072727 
L 271.62 37.818182 
L 271.62 35.563636 
L 271.62 33.309091 
L 271.62 31.054545 
L 271.62 28.8 
" style="fill:none;stroke:#4c72b0;stroke-linecap:round;stroke-width:1.75;"/>
   </g>
   <g id="line2d_29">
    <path clip-path="url(#p610de5fa94)" d="M 54 56.7 
L 57.381818 58.271831 
L 60.763636 59.831062 
L 64.145455 61.377844 
L 67.527273 62.912326 
L 70.909091 64.434653 
L 74.290909 65.94497 
L 77.672727 67.443418 
L 81.054545 68.930137 
L 84.436364 70.405263 
L 87.818182 71.868932 
L 91.2 73.321277 
L 94.581818 74.762428 
L 97.963636 76.192514 
L 101.345455 77.611663 
L 104.727273 79.02 
L 108.109091 80.417647 
L 111.490909 81.804726 
L 114.872727 83.181356 
L 118.254545 84.547655 
L 121.636364 85.903738 
L 125.018182 87.249721 
L 128.4 88.585714 
L 131.781818 89.91183 
L 135.163636 91.228177 
L 138.545455 92.534862 
L 141.927273 93.831993 
L 145.309091 95.119672 
L 148.690909 96.398004 
L 152.072727 97.667089 
L 155.454545 98.927027 
L 158.836364 100.177917 
L 162.218182 101.419857 
L 165.6 102.652941 
L 168.981818 103.877265 
L 172.363636 105.09292 
L 175.745455 106.3 
L 179.127273 107.498594 
L 182.509091 108.688792 
L 185.890909 109.870681 
L 189.272727 111.044348 
L 192.654545 112.209879 
L 196.036364 113.367358 
L 199.418182 114.516867 
L 202.8 115.658491 
L 206.181818 116.792308 
L 209.563636 117.918399 
L 212.945455 119.036842 
L 216.327273 120.147716 
L 219.709091 121.251096 
L 223.090909 122.347059 
L 226.472727 123.435678 
L 229.854545 124.517028 
L 233.236364 125.591181 
L 236.618182 126.658209 
L 240 127.718182 
L 243.381818 128.77117 
L 246.763636 129.817241 
L 250.145455 130.856465 
L 253.527273 131.888907 
L 256.909091 132.914634 
L 260.290909 133.933712 
L 263.672727 134.946204 
L 267.054545 135.952174 
L 270.436364 136.951685 
L 273.818182 137.9448 
L 277.2 138.931579 
L 280.581818 139.912083 
L 283.963636 140.886371 
L 287.345455 141.854502 
L 290.727273 142.816535 
L 294.109091 143.772527 
L 297.490909 144.722535 
L 300.872727 145.666615 
L 304.254545 146.604821 
L 307.636364 147.537209 
L 311.018182 148.463833 
L 314.4 149.384746 
L 317.781818 150.3 
L 321.163636 151.209648 
L 324.545455 152.11374 
L 327.927273 153.012329 
L 331.309091 153.905463 
L 334.690909 154.793192 
L 338.072727 155.675566 
L 341.454545 156.552632 
L 344.836364 157.424438 
L 348.218182 158.291031 
L 351.6 159.152459 
L 354.981818 160.008767 
L 358.363636 160.86 
L 361.745455 161.706204 
L 365.127273 162.547423 
L 368.509091 163.3837 
L 371.890909 164.215081 
L 375.272727 165.041606 
L 378.654545 165.863319 
L 382.036364 166.680261 
L 385.418182 167.492475 
L 388.8 168.3 
" style="fill:none;stroke:#55a868;stroke-linecap:round;stroke-width:1.75;"/>
   </g>
   <g id="line2d_30">
    <path clip-path="url(#p610de5fa94)" d="M 54 238.05 
L 57.381818 236.987817 
L 60.763636 235.914796 
L 64.145455 234.830769 
L 67.527273 233.735567 
L 70.909091 232.629016 
L 74.290909 231.510937 
L 77.672727 230.381152 
L 81.054545 229.239474 
L 84.436364 228.085714 
L 87.818182 226.919681 
L 91.2 225.741176 
L 94.581818 224.55 
L 97.963636 223.345946 
L 101.345455 222.128804 
L 104.727273 220.898361 
L 108.109091 219.654396 
L 111.490909 218.396685 
L 114.872727 217.125 
L 118.254545 215.839106 
L 121.636364 214.538764 
L 125.018182 213.223729 
L 128.4 211.89375 
L 131.781818 210.548571 
L 135.163636 209.187931 
L 138.545455 207.811561 
L 141.927273 206.419186 
L 145.309091 205.010526 
L 148.690909 203.585294 
L 152.072727 202.143195 
L 155.454545 200.683929 
L 158.836364 199.207186 
L 162.218182 197.712651 
L 165.6 196.2 
L 168.981818 194.668902 
L 172.363636 193.119018 
L 175.745455 191.55 
L 179.127273 189.961491 
L 182.509091 188.353125 
L 185.890909 186.724528 
L 189.272727 185.075316 
L 192.654545 183.405096 
L 196.036364 181.713462 
L 199.418182 180 
L 202.8 178.264286 
L 206.181818 176.505882 
L 209.563636 174.724342 
L 212.945455 172.919205 
L 216.327273 171.09 
L 219.709091 169.236242 
L 223.090909 167.357432 
L 226.472727 165.453061 
L 229.854545 163.522603 
L 233.236364 161.565517 
L 236.618182 159.58125 
L 240 157.569231 
L 243.381818 155.528873 
L 246.763636 153.459574 
L 250.145455 151.360714 
L 253.527273 149.231655 
L 256.909091 147.071739 
L 260.290909 144.880292 
L 263.672727 142.656618 
L 267.054545 140.4 
L 270.436364 138.109701 
L 273.818182 135.784962 
L 277.2 133.425 
L 280.581818 131.029008 
L 283.963636 128.596154 
L 287.345455 126.125581 
L 290.727273 123.616406 
L 294.109091 121.067717 
L 297.490909 118.478571 
L 300.872727 115.848 
L 304.254545 113.175 
L 307.636364 110.458537 
L 311.018182 107.697541 
L 314.4 104.890909 
L 317.781818 102.0375 
L 321.163636 99.136134 
L 324.545455 96.185593 
L 327.927273 93.184615 
L 331.309091 90.131897 
L 334.690909 87.026087 
L 338.072727 83.865789 
L 341.454545 80.649558 
L 344.836364 77.375893 
L 348.218182 74.043243 
L 351.6 70.65 
L 354.981818 67.194495 
L 358.363636 63.675 
L 361.745455 60.08972 
L 365.127273 56.436792 
L 368.509091 52.714286 
L 371.890909 48.920192 
L 375.272727 45.052427 
L 378.654545 41.108824 
L 382.036364 37.087129 
L 385.418182 32.985 
L 388.8 28.8 
" style="fill:none;stroke:#c44e52;stroke-linecap:round;stroke-width:1.75;"/>
   </g>
   <g id="patch_3">
    <path d="M 54 28.8 
L 388.8 28.8 
" style="fill:none;"/>
   </g>
   <g id="patch_4">
    <path d="M 388.8 252 
L 388.8 28.8 
" style="fill:none;"/>
   </g>
   <g id="patch_5">
    <path d="M 54 252 
L 388.8 252 
" style="fill:none;"/>
   </g>
   <g id="patch_6">
    <path d="M 54 252 
L 54 28.8 
" style="fill:none;"/>
   </g>
   <g id="legend_1">
    <g id="line2d_31">
     <path d="M 284.878438 191.44125 
L 312.878438 191.44125 
" style="fill:none;stroke:#4c72b0;stroke-linecap:round;stroke-width:1.75;"/>
    </g>
    <g id="line2d_32"/>
    <g id="text_12">
     <!-- AF price -->
     <defs>
      <path d="M -0.140625 0 
L 27.34375 71.578125 
L 37.546875 71.578125 
L 66.84375 0 
L 56.0625 0 
L 47.703125 21.6875 
L 17.78125 21.6875 
L 9.90625 0 
z
M 20.515625 29.390625 
L 44.78125 29.390625 
L 37.3125 49.21875 
Q 33.890625 58.25 32.234375 64.0625 
Q 30.859375 57.171875 28.375 50.390625 
z
" id="ArialMT-41"/>
      <path d="M 6.59375 -19.875 
L 6.59375 51.859375 
L 14.59375 51.859375 
L 14.59375 45.125 
Q 17.4375 49.078125 21 51.046875 
Q 24.5625 53.03125 29.640625 53.03125 
Q 36.28125 53.03125 41.359375 49.609375 
Q 46.4375 46.1875 49.015625 39.953125 
Q 51.609375 33.734375 51.609375 26.3125 
Q 51.609375 18.359375 48.75 11.984375 
Q 45.90625 5.609375 40.453125 2.21875 
Q 35.015625 -1.171875 29 -1.171875 
Q 24.609375 -1.171875 21.109375 0.6875 
Q 17.625 2.546875 15.375 5.375 
L 15.375 -19.875 
z
M 14.546875 25.640625 
Q 14.546875 15.625 18.59375 10.84375 
Q 22.65625 6.0625 28.421875 6.0625 
Q 34.28125 6.0625 38.453125 11.015625 
Q 42.625 15.96875 42.625 26.375 
Q 42.625 36.28125 38.546875 41.203125 
Q 34.46875 46.140625 28.8125 46.140625 
Q 23.1875 46.140625 18.859375 40.890625 
Q 14.546875 35.640625 14.546875 25.640625 
" id="ArialMT-70"/>
      <path d="M 8.203125 0 
L 8.203125 71.578125 
L 56.5 71.578125 
L 56.5 63.140625 
L 17.671875 63.140625 
L 17.671875 40.96875 
L 51.265625 40.96875 
L 51.265625 32.515625 
L 17.671875 32.515625 
L 17.671875 0 
z
" id="ArialMT-46"/>
     </defs>
     <g style="fill:#262626;" transform="translate(324.0784375 196.34125)scale(0.14 -0.14)">
      <use xlink:href="#ArialMT-41"/>
      <use x="66.69921875" xlink:href="#ArialMT-46"/>
      <use x="127.783203125" xlink:href="#ArialMT-20"/>
      <use x="155.56640625" xlink:href="#ArialMT-70"/>
      <use x="211.181640625" xlink:href="#ArialMT-72"/>
      <use x="244.482421875" xlink:href="#ArialMT-69"/>
      <use x="266.69921875" xlink:href="#ArialMT-63"/>
      <use x="316.69921875" xlink:href="#ArialMT-65"/>
     </g>
    </g>
    <g id="line2d_33">
     <path d="M 284.878438 211.415312 
L 312.878438 211.415312 
" style="fill:none;stroke:#55a868;stroke-linecap:round;stroke-width:1.75;"/>
    </g>
    <g id="line2d_34"/>
    <g id="text_13">
     <!-- 7/(P-6) -->
     <defs>
      <path d="M 0 -1.21875 
L 20.75 72.796875 
L 27.78125 72.796875 
L 7.078125 -1.21875 
z
" id="ArialMT-2f"/>
      <path d="M 3.171875 21.484375 
L 3.171875 30.328125 
L 30.171875 30.328125 
L 30.171875 21.484375 
z
" id="ArialMT-2d"/>
      <path d="M 12.359375 -21.046875 
L 6.0625 -21.046875 
Q 20.65625 2.390625 20.65625 25.875 
Q 20.65625 35.0625 18.5625 44.09375 
Q 16.890625 51.421875 13.921875 58.15625 
Q 12.015625 62.546875 6.0625 72.796875 
L 12.359375 72.796875 
Q 21.53125 60.546875 25.921875 48.1875 
Q 29.6875 37.546875 29.6875 25.921875 
Q 29.6875 12.75 24.625 0.4375 
Q 19.578125 -11.859375 12.359375 -21.046875 
" id="ArialMT-29"/>
      <path d="M 23.390625 -21.046875 
Q 16.109375 -11.859375 11.078125 0.4375 
Q 6.0625 12.75 6.0625 25.921875 
Q 6.0625 37.546875 9.8125 48.1875 
Q 14.203125 60.546875 23.390625 72.796875 
L 29.6875 72.796875 
Q 23.78125 62.640625 21.875 58.296875 
Q 18.890625 51.5625 17.1875 44.234375 
Q 15.09375 35.109375 15.09375 25.875 
Q 15.09375 2.390625 29.6875 -21.046875 
z
" id="ArialMT-28"/>
      <path d="M 49.75 54.046875 
L 41.015625 53.375 
Q 39.84375 58.546875 37.703125 60.890625 
Q 34.125 64.65625 28.90625 64.65625 
Q 24.703125 64.65625 21.53125 62.3125 
Q 17.390625 59.28125 14.984375 53.46875 
Q 12.59375 47.65625 12.5 36.921875 
Q 15.671875 41.75 20.265625 44.09375 
Q 24.859375 46.4375 29.890625 46.4375 
Q 38.671875 46.4375 44.84375 39.96875 
Q 51.03125 33.5 51.03125 23.25 
Q 51.03125 16.5 48.125 10.71875 
Q 45.21875 4.9375 40.140625 1.859375 
Q 35.0625 -1.21875 28.609375 -1.21875 
Q 17.625 -1.21875 10.6875 6.859375 
Q 3.765625 14.9375 3.765625 33.5 
Q 3.765625 54.25 11.421875 63.671875 
Q 18.109375 71.875 29.4375 71.875 
Q 37.890625 71.875 43.28125 67.140625 
Q 48.6875 62.40625 49.75 54.046875 
M 13.875 23.1875 
Q 13.875 18.65625 15.796875 14.5 
Q 17.71875 10.359375 21.1875 8.171875 
Q 24.65625 6 28.46875 6 
Q 34.03125 6 38.03125 10.484375 
Q 42.046875 14.984375 42.046875 22.703125 
Q 42.046875 30.125 38.078125 34.390625 
Q 34.125 38.671875 28.125 38.671875 
Q 22.171875 38.671875 18.015625 34.390625 
Q 13.875 30.125 13.875 23.1875 
" id="ArialMT-36"/>
      <path d="M 4.734375 62.203125 
L 4.734375 70.65625 
L 51.078125 70.65625 
L 51.078125 63.8125 
Q 44.234375 56.546875 37.515625 44.484375 
Q 30.8125 32.421875 27.15625 19.671875 
Q 24.515625 10.6875 23.78125 0 
L 14.75 0 
Q 14.890625 8.453125 18.0625 20.40625 
Q 21.234375 32.375 27.171875 43.484375 
Q 33.109375 54.59375 39.796875 62.203125 
z
" id="ArialMT-37"/>
     </defs>
     <g style="fill:#262626;" transform="translate(324.0784375 216.3153125)scale(0.14 -0.14)">
      <use xlink:href="#ArialMT-37"/>
      <use x="55.615234375" xlink:href="#ArialMT-2f"/>
      <use x="83.3984375" xlink:href="#ArialMT-28"/>
      <use x="116.69921875" xlink:href="#ArialMT-50"/>
      <use x="183.3984375" xlink:href="#ArialMT-2d"/>
      <use x="216.69921875" xlink:href="#ArialMT-36"/>
      <use x="272.314453125" xlink:href="#ArialMT-29"/>
     </g>
    </g>
    <g id="line2d_35">
     <path d="M 284.878438 231.553438 
L 312.878438 231.553438 
" style="fill:none;stroke:#c44e52;stroke-linecap:round;stroke-width:1.75;"/>
    </g>
    <g id="line2d_36"/>
    <g id="text_14">
     <!-- 3/(15-P) -->
     <g style="fill:#262626;" transform="translate(324.0784375 236.4534375)scale(0.14 -0.14)">
      <use xlink:href="#ArialMT-33"/>
      <use x="55.615234375" xlink:href="#ArialMT-2f"/>
      <use x="83.3984375" xlink:href="#ArialMT-28"/>
      <use x="116.69921875" xlink:href="#ArialMT-31"/>
      <use x="172.314453125" xlink:href="#ArialMT-35"/>
      <use x="227.9296875" xlink:href="#ArialMT-2d"/>
      <use x="261.23046875" xlink:href="#ArialMT-50"/>
      <use x="327.9296875" xlink:href="#ArialMT-29"/>
     </g>
    </g>
   </g>
  </g>
 </g>
 <defs>
  <clipPath id="p610de5fa94">
   <rect height="223.2" width="334.8" x="54.0" y="28.8"/>
  </clipPath>
 </defs>
</svg>
