<?xml version="1.0" encoding="utf-8" standalone="no"?>
<!DOCTYPE svg PUBLIC "-//W3C//DTD SVG 1.1//EN"
  "http://www.w3.org/Graphics/SVG/1.1/DTD/svg11.dtd">
<!-- Created with matplotlib (http://matplotlib.org/) -->
<svg height="288pt" version="1.1" viewBox="0 0 432 288" width="432pt" xmlns="http://www.w3.org/2000/svg" xmlns:xlink="http://www.w3.org/1999/xlink">
 <defs>
  <style type="text/css">
*{stroke-linecap:butt;stroke-linejoin:round;stroke-miterlimit:100000;}
  </style>
 </defs>
 <g id="figure_1">
  <g id="patch_1">
   <path d="M 0 288 
L 432 288 
L 432 0 
L 0 0 
z
" style="fill:#ffffff;"/>
  </g>
  <g id="axes_1">
   <g id="patch_2">
    <path d="M 54 252 
L 388.8 252 
L 388.8 28.8 
L 54 28.8 
z
" style="fill:#eaeaf2;"/>
   </g>
   <g id="matplotlib.axis_1">
    <g id="xtick_1">
     <g id="line2d_1">
      <path clip-path="url(#p4395be7dda)" d="M 54 252 
L 54 28.8 
" style="fill:none;stroke:#ffffff;stroke-linecap:round;"/>
     </g>
     <g id="line2d_2">
      <defs>
       <path d="M 0 0 
L 0 0 
" id="m3879556ba8" style="stroke:#262626;"/>
      </defs>
      <g>
       <use style="fill:#262626;stroke:#262626;" x="54.0" xlink:href="#m3879556ba8" y="252.0"/>
      </g>
     </g>
     <g id="line2d_3">
      <g>
       <use style="fill:#262626;stroke:#262626;" x="54.0" xlink:href="#m3879556ba8" y="28.8"/>
      </g>
     </g>
     <g id="text_1">
      <!-- 0 -->
      <defs>
       <path d="M 4.15625 35.296875 
Q 4.15625 48 6.765625 55.734375 
Q 9.375 63.484375 14.515625 67.671875 
Q 19.671875 71.875 27.484375 71.875 
Q 33.25 71.875 37.59375 69.546875 
Q 41.9375 67.234375 44.765625 62.859375 
Q 47.609375 58.5 49.21875 52.21875 
Q 50.828125 45.953125 50.828125 35.296875 
Q 50.828125 22.703125 48.234375 14.96875 
Q 45.65625 7.234375 40.5 3 
Q 35.359375 -1.21875 27.484375 -1.21875 
Q 17.140625 -1.21875 11.234375 6.203125 
Q 4.15625 15.140625 4.15625 35.296875 
M 13.1875 35.296875 
Q 13.1875 17.671875 17.3125 11.828125 
Q 21.4375 6 27.484375 6 
Q 33.546875 6 37.671875 11.859375 
Q 41.796875 17.71875 41.796875 35.296875 
Q 41.796875 52.984375 37.671875 58.78125 
Q 33.546875 64.59375 27.390625 64.59375 
Q 21.34375 64.59375 17.71875 59.46875 
Q 13.1875 52.9375 13.1875 35.296875 
" id="ArialMT-30"/>
      </defs>
      <g style="fill:#262626;" transform="translate(50.6634375 267.589375)scale(0.12 -0.12)">
       <use xlink:href="#ArialMT-30"/>
      </g>
     </g>
    </g>
    <g id="xtick_2">
     <g id="line2d_4">
      <path clip-path="url(#p4395be7dda)" d="M 165.6 252 
L 165.6 28.8 
" style="fill:none;stroke:#ffffff;stroke-linecap:round;"/>
     </g>
     <g id="line2d_5">
      <g>
       <use style="fill:#262626;stroke:#262626;" x="165.6" xlink:href="#m3879556ba8" y="252.0"/>
      </g>
     </g>
     <g id="line2d_6">
      <g>
       <use style="fill:#262626;stroke:#262626;" x="165.6" xlink:href="#m3879556ba8" y="28.8"/>
      </g>
     </g>
     <g id="text_2">
      <!-- 1 -->
      <defs>
       <path d="M 37.25 0 
L 28.46875 0 
L 28.46875 56 
Q 25.296875 52.984375 20.140625 49.953125 
Q 14.984375 46.921875 10.890625 45.40625 
L 10.890625 53.90625 
Q 18.265625 57.375 23.78125 62.296875 
Q 29.296875 67.234375 31.59375 71.875 
L 37.25 71.875 
z
" id="ArialMT-31"/>
      </defs>
      <g style="fill:#262626;" transform="translate(162.2634375 267.589375)scale(0.12 -0.12)">
       <use xlink:href="#ArialMT-31"/>
      </g>
     </g>
    </g>
    <g id="xtick_3">
     <g id="line2d_7">
      <path clip-path="url(#p4395be7dda)" d="M 277.2 252 
L 277.2 28.8 
" style="fill:none;stroke:#ffffff;stroke-linecap:round;"/>
     </g>
     <g id="line2d_8">
      <g>
       <use style="fill:#262626;stroke:#262626;" x="277.2" xlink:href="#m3879556ba8" y="252.0"/>
      </g>
     </g>
     <g id="line2d_9">
      <g>
       <use style="fill:#262626;stroke:#262626;" x="277.2" xlink:href="#m3879556ba8" y="28.8"/>
      </g>
     </g>
     <g id="text_3">
      <!-- 2 -->
      <defs>
       <path d="M 50.34375 8.453125 
L 50.34375 0 
L 3.03125 0 
Q 2.9375 3.171875 4.046875 6.109375 
Q 5.859375 10.9375 9.828125 15.625 
Q 13.8125 20.3125 21.34375 26.46875 
Q 33.015625 36.03125 37.109375 41.625 
Q 41.21875 47.21875 41.21875 52.203125 
Q 41.21875 57.421875 37.46875 61 
Q 33.734375 64.59375 27.734375 64.59375 
Q 21.390625 64.59375 17.578125 60.78125 
Q 13.765625 56.984375 13.71875 50.25 
L 4.6875 51.171875 
Q 5.609375 61.28125 11.65625 66.578125 
Q 17.71875 71.875 27.9375 71.875 
Q 38.234375 71.875 44.234375 66.15625 
Q 50.25 60.453125 50.25 52 
Q 50.25 47.703125 48.484375 43.546875 
Q 46.734375 39.40625 42.65625 34.8125 
Q 38.578125 30.21875 29.109375 22.21875 
Q 21.1875 15.578125 18.9375 13.203125 
Q 16.703125 10.84375 15.234375 8.453125 
z
" id="ArialMT-32"/>
      </defs>
      <g style="fill:#262626;" transform="translate(273.8634375 267.589375)scale(0.12 -0.12)">
       <use xlink:href="#ArialMT-32"/>
      </g>
     </g>
    </g>
    <g id="xtick_4">
     <g id="line2d_10">
      <path clip-path="url(#p4395be7dda)" d="M 388.8 252 
L 388.8 28.8 
" style="fill:none;stroke:#ffffff;stroke-linecap:round;"/>
     </g>
     <g id="line2d_11">
      <g>
       <use style="fill:#262626;stroke:#262626;" x="388.8" xlink:href="#m3879556ba8" y="252.0"/>
      </g>
     </g>
     <g id="line2d_12">
      <g>
       <use style="fill:#262626;stroke:#262626;" x="388.8" xlink:href="#m3879556ba8" y="28.8"/>
      </g>
     </g>
     <g id="text_4">
      <!-- 3 -->
      <defs>
       <path d="M 4.203125 18.890625 
L 12.984375 20.0625 
Q 14.5 12.59375 18.140625 9.296875 
Q 21.78125 6 27 6 
Q 33.203125 6 37.46875 10.296875 
Q 41.75 14.59375 41.75 20.953125 
Q 41.75 27 37.796875 30.921875 
Q 33.84375 34.859375 27.734375 34.859375 
Q 25.25 34.859375 21.53125 33.890625 
L 22.515625 41.609375 
Q 23.390625 41.5 23.921875 41.5 
Q 29.546875 41.5 34.03125 44.421875 
Q 38.53125 47.359375 38.53125 53.46875 
Q 38.53125 58.296875 35.25 61.46875 
Q 31.984375 64.65625 26.8125 64.65625 
Q 21.6875 64.65625 18.265625 61.421875 
Q 14.84375 58.203125 13.875 51.765625 
L 5.078125 53.328125 
Q 6.6875 62.15625 12.390625 67.015625 
Q 18.109375 71.875 26.609375 71.875 
Q 32.46875 71.875 37.390625 69.359375 
Q 42.328125 66.84375 44.9375 62.5 
Q 47.5625 58.15625 47.5625 53.265625 
Q 47.5625 48.640625 45.0625 44.828125 
Q 42.578125 41.015625 37.703125 38.765625 
Q 44.046875 37.3125 47.5625 32.6875 
Q 51.078125 28.078125 51.078125 21.140625 
Q 51.078125 11.765625 44.234375 5.25 
Q 37.40625 -1.265625 26.953125 -1.265625 
Q 17.53125 -1.265625 11.296875 4.34375 
Q 5.078125 9.96875 4.203125 18.890625 
" id="ArialMT-33"/>
      </defs>
      <g style="fill:#262626;" transform="translate(385.4634375 267.589375)scale(0.12 -0.12)">
       <use xlink:href="#ArialMT-33"/>
      </g>
     </g>
    </g>
   </g>
   <g id="matplotlib.axis_2">
    <g id="ytick_1">
     <g id="line2d_13">
      <path clip-path="url(#p4395be7dda)" d="M 54 252 
L 388.8 252 
" style="fill:none;stroke:#ffffff;stroke-linecap:round;"/>
     </g>
     <g id="line2d_14">
      <g>
       <use style="fill:#262626;stroke:#262626;" x="54.0" xlink:href="#m3879556ba8" y="252.0"/>
      </g>
     </g>
     <g id="line2d_15">
      <g>
       <use style="fill:#262626;stroke:#262626;" x="388.8" xlink:href="#m3879556ba8" y="252.0"/>
      </g>
     </g>
     <g id="text_5">
      <!-- 0.0 -->
      <defs>
       <path d="M 9.078125 0 
L 9.078125 10.015625 
L 19.09375 10.015625 
L 19.09375 0 
z
" id="ArialMT-2e"/>
      </defs>
      <g style="fill:#262626;" transform="translate(30.32 255.1021875)scale(0.12 -0.12)">
       <use xlink:href="#ArialMT-30"/>
       <use x="55.615234375" xlink:href="#ArialMT-2e"/>
       <use x="83.3984375" xlink:href="#ArialMT-30"/>
      </g>
     </g>
    </g>
    <g id="ytick_2">
     <g id="line2d_16">
      <path clip-path="url(#p4395be7dda)" d="M 54 146.964706 
L 388.8 146.964706 
" style="fill:none;stroke:#ffffff;stroke-linecap:round;"/>
     </g>
     <g id="line2d_17">
      <g>
       <use style="fill:#262626;stroke:#262626;" x="54.0" xlink:href="#m3879556ba8" y="146.964705882"/>
      </g>
     </g>
     <g id="line2d_18">
      <g>
       <use style="fill:#262626;stroke:#262626;" x="388.8" xlink:href="#m3879556ba8" y="146.964705882"/>
      </g>
     </g>
     <g id="text_6">
      <!-- 0.8 -->
      <defs>
       <path d="M 17.671875 38.8125 
Q 12.203125 40.828125 9.5625 44.53125 
Q 6.9375 48.25 6.9375 53.421875 
Q 6.9375 61.234375 12.546875 66.546875 
Q 18.171875 71.875 27.484375 71.875 
Q 36.859375 71.875 42.578125 66.421875 
Q 48.296875 60.984375 48.296875 53.171875 
Q 48.296875 48.1875 45.671875 44.5 
Q 43.0625 40.828125 37.75 38.8125 
Q 44.34375 36.671875 47.78125 31.875 
Q 51.21875 27.09375 51.21875 20.453125 
Q 51.21875 11.28125 44.71875 5.03125 
Q 38.234375 -1.21875 27.640625 -1.21875 
Q 17.046875 -1.21875 10.546875 5.046875 
Q 4.046875 11.328125 4.046875 20.703125 
Q 4.046875 27.6875 7.59375 32.390625 
Q 11.140625 37.109375 17.671875 38.8125 
M 15.921875 53.71875 
Q 15.921875 48.640625 19.1875 45.40625 
Q 22.46875 42.1875 27.6875 42.1875 
Q 32.765625 42.1875 36.015625 45.375 
Q 39.265625 48.578125 39.265625 53.21875 
Q 39.265625 58.0625 35.90625 61.359375 
Q 32.5625 64.65625 27.59375 64.65625 
Q 22.5625 64.65625 19.234375 61.421875 
Q 15.921875 58.203125 15.921875 53.71875 
M 13.09375 20.65625 
Q 13.09375 16.890625 14.875 13.375 
Q 16.65625 9.859375 20.171875 7.921875 
Q 23.6875 6 27.734375 6 
Q 34.03125 6 38.125 10.046875 
Q 42.234375 14.109375 42.234375 20.359375 
Q 42.234375 26.703125 38.015625 30.859375 
Q 33.796875 35.015625 27.4375 35.015625 
Q 21.234375 35.015625 17.15625 30.90625 
Q 13.09375 26.8125 13.09375 20.65625 
" id="ArialMT-38"/>
      </defs>
      <g style="fill:#262626;" transform="translate(30.32 150.066893382)scale(0.12 -0.12)">
       <use xlink:href="#ArialMT-30"/>
       <use x="55.615234375" xlink:href="#ArialMT-2e"/>
       <use x="83.3984375" xlink:href="#ArialMT-38"/>
      </g>
     </g>
    </g>
    <g id="ytick_3">
     <g id="line2d_19">
      <path clip-path="url(#p4395be7dda)" d="M 54 41.929412 
L 388.8 41.929412 
" style="fill:none;stroke:#ffffff;stroke-linecap:round;"/>
     </g>
     <g id="line2d_20">
      <g>
       <use style="fill:#262626;stroke:#262626;" x="54.0" xlink:href="#m3879556ba8" y="41.9294117647"/>
      </g>
     </g>
     <g id="line2d_21">
      <g>
       <use style="fill:#262626;stroke:#262626;" x="388.8" xlink:href="#m3879556ba8" y="41.9294117647"/>
      </g>
     </g>
     <g id="text_7">
      <!-- 1.6 -->
      <defs>
       <path d="M 49.75 54.046875 
L 41.015625 53.375 
Q 39.84375 58.546875 37.703125 60.890625 
Q 34.125 64.65625 28.90625 64.65625 
Q 24.703125 64.65625 21.53125 62.3125 
Q 17.390625 59.28125 14.984375 53.46875 
Q 12.59375 47.65625 12.5 36.921875 
Q 15.671875 41.75 20.265625 44.09375 
Q 24.859375 46.4375 29.890625 46.4375 
Q 38.671875 46.4375 44.84375 39.96875 
Q 51.03125 33.5 51.03125 23.25 
Q 51.03125 16.5 48.125 10.71875 
Q 45.21875 4.9375 40.140625 1.859375 
Q 35.0625 -1.21875 28.609375 -1.21875 
Q 17.625 -1.21875 10.6875 6.859375 
Q 3.765625 14.9375 3.765625 33.5 
Q 3.765625 54.25 11.421875 63.671875 
Q 18.109375 71.875 29.4375 71.875 
Q 37.890625 71.875 43.28125 67.140625 
Q 48.6875 62.40625 49.75 54.046875 
M 13.875 23.1875 
Q 13.875 18.65625 15.796875 14.5 
Q 17.71875 10.359375 21.1875 8.171875 
Q 24.65625 6 28.46875 6 
Q 34.03125 6 38.03125 10.484375 
Q 42.046875 14.984375 42.046875 22.703125 
Q 42.046875 30.125 38.078125 34.390625 
Q 34.125 38.671875 28.125 38.671875 
Q 22.171875 38.671875 18.015625 34.390625 
Q 13.875 30.125 13.875 23.1875 
" id="ArialMT-36"/>
      </defs>
      <g style="fill:#262626;" transform="translate(30.32 45.0315992647)scale(0.12 -0.12)">
       <use xlink:href="#ArialMT-31"/>
       <use x="55.615234375" xlink:href="#ArialMT-2e"/>
       <use x="83.3984375" xlink:href="#ArialMT-36"/>
      </g>
     </g>
    </g>
   </g>
   <g id="line2d_22">
    <path clip-path="url(#p4395be7dda)" d="M 54 252 
L 93.585571 251.890593 
L 96.940281 251.631379 
L 98.953106 251.302695 
L 100.965932 250.75692 
L 102.307816 250.226097 
L 103.649699 249.523495 
L 104.991583 248.612539 
L 106.333467 247.454051 
L 107.675351 246.00722 
L 109.017234 244.230763 
L 110.359118 242.084232 
L 111.701002 239.529396 
L 113.042886 236.531653 
L 114.38477 233.06139 
L 115.726653 229.09524 
L 117.068537 224.61718 
L 119.081363 216.925622 
L 121.094188 208.078339 
L 123.107014 198.133838 
L 125.11984 187.196856 
L 127.803607 171.330358 
L 131.158317 150.078256 
L 138.538677 102.765856 
L 141.222445 87.103592 
L 143.235271 76.383095 
L 145.248096 66.725995 
L 147.260922 58.263963 
L 148.602806 53.336638 
L 149.944689 49.006005 
L 151.286573 45.286605 
L 152.628457 42.186713 
L 153.970341 39.708636 
L 155.312224 37.849071 
L 156.654108 36.599517 
L 157.32505 36.199529 
L 157.995992 35.946734 
L 158.666934 35.838817 
L 159.337876 35.873225 
L 160.008818 36.04719 
L 160.67976 36.35774 
L 162.021643 37.375782 
L 163.363527 38.900118 
L 164.705411 40.901271 
L 166.047295 43.347998 
L 167.389178 46.207749 
L 169.402004 51.198516 
L 171.41483 56.928748 
L 173.427655 63.284145 
L 176.111423 72.53784 
L 179.466132 85.006654 
L 184.833667 106.011562 
L 191.543086 132.145614 
L 195.568737 146.964753 
L 198.923447 158.556772 
L 202.278156 169.350297 
L 205.632866 179.287407 
L 208.316633 186.604137 
L 211.000401 193.359015 
L 213.684168 199.562581 
L 216.367936 205.232508 
L 219.051703 210.391839 
L 221.735471 215.067456 
L 224.419238 219.288778 
L 227.103006 223.08668 
L 229.786774 226.492598 
L 232.470541 229.537831 
L 235.154309 232.25298 
L 237.838076 234.667539 
L 240.521844 236.809588 
L 243.205611 238.705596 
L 246.560321 240.767105 
L 249.91503 242.527003 
L 253.269739 244.025211 
L 256.624449 245.297356 
L 260.6501 246.569684 
L 264.675752 247.609076 
L 269.372345 248.580642 
L 274.73988 249.437349 
L 280.778357 250.152738 
L 287.487776 250.719858 
L 295.539078 251.178438 
L 306.274148 251.547228 
L 321.03487 251.801532 
L 344.517836 251.94686 
L 388.8 251.995526 
L 388.8 251.995526 
" style="fill:none;stroke:#4c72b0;stroke-linecap:round;stroke-width:1.75;"/>
   </g>
   <g id="patch_3">
    <path d="M 54 28.8 
L 388.8 28.8 
" style="fill:none;"/>
   </g>
   <g id="patch_4">
    <path d="M 388.8 252 
L 388.8 28.8 
" style="fill:none;"/>
   </g>
   <g id="patch_5">
    <path d="M 54 252 
L 388.8 252 
" style="fill:none;"/>
   </g>
   <g id="patch_6">
    <path d="M 54 252 
L 54 28.8 
" style="fill:none;"/>
   </g>
  </g>
 </g>
 <defs>
  <clipPath id="p4395be7dda">
   <rect height="223.2" width="334.8" x="54.0" y="28.8"/>
  </clipPath>
 </defs>
</svg>
