<?xml version="1.0" encoding="utf-8" standalone="no"?>
<!DOCTYPE svg PUBLIC "-//W3C//DTD SVG 1.1//EN"
  "http://www.w3.org/Graphics/SVG/1.1/DTD/svg11.dtd">
<!-- Created with matplotlib (http://matplotlib.org/) -->
<svg height="288pt" version="1.1" viewBox="0 0 432 288" width="432pt" xmlns="http://www.w3.org/2000/svg" xmlns:xlink="http://www.w3.org/1999/xlink">
 <defs>
  <style type="text/css">
*{stroke-linecap:butt;stroke-linejoin:round;stroke-miterlimit:100000;}
  </style>
 </defs>
 <g id="figure_1">
  <g id="patch_1">
   <path d="M 0 288 
L 432 288 
L 432 0 
L 0 0 
z
" style="fill:#ffffff;"/>
  </g>
  <g id="axes_1">
   <g id="patch_2">
    <path d="M 54 252 
L 388.8 252 
L 388.8 28.8 
L 54 28.8 
z
" style="fill:#eaeaf2;"/>
   </g>
   <g id="matplotlib.axis_1">
    <g id="xtick_1">
     <g id="line2d_1">
      <path clip-path="url(#p68989528fd)" d="M 54 252 
L 54 28.8 
" style="fill:none;stroke:#ffffff;stroke-linecap:round;"/>
     </g>
     <g id="line2d_2">
      <defs>
       <path d="M 0 0 
L 0 0 
" id="maf743f40cd" style="stroke:#262626;"/>
      </defs>
      <g>
       <use style="fill:#262626;stroke:#262626;" x="54.0" xlink:href="#maf743f40cd" y="252.0"/>
      </g>
     </g>
     <g id="line2d_3">
      <g>
       <use style="fill:#262626;stroke:#262626;" x="54.0" xlink:href="#maf743f40cd" y="28.8"/>
      </g>
     </g>
     <g id="text_1">
      <!-- 90 -->
      <defs>
       <path d="M 4.15625 35.296875 
Q 4.15625 48 6.765625 55.734375 
Q 9.375 63.484375 14.515625 67.671875 
Q 19.671875 71.875 27.484375 71.875 
Q 33.25 71.875 37.59375 69.546875 
Q 41.9375 67.234375 44.765625 62.859375 
Q 47.609375 58.5 49.21875 52.21875 
Q 50.828125 45.953125 50.828125 35.296875 
Q 50.828125 22.703125 48.234375 14.96875 
Q 45.65625 7.234375 40.5 3 
Q 35.359375 -1.21875 27.484375 -1.21875 
Q 17.140625 -1.21875 11.234375 6.203125 
Q 4.15625 15.140625 4.15625 35.296875 
M 13.1875 35.296875 
Q 13.1875 17.671875 17.3125 11.828125 
Q 21.4375 6 27.484375 6 
Q 33.546875 6 37.671875 11.859375 
Q 41.796875 17.71875 41.796875 35.296875 
Q 41.796875 52.984375 37.671875 58.78125 
Q 33.546875 64.59375 27.390625 64.59375 
Q 21.34375 64.59375 17.71875 59.46875 
Q 13.1875 52.9375 13.1875 35.296875 
" id="ArialMT-30"/>
       <path d="M 5.46875 16.546875 
L 13.921875 17.328125 
Q 14.984375 11.375 18.015625 8.6875 
Q 21.046875 6 25.78125 6 
Q 29.828125 6 32.875 7.859375 
Q 35.9375 9.71875 37.890625 12.8125 
Q 39.84375 15.921875 41.15625 21.1875 
Q 42.484375 26.46875 42.484375 31.9375 
Q 42.484375 32.515625 42.4375 33.6875 
Q 39.796875 29.5 35.234375 26.875 
Q 30.671875 24.265625 25.34375 24.265625 
Q 16.453125 24.265625 10.296875 30.703125 
Q 4.15625 37.15625 4.15625 47.703125 
Q 4.15625 58.59375 10.578125 65.234375 
Q 17 71.875 26.65625 71.875 
Q 33.640625 71.875 39.421875 68.109375 
Q 45.21875 64.359375 48.21875 57.390625 
Q 51.21875 50.4375 51.21875 37.25 
Q 51.21875 23.53125 48.234375 15.40625 
Q 45.265625 7.28125 39.375 3.03125 
Q 33.5 -1.21875 25.59375 -1.21875 
Q 17.1875 -1.21875 11.859375 3.4375 
Q 6.546875 8.109375 5.46875 16.546875 
M 41.453125 48.140625 
Q 41.453125 55.71875 37.421875 60.15625 
Q 33.40625 64.59375 27.734375 64.59375 
Q 21.875 64.59375 17.53125 59.8125 
Q 13.1875 55.03125 13.1875 47.40625 
Q 13.1875 40.578125 17.3125 36.296875 
Q 21.4375 32.03125 27.484375 32.03125 
Q 33.59375 32.03125 37.515625 36.296875 
Q 41.453125 40.578125 41.453125 48.140625 
" id="ArialMT-39"/>
      </defs>
      <g style="fill:#262626;" transform="translate(48.4390625 266.1578125)scale(0.1 -0.1)">
       <use xlink:href="#ArialMT-39"/>
       <use x="55.615234375" xlink:href="#ArialMT-30"/>
      </g>
     </g>
    </g>
    <g id="xtick_2">
     <g id="line2d_4">
      <path clip-path="url(#p68989528fd)" d="M 137.7 252 
L 137.7 28.8 
" style="fill:none;stroke:#ffffff;stroke-linecap:round;"/>
     </g>
     <g id="line2d_5">
      <g>
       <use style="fill:#262626;stroke:#262626;" x="137.7" xlink:href="#maf743f40cd" y="252.0"/>
      </g>
     </g>
     <g id="line2d_6">
      <g>
       <use style="fill:#262626;stroke:#262626;" x="137.7" xlink:href="#maf743f40cd" y="28.8"/>
      </g>
     </g>
     <g id="text_2">
      <!-- 95 -->
      <defs>
       <path d="M 4.15625 18.75 
L 13.375 19.53125 
Q 14.40625 12.796875 18.140625 9.390625 
Q 21.875 6 27.15625 6 
Q 33.5 6 37.890625 10.78125 
Q 42.28125 15.578125 42.28125 23.484375 
Q 42.28125 31 38.0625 35.34375 
Q 33.84375 39.703125 27 39.703125 
Q 22.75 39.703125 19.328125 37.765625 
Q 15.921875 35.84375 13.96875 32.765625 
L 5.71875 33.84375 
L 12.640625 70.609375 
L 48.25 70.609375 
L 48.25 62.203125 
L 19.671875 62.203125 
L 15.828125 42.96875 
Q 22.265625 47.46875 29.34375 47.46875 
Q 38.71875 47.46875 45.15625 40.96875 
Q 51.609375 34.46875 51.609375 24.265625 
Q 51.609375 14.546875 45.953125 7.46875 
Q 39.0625 -1.21875 27.15625 -1.21875 
Q 17.390625 -1.21875 11.203125 4.25 
Q 5.03125 9.71875 4.15625 18.75 
" id="ArialMT-35"/>
      </defs>
      <g style="fill:#262626;" transform="translate(132.1390625 266.1578125)scale(0.1 -0.1)">
       <use xlink:href="#ArialMT-39"/>
       <use x="55.615234375" xlink:href="#ArialMT-35"/>
      </g>
     </g>
    </g>
    <g id="xtick_3">
     <g id="line2d_7">
      <path clip-path="url(#p68989528fd)" d="M 221.4 252 
L 221.4 28.8 
" style="fill:none;stroke:#ffffff;stroke-linecap:round;"/>
     </g>
     <g id="line2d_8">
      <g>
       <use style="fill:#262626;stroke:#262626;" x="221.4" xlink:href="#maf743f40cd" y="252.0"/>
      </g>
     </g>
     <g id="line2d_9">
      <g>
       <use style="fill:#262626;stroke:#262626;" x="221.4" xlink:href="#maf743f40cd" y="28.8"/>
      </g>
     </g>
     <g id="text_3">
      <!-- 100 -->
      <defs>
       <path d="M 37.25 0 
L 28.46875 0 
L 28.46875 56 
Q 25.296875 52.984375 20.140625 49.953125 
Q 14.984375 46.921875 10.890625 45.40625 
L 10.890625 53.90625 
Q 18.265625 57.375 23.78125 62.296875 
Q 29.296875 67.234375 31.59375 71.875 
L 37.25 71.875 
z
" id="ArialMT-31"/>
      </defs>
      <g style="fill:#262626;" transform="translate(213.05859375 266.1578125)scale(0.1 -0.1)">
       <use xlink:href="#ArialMT-31"/>
       <use x="55.615234375" xlink:href="#ArialMT-30"/>
       <use x="111.23046875" xlink:href="#ArialMT-30"/>
      </g>
     </g>
    </g>
    <g id="xtick_4">
     <g id="line2d_10">
      <path clip-path="url(#p68989528fd)" d="M 305.1 252 
L 305.1 28.8 
" style="fill:none;stroke:#ffffff;stroke-linecap:round;"/>
     </g>
     <g id="line2d_11">
      <g>
       <use style="fill:#262626;stroke:#262626;" x="305.1" xlink:href="#maf743f40cd" y="252.0"/>
      </g>
     </g>
     <g id="line2d_12">
      <g>
       <use style="fill:#262626;stroke:#262626;" x="305.1" xlink:href="#maf743f40cd" y="28.8"/>
      </g>
     </g>
     <g id="text_4">
      <!-- 105 -->
      <g style="fill:#262626;" transform="translate(296.75859375 266.1578125)scale(0.1 -0.1)">
       <use xlink:href="#ArialMT-31"/>
       <use x="55.615234375" xlink:href="#ArialMT-30"/>
       <use x="111.23046875" xlink:href="#ArialMT-35"/>
      </g>
     </g>
    </g>
    <g id="xtick_5">
     <g id="line2d_13">
      <path clip-path="url(#p68989528fd)" d="M 388.8 252 
L 388.8 28.8 
" style="fill:none;stroke:#ffffff;stroke-linecap:round;"/>
     </g>
     <g id="line2d_14">
      <g>
       <use style="fill:#262626;stroke:#262626;" x="388.8" xlink:href="#maf743f40cd" y="252.0"/>
      </g>
     </g>
     <g id="line2d_15">
      <g>
       <use style="fill:#262626;stroke:#262626;" x="388.8" xlink:href="#maf743f40cd" y="28.8"/>
      </g>
     </g>
     <g id="text_5">
      <!-- 110 -->
      <g style="fill:#262626;" transform="translate(380.4640625 266.1578125)scale(0.1 -0.1)">
       <use xlink:href="#ArialMT-31"/>
       <use x="55.505859375" xlink:href="#ArialMT-31"/>
       <use x="111.12109375" xlink:href="#ArialMT-30"/>
      </g>
     </g>
    </g>
    <g id="text_6">
     <!-- Underlying asset price at maturity - $S_T$ -->
     <defs>
      <path d="M 40.4375 19 
L 49.078125 17.875 
Q 47.65625 8.9375 41.8125 3.875 
Q 35.984375 -1.171875 27.484375 -1.171875 
Q 16.84375 -1.171875 10.375 5.78125 
Q 3.90625 12.75 3.90625 25.734375 
Q 3.90625 34.125 6.6875 40.421875 
Q 9.46875 46.734375 15.15625 49.875 
Q 20.84375 53.03125 27.546875 53.03125 
Q 35.984375 53.03125 41.359375 48.75 
Q 46.734375 44.484375 48.25 36.625 
L 39.703125 35.296875 
Q 38.484375 40.53125 35.375 43.15625 
Q 32.28125 45.796875 27.875 45.796875 
Q 21.234375 45.796875 17.078125 41.03125 
Q 12.9375 36.28125 12.9375 25.984375 
Q 12.9375 15.53125 16.9375 10.796875 
Q 20.953125 6.0625 27.390625 6.0625 
Q 32.5625 6.0625 36.03125 9.234375 
Q 39.5 12.40625 40.4375 19 
" id="ArialMT-63"/>
      <path d="M 40.4375 6.390625 
Q 35.546875 2.25 31.03125 0.53125 
Q 26.515625 -1.171875 21.34375 -1.171875 
Q 12.796875 -1.171875 8.203125 3 
Q 3.609375 7.171875 3.609375 13.671875 
Q 3.609375 17.484375 5.34375 20.625 
Q 7.078125 23.78125 9.890625 25.6875 
Q 12.703125 27.59375 16.21875 28.5625 
Q 18.796875 29.25 24.03125 29.890625 
Q 34.671875 31.15625 39.703125 32.90625 
Q 39.75 34.71875 39.75 35.203125 
Q 39.75 40.578125 37.25 42.78125 
Q 33.890625 45.75 27.25 45.75 
Q 21.046875 45.75 18.09375 43.578125 
Q 15.140625 41.40625 13.71875 35.890625 
L 5.125 37.0625 
Q 6.296875 42.578125 8.984375 45.96875 
Q 11.671875 49.359375 16.75 51.1875 
Q 21.828125 53.03125 28.515625 53.03125 
Q 35.15625 53.03125 39.296875 51.46875 
Q 43.453125 49.90625 45.40625 47.53125 
Q 47.359375 45.171875 48.140625 41.546875 
Q 48.578125 39.3125 48.578125 33.453125 
L 48.578125 21.734375 
Q 48.578125 9.46875 49.140625 6.21875 
Q 49.703125 2.984375 51.375 0 
L 42.1875 0 
Q 40.828125 2.734375 40.4375 6.390625 
M 39.703125 26.03125 
Q 34.90625 24.078125 25.34375 22.703125 
Q 19.921875 21.921875 17.671875 20.9375 
Q 15.4375 19.96875 14.203125 18.09375 
Q 12.984375 16.21875 12.984375 13.921875 
Q 12.984375 10.40625 15.640625 8.0625 
Q 18.3125 5.71875 23.4375 5.71875 
Q 28.515625 5.71875 32.46875 7.9375 
Q 36.421875 10.15625 38.28125 14.015625 
Q 39.703125 17 39.703125 22.796875 
z
" id="ArialMT-61"/>
      <path d="M 6.109375 -2.203125 
Q 5.8125 -2.203125 5.5625 -1.859375 
Q 5.328125 -1.515625 5.328125 -1.21875 
L 11.078125 22.125 
Q 11.28125 22.703125 11.921875 22.703125 
L 13.09375 22.703125 
Q 13.484375 22.703125 13.703125 22.40625 
Q 13.921875 22.125 13.921875 21.6875 
Q 13.09375 18.265625 13.09375 15.578125 
Q 13.09375 8.34375 18.0625 4.828125 
Q 23.046875 1.3125 30.609375 1.3125 
Q 33.890625 1.3125 37.0625 2.921875 
Q 40.234375 4.546875 42.59375 7.125 
Q 44.96875 9.71875 46.375 12.90625 
Q 47.796875 16.109375 47.796875 19.390625 
Q 47.796875 22.90625 45.9375 25.65625 
Q 44.09375 28.421875 40.828125 29.203125 
L 28.609375 32.421875 
Q 23.6875 33.734375 20.75 37.71875 
Q 17.828125 41.703125 17.828125 46.6875 
Q 17.828125 52.6875 21.390625 58.25 
Q 24.953125 63.8125 30.6875 67.15625 
Q 36.421875 70.515625 42.390625 70.515625 
Q 46.96875 70.515625 50.796875 68.828125 
Q 54.640625 67.140625 56.6875 63.484375 
L 62.40625 70.21875 
Q 62.984375 70.515625 63.09375 70.515625 
L 63.71875 70.515625 
Q 64.109375 70.515625 64.34375 70.171875 
Q 64.59375 69.828125 64.59375 69.484375 
L 58.796875 46.296875 
Q 58.640625 45.609375 58.015625 45.609375 
L 56.78125 45.609375 
Q 55.90625 45.609375 55.90625 46.6875 
Q 56.390625 49.859375 56.390625 52.203125 
Q 56.390625 56.84375 54.796875 60.28125 
Q 53.21875 63.71875 50.015625 65.5 
Q 46.828125 67.28125 42.09375 67.28125 
Q 38.09375 67.28125 34.125 64.984375 
Q 30.171875 62.703125 27.734375 58.890625 
Q 25.296875 55.078125 25.296875 50.984375 
Q 25.296875 47.75 27.171875 45.265625 
Q 29.046875 42.78125 32.171875 41.890625 
L 44.390625 38.71875 
Q 47.703125 37.84375 50.171875 35.625 
Q 52.640625 33.40625 53.90625 30.34375 
Q 55.171875 27.296875 55.171875 23.6875 
Q 55.171875 18.953125 53.171875 14.328125 
Q 51.171875 9.71875 47.578125 5.90625 
Q 44 2.09375 39.453125 -0.046875 
Q 34.90625 -2.203125 30.171875 -2.203125 
Q 18.265625 -2.203125 13.09375 4.78125 
L 7.515625 -1.90625 
Q 6.9375 -2.203125 6.78125 -2.203125 
z
" id="Cmmi10-53"/>
      <path d="M 4.984375 -4.296875 
L 13.53125 -5.5625 
Q 14.0625 -9.515625 16.5 -11.328125 
Q 19.78125 -13.765625 25.4375 -13.765625 
Q 31.546875 -13.765625 34.859375 -11.328125 
Q 38.1875 -8.890625 39.359375 -4.5 
Q 40.046875 -1.8125 39.984375 6.78125 
Q 34.234375 0 25.640625 0 
Q 14.9375 0 9.078125 7.71875 
Q 3.21875 15.4375 3.21875 26.21875 
Q 3.21875 33.640625 5.90625 39.90625 
Q 8.59375 46.1875 13.6875 49.609375 
Q 18.796875 53.03125 25.6875 53.03125 
Q 34.859375 53.03125 40.828125 45.609375 
L 40.828125 51.859375 
L 48.921875 51.859375 
L 48.921875 7.03125 
Q 48.921875 -5.078125 46.453125 -10.125 
Q 44 -15.1875 38.640625 -18.109375 
Q 33.296875 -21.046875 25.484375 -21.046875 
Q 16.21875 -21.046875 10.5 -16.875 
Q 4.78125 -12.703125 4.984375 -4.296875 
M 12.25 26.859375 
Q 12.25 16.65625 16.296875 11.96875 
Q 20.359375 7.28125 26.46875 7.28125 
Q 32.515625 7.28125 36.609375 11.9375 
Q 40.71875 16.609375 40.71875 26.5625 
Q 40.71875 36.078125 36.5 40.90625 
Q 32.28125 45.75 26.3125 45.75 
Q 20.453125 45.75 16.34375 40.984375 
Q 12.25 36.234375 12.25 26.859375 
" id="ArialMT-67"/>
      <path d="M 6.203125 -19.96875 
L 5.21875 -11.71875 
Q 8.109375 -12.5 10.25 -12.5 
Q 13.1875 -12.5 14.9375 -11.515625 
Q 16.703125 -10.546875 17.828125 -8.796875 
Q 18.65625 -7.46875 20.515625 -2.25 
Q 20.75 -1.515625 21.296875 -0.09375 
L 1.609375 51.859375 
L 11.078125 51.859375 
L 21.875 21.828125 
Q 23.96875 16.109375 25.640625 9.8125 
Q 27.15625 15.875 29.25 21.625 
L 40.328125 51.859375 
L 49.125 51.859375 
L 29.390625 -0.875 
Q 26.21875 -9.421875 24.46875 -12.640625 
Q 22.125 -17 19.09375 -19.015625 
Q 16.0625 -21.046875 11.859375 -21.046875 
Q 9.328125 -21.046875 6.203125 -19.96875 
" id="ArialMT-79"/>
      <path d="M 42.09375 16.703125 
L 51.171875 15.578125 
Q 49.03125 7.625 43.21875 3.21875 
Q 37.40625 -1.171875 28.375 -1.171875 
Q 17 -1.171875 10.328125 5.828125 
Q 3.65625 12.84375 3.65625 25.484375 
Q 3.65625 38.578125 10.390625 45.796875 
Q 17.140625 53.03125 27.875 53.03125 
Q 38.28125 53.03125 44.875 45.953125 
Q 51.46875 38.875 51.46875 26.03125 
Q 51.46875 25.25 51.421875 23.6875 
L 12.75 23.6875 
Q 13.234375 15.140625 17.578125 10.59375 
Q 21.921875 6.0625 28.421875 6.0625 
Q 33.25 6.0625 36.671875 8.59375 
Q 40.09375 11.140625 42.09375 16.703125 
M 13.234375 30.90625 
L 42.1875 30.90625 
Q 41.609375 37.453125 38.875 40.71875 
Q 34.671875 45.796875 27.984375 45.796875 
Q 21.921875 45.796875 17.796875 41.75 
Q 13.671875 37.703125 13.234375 30.90625 
" id="ArialMT-65"/>
      <path d="M 40.234375 0 
L 40.234375 6.546875 
Q 35.296875 -1.171875 25.734375 -1.171875 
Q 19.53125 -1.171875 14.328125 2.25 
Q 9.125 5.671875 6.265625 11.796875 
Q 3.421875 17.921875 3.421875 25.875 
Q 3.421875 33.640625 6 39.96875 
Q 8.59375 46.296875 13.765625 49.65625 
Q 18.953125 53.03125 25.34375 53.03125 
Q 30.03125 53.03125 33.6875 51.046875 
Q 37.359375 49.078125 39.65625 45.90625 
L 39.65625 71.578125 
L 48.390625 71.578125 
L 48.390625 0 
z
M 12.453125 25.875 
Q 12.453125 15.921875 16.640625 10.984375 
Q 20.84375 6.0625 26.5625 6.0625 
Q 32.328125 6.0625 36.34375 10.765625 
Q 40.375 15.484375 40.375 25.140625 
Q 40.375 35.796875 36.265625 40.765625 
Q 32.171875 45.75 26.171875 45.75 
Q 20.3125 45.75 16.375 40.96875 
Q 12.453125 36.1875 12.453125 25.875 
" id="ArialMT-64"/>
      <path d="M 25.78125 7.859375 
L 27.046875 0.09375 
Q 23.34375 -0.6875 20.40625 -0.6875 
Q 15.625 -0.6875 12.984375 0.828125 
Q 10.359375 2.34375 9.28125 4.8125 
Q 8.203125 7.28125 8.203125 15.1875 
L 8.203125 45.015625 
L 1.765625 45.015625 
L 1.765625 51.859375 
L 8.203125 51.859375 
L 8.203125 64.703125 
L 16.9375 69.96875 
L 16.9375 51.859375 
L 25.78125 51.859375 
L 25.78125 45.015625 
L 16.9375 45.015625 
L 16.9375 14.703125 
Q 16.9375 10.9375 17.40625 9.859375 
Q 17.875 8.796875 18.921875 8.15625 
Q 19.96875 7.515625 21.921875 7.515625 
Q 23.390625 7.515625 25.78125 7.859375 
" id="ArialMT-74"/>
      <path d="M 40.578125 0 
L 40.578125 7.625 
Q 34.515625 -1.171875 24.125 -1.171875 
Q 19.53125 -1.171875 15.546875 0.578125 
Q 11.578125 2.34375 9.640625 5 
Q 7.71875 7.671875 6.9375 11.53125 
Q 6.390625 14.109375 6.390625 19.734375 
L 6.390625 51.859375 
L 15.1875 51.859375 
L 15.1875 23.09375 
Q 15.1875 16.21875 15.71875 13.8125 
Q 16.546875 10.359375 19.234375 8.375 
Q 21.921875 6.390625 25.875 6.390625 
Q 29.828125 6.390625 33.296875 8.421875 
Q 36.765625 10.453125 38.203125 13.9375 
Q 39.65625 17.4375 39.65625 24.078125 
L 39.65625 51.859375 
L 48.4375 51.859375 
L 48.4375 0 
z
" id="ArialMT-75"/>
      <path d="M 6.640625 61.46875 
L 6.640625 71.578125 
L 15.4375 71.578125 
L 15.4375 61.46875 
z
M 6.640625 0 
L 6.640625 51.859375 
L 15.4375 51.859375 
L 15.4375 0 
z
" id="ArialMT-69"/>
      <path d="M 3.171875 21.484375 
L 3.171875 30.328125 
L 30.171875 30.328125 
L 30.171875 21.484375 
z
" id="ArialMT-2d"/>
      <path d="M 6.59375 -19.875 
L 6.59375 51.859375 
L 14.59375 51.859375 
L 14.59375 45.125 
Q 17.4375 49.078125 21 51.046875 
Q 24.5625 53.03125 29.640625 53.03125 
Q 36.28125 53.03125 41.359375 49.609375 
Q 46.4375 46.1875 49.015625 39.953125 
Q 51.609375 33.734375 51.609375 26.3125 
Q 51.609375 18.359375 48.75 11.984375 
Q 45.90625 5.609375 40.453125 2.21875 
Q 35.015625 -1.171875 29 -1.171875 
Q 24.609375 -1.171875 21.109375 0.6875 
Q 17.625 2.546875 15.375 5.375 
L 15.375 -19.875 
z
M 14.546875 25.640625 
Q 14.546875 15.625 18.59375 10.84375 
Q 22.65625 6.0625 28.421875 6.0625 
Q 34.28125 6.0625 38.453125 11.015625 
Q 42.625 15.96875 42.625 26.375 
Q 42.625 36.28125 38.546875 41.203125 
Q 34.46875 46.140625 28.8125 46.140625 
Q 23.1875 46.140625 18.859375 40.890625 
Q 14.546875 35.640625 14.546875 25.640625 
" id="ArialMT-70"/>
      <path d="M 6.5 0 
L 6.5 51.859375 
L 14.40625 51.859375 
L 14.40625 44 
Q 17.4375 49.515625 20 51.265625 
Q 22.5625 53.03125 25.640625 53.03125 
Q 30.078125 53.03125 34.671875 50.203125 
L 31.640625 42.046875 
Q 28.421875 43.953125 25.203125 43.953125 
Q 22.3125 43.953125 20.015625 42.21875 
Q 17.71875 40.484375 16.75 37.40625 
Q 15.28125 32.71875 15.28125 27.15625 
L 15.28125 0 
z
" id="ArialMT-72"/>
      <path d="M 54.6875 71.578125 
L 64.15625 71.578125 
L 64.15625 30.21875 
Q 64.15625 19.4375 61.71875 13.078125 
Q 59.28125 6.734375 52.90625 2.75 
Q 46.53125 -1.21875 36.1875 -1.21875 
Q 26.125 -1.21875 19.71875 2.25 
Q 13.328125 5.71875 10.59375 12.28125 
Q 7.859375 18.84375 7.859375 30.21875 
L 7.859375 71.578125 
L 17.328125 71.578125 
L 17.328125 30.28125 
Q 17.328125 20.953125 19.0625 16.53125 
Q 20.796875 12.109375 25.015625 9.71875 
Q 29.25 7.328125 35.359375 7.328125 
Q 45.796875 7.328125 50.234375 12.0625 
Q 54.6875 16.796875 54.6875 30.28125 
z
" id="ArialMT-55"/>
      <path d="M 6.390625 0 
L 6.390625 71.578125 
L 15.1875 71.578125 
L 15.1875 0 
z
" id="ArialMT-6c"/>
      <path d="M 4.59375 1.3125 
Q 4.640625 1.5625 4.8125 2.1875 
Q 4.984375 2.828125 5.25 3.171875 
Q 5.515625 3.515625 6 3.515625 
Q 14.59375 3.515625 17.390625 4 
Q 20.0625 4.6875 20.609375 6.890625 
L 34.28125 61.8125 
Q 34.71875 63.03125 34.71875 64.015625 
Q 34.71875 64.796875 31.203125 64.796875 
L 25.390625 64.796875 
Q 18.703125 64.796875 15.0625 62.734375 
Q 11.421875 60.6875 9.71875 57.3125 
Q 8.015625 53.953125 5.328125 46.296875 
Q 4.984375 45.40625 4.296875 45.40625 
L 3.421875 45.40625 
Q 2.390625 45.40625 2.390625 46.6875 
L 9.515625 67.390625 
Q 9.71875 68.3125 10.5 68.3125 
L 69.578125 68.3125 
Q 70.609375 68.3125 70.609375 67 
L 67.28125 46.296875 
Q 67.28125 46 66.9375 45.703125 
Q 66.609375 45.40625 66.3125 45.40625 
L 65.375 45.40625 
Q 64.40625 45.40625 64.40625 46.6875 
Q 65.484375 53.765625 65.484375 56.6875 
Q 65.484375 60.203125 64.015625 62 
Q 62.546875 63.8125 60.203125 64.296875 
Q 57.859375 64.796875 54.109375 64.796875 
L 48.1875 64.796875 
Q 45.515625 64.796875 44.578125 64.296875 
Q 43.65625 63.8125 43.015625 61.375 
L 29.296875 6.5 
Q 29.25 6.296875 29.21875 6.09375 
Q 29.203125 5.90625 29.109375 5.609375 
Q 29.109375 4.34375 30.609375 4 
Q 33.203125 3.515625 41.703125 3.515625 
Q 42.671875 3.515625 42.671875 2.203125 
Q 42.328125 0.78125 42.125 0.390625 
Q 41.9375 0 41.015625 0 
L 5.609375 0 
Q 4.59375 0 4.59375 1.3125 
" id="Cmmi10-54"/>
      <path d="M 6.59375 0 
L 6.59375 51.859375 
L 14.5 51.859375 
L 14.5 44.484375 
Q 20.21875 53.03125 31 53.03125 
Q 35.6875 53.03125 39.625 51.34375 
Q 43.5625 49.65625 45.515625 46.921875 
Q 47.46875 44.1875 48.25 40.4375 
Q 48.734375 37.984375 48.734375 31.890625 
L 48.734375 0 
L 39.9375 0 
L 39.9375 31.546875 
Q 39.9375 36.921875 38.90625 39.578125 
Q 37.890625 42.234375 35.28125 43.8125 
Q 32.671875 45.40625 29.15625 45.40625 
Q 23.53125 45.40625 19.453125 41.84375 
Q 15.375 38.28125 15.375 28.328125 
L 15.375 0 
z
" id="ArialMT-6e"/>
      <path d="M 6.59375 0 
L 6.59375 51.859375 
L 14.453125 51.859375 
L 14.453125 44.578125 
Q 16.890625 48.390625 20.9375 50.703125 
Q 25 53.03125 30.171875 53.03125 
Q 35.9375 53.03125 39.625 50.640625 
Q 43.3125 48.25 44.828125 43.953125 
Q 50.984375 53.03125 60.84375 53.03125 
Q 68.5625 53.03125 72.703125 48.75 
Q 76.859375 44.484375 76.859375 35.59375 
L 76.859375 0 
L 68.109375 0 
L 68.109375 32.671875 
Q 68.109375 37.9375 67.25 40.25 
Q 66.40625 42.578125 64.15625 43.984375 
Q 61.921875 45.40625 58.890625 45.40625 
Q 53.421875 45.40625 49.796875 41.765625 
Q 46.1875 38.140625 46.1875 30.125 
L 46.1875 0 
L 37.40625 0 
L 37.40625 33.6875 
Q 37.40625 39.546875 35.25 42.46875 
Q 33.109375 45.40625 28.21875 45.40625 
Q 24.515625 45.40625 21.359375 43.453125 
Q 18.21875 41.5 16.796875 37.734375 
Q 15.375 33.984375 15.375 26.90625 
L 15.375 0 
z
" id="ArialMT-6d"/>
      <path d="M 3.078125 15.484375 
L 11.765625 16.84375 
Q 12.5 11.625 15.84375 8.84375 
Q 19.1875 6.0625 25.203125 6.0625 
Q 31.25 6.0625 34.171875 8.515625 
Q 37.109375 10.984375 37.109375 14.3125 
Q 37.109375 17.28125 34.515625 19 
Q 32.71875 20.171875 25.53125 21.96875 
Q 15.875 24.421875 12.140625 26.203125 
Q 8.40625 27.984375 6.46875 31.125 
Q 4.546875 34.28125 4.546875 38.09375 
Q 4.546875 41.546875 6.125 44.5 
Q 7.71875 47.46875 10.453125 49.421875 
Q 12.5 50.921875 16.03125 51.96875 
Q 19.578125 53.03125 23.640625 53.03125 
Q 29.734375 53.03125 34.34375 51.265625 
Q 38.96875 49.515625 41.15625 46.5 
Q 43.359375 43.5 44.1875 38.484375 
L 35.59375 37.3125 
Q 35.015625 41.3125 32.203125 43.546875 
Q 29.390625 45.796875 24.265625 45.796875 
Q 18.21875 45.796875 15.625 43.796875 
Q 13.03125 41.796875 13.03125 39.109375 
Q 13.03125 37.40625 14.109375 36.03125 
Q 15.1875 34.625 17.484375 33.6875 
Q 18.796875 33.203125 25.25 31.453125 
Q 34.578125 28.953125 38.25 27.359375 
Q 41.9375 25.78125 44.03125 22.75 
Q 46.140625 19.734375 46.140625 15.234375 
Q 46.140625 10.84375 43.578125 6.953125 
Q 41.015625 3.078125 36.171875 0.953125 
Q 31.34375 -1.171875 25.25 -1.171875 
Q 15.140625 -1.171875 9.84375 3.03125 
Q 4.546875 7.234375 3.078125 15.484375 
" id="ArialMT-73"/>
      <path id="ArialMT-20"/>
     </defs>
     <g style="fill:#262626;" transform="translate(103.66 283.2253125)scale(0.14 -0.14)">
      <use transform="translate(0.0 0.421875)" xlink:href="#ArialMT-55"/>
      <use transform="translate(72.216796875 0.421875)" xlink:href="#ArialMT-6e"/>
      <use transform="translate(127.83203125 0.421875)" xlink:href="#ArialMT-64"/>
      <use transform="translate(183.447265625 0.421875)" xlink:href="#ArialMT-65"/>
      <use transform="translate(239.0625 0.421875)" xlink:href="#ArialMT-72"/>
      <use transform="translate(272.36328125 0.421875)" xlink:href="#ArialMT-6c"/>
      <use transform="translate(294.580078125 0.421875)" xlink:href="#ArialMT-79"/>
      <use transform="translate(344.580078125 0.421875)" xlink:href="#ArialMT-69"/>
      <use transform="translate(366.796875 0.421875)" xlink:href="#ArialMT-6e"/>
      <use transform="translate(422.412109375 0.421875)" xlink:href="#ArialMT-67"/>
      <use transform="translate(478.02734375 0.421875)" xlink:href="#ArialMT-20"/>
      <use transform="translate(505.810546875 0.421875)" xlink:href="#ArialMT-61"/>
      <use transform="translate(561.42578125 0.421875)" xlink:href="#ArialMT-73"/>
      <use transform="translate(611.42578125 0.421875)" xlink:href="#ArialMT-73"/>
      <use transform="translate(661.42578125 0.421875)" xlink:href="#ArialMT-65"/>
      <use transform="translate(717.041015625 0.421875)" xlink:href="#ArialMT-74"/>
      <use transform="translate(744.82421875 0.421875)" xlink:href="#ArialMT-20"/>
      <use transform="translate(772.607421875 0.421875)" xlink:href="#ArialMT-70"/>
      <use transform="translate(828.22265625 0.421875)" xlink:href="#ArialMT-72"/>
      <use transform="translate(861.5234375 0.421875)" xlink:href="#ArialMT-69"/>
      <use transform="translate(883.740234375 0.421875)" xlink:href="#ArialMT-63"/>
      <use transform="translate(933.740234375 0.421875)" xlink:href="#ArialMT-65"/>
      <use transform="translate(989.35546875 0.421875)" xlink:href="#ArialMT-20"/>
      <use transform="translate(1017.13867188 0.421875)" xlink:href="#ArialMT-61"/>
      <use transform="translate(1072.75390625 0.421875)" xlink:href="#ArialMT-74"/>
      <use transform="translate(1100.53710938 0.421875)" xlink:href="#ArialMT-20"/>
      <use transform="translate(1128.3203125 0.421875)" xlink:href="#ArialMT-6d"/>
      <use transform="translate(1211.62109375 0.421875)" xlink:href="#ArialMT-61"/>
      <use transform="translate(1267.23632812 0.421875)" xlink:href="#ArialMT-74"/>
      <use transform="translate(1295.01953125 0.421875)" xlink:href="#ArialMT-75"/>
      <use transform="translate(1350.63476562 0.421875)" xlink:href="#ArialMT-72"/>
      <use transform="translate(1383.93554688 0.421875)" xlink:href="#ArialMT-69"/>
      <use transform="translate(1406.15234375 0.421875)" xlink:href="#ArialMT-74"/>
      <use transform="translate(1433.93554688 0.421875)" xlink:href="#ArialMT-79"/>
      <use transform="translate(1483.93554688 0.421875)" xlink:href="#ArialMT-20"/>
      <use transform="translate(1511.71875 0.421875)" xlink:href="#ArialMT-2d"/>
      <use transform="translate(1545.01953125 0.421875)" xlink:href="#ArialMT-20"/>
      <use transform="translate(1572.80273438 0.421875)" xlink:href="#Cmmi10-53"/>
      <use transform="translate(1634.08203125 -16.584375)scale(0.7)" xlink:href="#Cmmi10-54"/>
     </g>
    </g>
   </g>
   <g id="matplotlib.axis_2">
    <g id="ytick_1">
     <g id="line2d_16">
      <path clip-path="url(#p68989528fd)" d="M 54 252 
L 388.8 252 
" style="fill:none;stroke:#ffffff;stroke-linecap:round;"/>
     </g>
     <g id="line2d_17">
      <g>
       <use style="fill:#262626;stroke:#262626;" x="54.0" xlink:href="#maf743f40cd" y="252.0"/>
      </g>
     </g>
     <g id="line2d_18">
      <g>
       <use style="fill:#262626;stroke:#262626;" x="388.8" xlink:href="#maf743f40cd" y="252.0"/>
      </g>
     </g>
     <g id="text_7">
      <!-- −10 -->
      <defs>
       <path d="M 52.828125 31.203125 
L 5.5625 31.203125 
L 5.5625 39.40625 
L 52.828125 39.40625 
z
" id="ArialMT-2212"/>
      </defs>
      <g style="fill:#262626;" transform="translate(30.0375 254.58515625)scale(0.1 -0.1)">
       <use xlink:href="#ArialMT-2212"/>
       <use x="58.3984375" xlink:href="#ArialMT-31"/>
       <use x="114.013671875" xlink:href="#ArialMT-30"/>
      </g>
     </g>
    </g>
    <g id="ytick_2">
     <g id="line2d_19">
      <path clip-path="url(#p68989528fd)" d="M 54 196.2 
L 388.8 196.2 
" style="fill:none;stroke:#ffffff;stroke-linecap:round;"/>
     </g>
     <g id="line2d_20">
      <g>
       <use style="fill:#262626;stroke:#262626;" x="54.0" xlink:href="#maf743f40cd" y="196.2"/>
      </g>
     </g>
     <g id="line2d_21">
      <g>
       <use style="fill:#262626;stroke:#262626;" x="388.8" xlink:href="#maf743f40cd" y="196.2"/>
      </g>
     </g>
     <g id="text_8">
      <!-- −5 -->
      <g style="fill:#262626;" transform="translate(35.5984375 198.78515625)scale(0.1 -0.1)">
       <use xlink:href="#ArialMT-2212"/>
       <use x="58.3984375" xlink:href="#ArialMT-35"/>
      </g>
     </g>
    </g>
    <g id="ytick_3">
     <g id="line2d_22">
      <path clip-path="url(#p68989528fd)" d="M 54 140.4 
L 388.8 140.4 
" style="fill:none;stroke:#ffffff;stroke-linecap:round;"/>
     </g>
     <g id="line2d_23">
      <g>
       <use style="fill:#262626;stroke:#262626;" x="54.0" xlink:href="#maf743f40cd" y="140.4"/>
      </g>
     </g>
     <g id="line2d_24">
      <g>
       <use style="fill:#262626;stroke:#262626;" x="388.8" xlink:href="#maf743f40cd" y="140.4"/>
      </g>
     </g>
     <g id="text_9">
      <!-- 0 -->
      <g style="fill:#262626;" transform="translate(41.4390625 142.98515625)scale(0.1 -0.1)">
       <use xlink:href="#ArialMT-30"/>
      </g>
     </g>
    </g>
    <g id="ytick_4">
     <g id="line2d_25">
      <path clip-path="url(#p68989528fd)" d="M 54 84.6 
L 388.8 84.6 
" style="fill:none;stroke:#ffffff;stroke-linecap:round;"/>
     </g>
     <g id="line2d_26">
      <g>
       <use style="fill:#262626;stroke:#262626;" x="54.0" xlink:href="#maf743f40cd" y="84.6"/>
      </g>
     </g>
     <g id="line2d_27">
      <g>
       <use style="fill:#262626;stroke:#262626;" x="388.8" xlink:href="#maf743f40cd" y="84.6"/>
      </g>
     </g>
     <g id="text_10">
      <!-- 5 -->
      <g style="fill:#262626;" transform="translate(41.4390625 87.18515625)scale(0.1 -0.1)">
       <use xlink:href="#ArialMT-35"/>
      </g>
     </g>
    </g>
    <g id="ytick_5">
     <g id="line2d_28">
      <path clip-path="url(#p68989528fd)" d="M 54 28.8 
L 388.8 28.8 
" style="fill:none;stroke:#ffffff;stroke-linecap:round;"/>
     </g>
     <g id="line2d_29">
      <g>
       <use style="fill:#262626;stroke:#262626;" x="54.0" xlink:href="#maf743f40cd" y="28.8"/>
      </g>
     </g>
     <g id="line2d_30">
      <g>
       <use style="fill:#262626;stroke:#262626;" x="388.8" xlink:href="#maf743f40cd" y="28.8"/>
      </g>
     </g>
     <g id="text_11">
      <!-- 10 -->
      <g style="fill:#262626;" transform="translate(35.878125 31.38515625)scale(0.1 -0.1)">
       <use xlink:href="#ArialMT-31"/>
       <use x="55.615234375" xlink:href="#ArialMT-30"/>
      </g>
     </g>
    </g>
    <g id="text_12">
     <!-- Payoff at maturity - $V_T$ -->
     <defs>
      <path d="M 7.71875 0 
L 7.71875 71.578125 
L 34.71875 71.578125 
Q 41.84375 71.578125 45.609375 70.90625 
Q 50.875 70.015625 54.4375 67.546875 
Q 58.015625 65.09375 60.1875 60.640625 
Q 62.359375 56.203125 62.359375 50.875 
Q 62.359375 41.75 56.546875 35.421875 
Q 50.734375 29.109375 35.546875 29.109375 
L 17.1875 29.109375 
L 17.1875 0 
z
M 17.1875 37.546875 
L 35.6875 37.546875 
Q 44.875 37.546875 48.734375 40.96875 
Q 52.59375 44.390625 52.59375 50.59375 
Q 52.59375 55.078125 50.3125 58.265625 
Q 48.046875 61.46875 44.34375 62.5 
Q 41.9375 63.140625 35.5 63.140625 
L 17.1875 63.140625 
z
" id="ArialMT-50"/>
      <path d="M 3.328125 25.921875 
Q 3.328125 40.328125 11.328125 47.265625 
Q 18.015625 53.03125 27.640625 53.03125 
Q 38.328125 53.03125 45.109375 46.015625 
Q 51.90625 39.015625 51.90625 26.65625 
Q 51.90625 16.65625 48.90625 10.90625 
Q 45.90625 5.171875 40.15625 2 
Q 34.421875 -1.171875 27.640625 -1.171875 
Q 16.75 -1.171875 10.03125 5.8125 
Q 3.328125 12.796875 3.328125 25.921875 
M 12.359375 25.921875 
Q 12.359375 15.96875 16.703125 11.015625 
Q 21.046875 6.0625 27.640625 6.0625 
Q 34.1875 6.0625 38.53125 11.03125 
Q 42.875 16.015625 42.875 26.21875 
Q 42.875 35.84375 38.5 40.796875 
Q 34.125 45.75 27.640625 45.75 
Q 21.046875 45.75 16.703125 40.8125 
Q 12.359375 35.890625 12.359375 25.921875 
" id="ArialMT-6f"/>
      <path d="M 22.015625 -1.125 
L 14.015625 62.59375 
Q 13.28125 64.796875 6.5 64.796875 
Q 5.515625 64.796875 5.515625 66.109375 
Q 5.71875 67.1875 6 67.75 
Q 6.296875 68.3125 7.171875 68.3125 
L 31.59375 68.3125 
Q 32.125 68.3125 32.375 67.921875 
Q 32.625 67.53125 32.625 67 
Q 32.234375 64.796875 31.296875 64.796875 
Q 23.484375 64.796875 23 62.109375 
L 29.59375 9.8125 
L 60.40625 58.984375 
Q 61.28125 60.640625 61.28125 61.625 
Q 61.28125 63.375 59.6875 64.078125 
Q 58.109375 64.796875 56 64.796875 
Q 54.984375 64.796875 54.984375 66.109375 
Q 55.171875 66.890625 55.3125 67.328125 
Q 55.46875 67.78125 55.765625 68.046875 
Q 56.0625 68.3125 56.6875 68.3125 
L 75.984375 68.3125 
Q 76.90625 68.3125 76.90625 67 
Q 76.515625 64.796875 75.59375 64.796875 
Q 68.0625 64.796875 63.8125 58.203125 
Q 63.625 58.015625 63.484375 58.015625 
L 26.609375 -1.125 
Q 25.875 -2.203125 24.703125 -2.203125 
L 23.296875 -2.203125 
Q 22.171875 -2.203125 22.015625 -1.125 
" id="Cmmi10-56"/>
      <path d="M 8.6875 0 
L 8.6875 45.015625 
L 0.921875 45.015625 
L 0.921875 51.859375 
L 8.6875 51.859375 
L 8.6875 57.375 
Q 8.6875 62.59375 9.625 65.140625 
Q 10.890625 68.5625 14.078125 70.671875 
Q 17.28125 72.796875 23.046875 72.796875 
Q 26.765625 72.796875 31.25 71.921875 
L 29.9375 64.265625 
Q 27.203125 64.75 24.75 64.75 
Q 20.75 64.75 19.09375 63.03125 
Q 17.4375 61.328125 17.4375 56.640625 
L 17.4375 51.859375 
L 27.546875 51.859375 
L 27.546875 45.015625 
L 17.4375 45.015625 
L 17.4375 0 
z
" id="ArialMT-66"/>
     </defs>
     <g style="fill:#262626;" transform="translate(21.9575 208.51)rotate(-90.0)scale(0.14 -0.14)">
      <use transform="translate(0.0 0.203125)" xlink:href="#ArialMT-50"/>
      <use transform="translate(66.69921875 0.203125)" xlink:href="#ArialMT-61"/>
      <use transform="translate(122.314453125 0.203125)" xlink:href="#ArialMT-79"/>
      <use transform="translate(172.314453125 0.203125)" xlink:href="#ArialMT-6f"/>
      <use transform="translate(227.9296875 0.203125)" xlink:href="#ArialMT-66"/>
      <use transform="translate(255.712890625 0.203125)" xlink:href="#ArialMT-66"/>
      <use transform="translate(283.49609375 0.203125)" xlink:href="#ArialMT-20"/>
      <use transform="translate(311.279296875 0.203125)" xlink:href="#ArialMT-61"/>
      <use transform="translate(366.89453125 0.203125)" xlink:href="#ArialMT-74"/>
      <use transform="translate(394.677734375 0.203125)" xlink:href="#ArialMT-20"/>
      <use transform="translate(422.4609375 0.203125)" xlink:href="#ArialMT-6d"/>
      <use transform="translate(505.76171875 0.203125)" xlink:href="#ArialMT-61"/>
      <use transform="translate(561.376953125 0.203125)" xlink:href="#ArialMT-74"/>
      <use transform="translate(589.16015625 0.203125)" xlink:href="#ArialMT-75"/>
      <use transform="translate(644.775390625 0.203125)" xlink:href="#ArialMT-72"/>
      <use transform="translate(678.076171875 0.203125)" xlink:href="#ArialMT-69"/>
      <use transform="translate(700.29296875 0.203125)" xlink:href="#ArialMT-74"/>
      <use transform="translate(728.076171875 0.203125)" xlink:href="#ArialMT-79"/>
      <use transform="translate(778.076171875 0.203125)" xlink:href="#ArialMT-20"/>
      <use transform="translate(805.859375 0.203125)" xlink:href="#ArialMT-2d"/>
      <use transform="translate(839.16015625 0.203125)" xlink:href="#ArialMT-20"/>
      <use transform="translate(866.943359375 0.203125)" xlink:href="#Cmmi10-56"/>
      <use transform="translate(925.244140625 -16.803125)scale(0.7)" xlink:href="#Cmmi10-54"/>
     </g>
    </g>
   </g>
   <g id="line2d_31">
    <path clip-path="url(#p68989528fd)" d="M 54 140.4 
L 57.381818 140.4 
L 60.763636 140.4 
L 64.145455 140.4 
L 67.527273 140.4 
L 70.909091 140.4 
L 74.290909 140.4 
L 77.672727 140.4 
L 81.054545 140.4 
L 84.436364 140.4 
L 87.818182 140.4 
L 91.2 140.4 
L 94.581818 140.4 
L 97.963636 140.4 
L 101.345455 140.4 
L 104.727273 140.4 
L 108.109091 140.4 
L 111.490909 140.4 
L 114.872727 140.4 
L 118.254545 140.4 
L 121.636364 140.4 
L 125.018182 140.4 
L 128.4 140.4 
L 131.781818 140.4 
L 135.163636 140.4 
L 138.545455 140.4 
L 141.927273 140.4 
L 145.309091 140.4 
L 148.690909 140.4 
L 152.072727 140.4 
L 155.454545 140.4 
L 158.836364 140.4 
L 162.218182 140.4 
L 165.6 140.4 
L 168.981818 140.4 
L 172.363636 140.4 
L 175.745455 140.4 
L 179.127273 140.4 
L 182.509091 140.4 
L 185.890909 140.4 
L 189.272727 140.4 
L 192.654545 140.4 
L 196.036364 140.4 
L 199.418182 140.4 
L 202.8 140.4 
L 206.181818 140.4 
L 209.563636 140.4 
L 212.945455 140.4 
L 216.327273 140.4 
L 219.709091 140.4 
L 223.090909 139.272727 
L 226.472727 137.018182 
L 229.854545 134.763636 
L 233.236364 132.509091 
L 236.618182 130.254545 
L 240 128 
L 243.381818 125.745455 
L 246.763636 123.490909 
L 250.145455 121.236364 
L 253.527273 118.981818 
L 256.909091 116.727273 
L 260.290909 114.472727 
L 263.672727 112.218182 
L 267.054545 109.963636 
L 270.436364 107.709091 
L 273.818182 105.454545 
L 277.2 103.2 
L 280.581818 100.945455 
L 283.963636 98.690909 
L 287.345455 96.436364 
L 290.727273 94.181818 
L 294.109091 91.927273 
L 297.490909 89.672727 
L 300.872727 87.418182 
L 304.254545 85.163636 
L 307.636364 82.909091 
L 311.018182 80.654545 
L 314.4 78.4 
L 317.781818 76.145455 
L 321.163636 73.890909 
L 324.545455 71.636364 
L 327.927273 69.381818 
L 331.309091 67.127273 
L 334.690909 64.872727 
L 338.072727 62.618182 
L 341.454545 60.363636 
L 344.836364 58.109091 
L 348.218182 55.854545 
L 351.6 53.6 
L 354.981818 51.345455 
L 358.363636 49.090909 
L 361.745455 46.836364 
L 365.127273 44.581818 
L 368.509091 42.327273 
L 371.890909 40.072727 
L 375.272727 37.818182 
L 378.654545 35.563636 
L 382.036364 33.309091 
L 385.418182 31.054545 
L 388.8 28.8 
" style="fill:none;stroke:#4c72b0;stroke-linecap:round;stroke-width:3.0;"/>
   </g>
   <g id="line2d_32">
    <path clip-path="url(#p68989528fd)" d="M 54 252 
L 57.381818 249.745455 
L 60.763636 247.490909 
L 64.145455 245.236364 
L 67.527273 242.981818 
L 70.909091 240.727273 
L 74.290909 238.472727 
L 77.672727 236.218182 
L 81.054545 233.963636 
L 84.436364 231.709091 
L 87.818182 229.454545 
L 91.2 227.2 
L 94.581818 224.945455 
L 97.963636 222.690909 
L 101.345455 220.436364 
L 104.727273 218.181818 
L 108.109091 215.927273 
L 111.490909 213.672727 
L 114.872727 211.418182 
L 118.254545 209.163636 
L 121.636364 206.909091 
L 125.018182 204.654545 
L 128.4 202.4 
L 131.781818 200.145455 
L 135.163636 197.890909 
L 138.545455 195.636364 
L 141.927273 193.381818 
L 145.309091 191.127273 
L 148.690909 188.872727 
L 152.072727 186.618182 
L 155.454545 184.363636 
L 158.836364 182.109091 
L 162.218182 179.854545 
L 165.6 177.6 
L 168.981818 175.345455 
L 172.363636 173.090909 
L 175.745455 170.836364 
L 179.127273 168.581818 
L 182.509091 166.327273 
L 185.890909 164.072727 
L 189.272727 161.818182 
L 192.654545 159.563636 
L 196.036364 157.309091 
L 199.418182 155.054545 
L 202.8 152.8 
L 206.181818 150.545455 
L 209.563636 148.290909 
L 212.945455 146.036364 
L 216.327273 143.781818 
L 219.709091 141.527273 
L 223.090909 139.272727 
L 226.472727 137.018182 
L 229.854545 134.763636 
L 233.236364 132.509091 
L 236.618182 130.254545 
L 240 128 
L 243.381818 125.745455 
L 246.763636 123.490909 
L 250.145455 121.236364 
L 253.527273 118.981818 
L 256.909091 116.727273 
L 260.290909 114.472727 
L 263.672727 112.218182 
L 267.054545 109.963636 
L 270.436364 107.709091 
L 273.818182 105.454545 
L 277.2 103.2 
L 280.581818 100.945455 
L 283.963636 98.690909 
L 287.345455 96.436364 
L 290.727273 94.181818 
L 294.109091 91.927273 
L 297.490909 89.672727 
L 300.872727 87.418182 
L 304.254545 85.163636 
L 307.636364 82.909091 
L 311.018182 80.654545 
L 314.4 78.4 
L 317.781818 76.145455 
L 321.163636 73.890909 
L 324.545455 71.636364 
L 327.927273 69.381818 
L 331.309091 67.127273 
L 334.690909 64.872727 
L 338.072727 62.618182 
L 341.454545 60.363636 
L 344.836364 58.109091 
L 348.218182 55.854545 
L 351.6 53.6 
L 354.981818 51.345455 
L 358.363636 49.090909 
L 361.745455 46.836364 
L 365.127273 44.581818 
L 368.509091 42.327273 
L 371.890909 40.072727 
L 375.272727 37.818182 
L 378.654545 35.563636 
L 382.036364 33.309091 
L 385.418182 31.054545 
L 388.8 28.8 
" style="fill:none;stroke:#55a868;stroke-dasharray:6.000000,6.000000;stroke-dashoffset:0.0;stroke-width:3.0;"/>
   </g>
   <g id="line2d_33">
    <path clip-path="url(#p68989528fd)" d="M 54 28.8 
L 57.381818 31.054545 
L 60.763636 33.309091 
L 64.145455 35.563636 
L 67.527273 37.818182 
L 70.909091 40.072727 
L 74.290909 42.327273 
L 77.672727 44.581818 
L 81.054545 46.836364 
L 84.436364 49.090909 
L 87.818182 51.345455 
L 91.2 53.6 
L 94.581818 55.854545 
L 97.963636 58.109091 
L 101.345455 60.363636 
L 104.727273 62.618182 
L 108.109091 64.872727 
L 111.490909 67.127273 
L 114.872727 69.381818 
L 118.254545 71.636364 
L 121.636364 73.890909 
L 125.018182 76.145455 
L 128.4 78.4 
L 131.781818 80.654545 
L 135.163636 82.909091 
L 138.545455 85.163636 
L 141.927273 87.418182 
L 145.309091 89.672727 
L 148.690909 91.927273 
L 152.072727 94.181818 
L 155.454545 96.436364 
L 158.836364 98.690909 
L 162.218182 100.945455 
L 165.6 103.2 
L 168.981818 105.454545 
L 172.363636 107.709091 
L 175.745455 109.963636 
L 179.127273 112.218182 
L 182.509091 114.472727 
L 185.890909 116.727273 
L 189.272727 118.981818 
L 192.654545 121.236364 
L 196.036364 123.490909 
L 199.418182 125.745455 
L 202.8 128 
L 206.181818 130.254545 
L 209.563636 132.509091 
L 212.945455 134.763636 
L 216.327273 137.018182 
L 219.709091 139.272727 
L 223.090909 140.4 
L 226.472727 140.4 
L 229.854545 140.4 
L 233.236364 140.4 
L 236.618182 140.4 
L 240 140.4 
L 243.381818 140.4 
L 246.763636 140.4 
L 250.145455 140.4 
L 253.527273 140.4 
L 256.909091 140.4 
L 260.290909 140.4 
L 263.672727 140.4 
L 267.054545 140.4 
L 270.436364 140.4 
L 273.818182 140.4 
L 277.2 140.4 
L 280.581818 140.4 
L 283.963636 140.4 
L 287.345455 140.4 
L 290.727273 140.4 
L 294.109091 140.4 
L 297.490909 140.4 
L 300.872727 140.4 
L 304.254545 140.4 
L 307.636364 140.4 
L 311.018182 140.4 
L 314.4 140.4 
L 317.781818 140.4 
L 321.163636 140.4 
L 324.545455 140.4 
L 327.927273 140.4 
L 331.309091 140.4 
L 334.690909 140.4 
L 338.072727 140.4 
L 341.454545 140.4 
L 344.836364 140.4 
L 348.218182 140.4 
L 351.6 140.4 
L 354.981818 140.4 
L 358.363636 140.4 
L 361.745455 140.4 
L 365.127273 140.4 
L 368.509091 140.4 
L 371.890909 140.4 
L 375.272727 140.4 
L 378.654545 140.4 
L 382.036364 140.4 
L 385.418182 140.4 
L 388.8 140.4 
" style="fill:none;stroke:#c44e52;stroke-linecap:round;stroke-width:3.0;"/>
   </g>
   <g id="patch_3">
    <path d="M 54 28.8 
L 388.8 28.8 
" style="fill:none;"/>
   </g>
   <g id="patch_4">
    <path d="M 388.8 252 
L 388.8 28.8 
" style="fill:none;"/>
   </g>
   <g id="patch_5">
    <path d="M 54 252 
L 388.8 252 
" style="fill:none;"/>
   </g>
   <g id="patch_6">
    <path d="M 54 252 
L 54 28.8 
" style="fill:none;"/>
   </g>
  </g>
 </g>
 <defs>
  <clipPath id="p68989528fd">
   <rect height="223.2" width="334.8" x="54.0" y="28.8"/>
  </clipPath>
 </defs>
</svg>
