<?xml version="1.0" encoding="utf-8" standalone="no"?>
<!DOCTYPE svg PUBLIC "-//W3C//DTD SVG 1.1//EN"
  "http://www.w3.org/Graphics/SVG/1.1/DTD/svg11.dtd">
<!-- Created with matplotlib (http://matplotlib.org/) -->
<svg height="288pt" version="1.1" viewBox="0 0 432 288" width="432pt" xmlns="http://www.w3.org/2000/svg" xmlns:xlink="http://www.w3.org/1999/xlink">
 <defs>
  <style type="text/css">
*{stroke-linecap:butt;stroke-linejoin:round;stroke-miterlimit:100000;}
  </style>
 </defs>
 <g id="figure_1">
  <g id="patch_1">
   <path d="M 0 288 
L 432 288 
L 432 0 
L 0 0 
z
" style="fill:#ffffff;"/>
  </g>
  <g id="axes_1">
   <g id="patch_2">
    <path d="M 50.3625 242.7 
L 390.075 242.7 
L 390.075 15.3 
L 50.3625 15.3 
z
" style="fill:#eaeaf2;"/>
   </g>
   <g id="matplotlib.axis_1">
    <g id="xtick_1">
     <g id="line2d_1">
      <path clip-path="url(#pb72f543cf2)" d="M 50.3625 242.7 
L 50.3625 15.3 
" style="fill:none;stroke:#ffffff;stroke-linecap:round;"/>
     </g>
     <g id="line2d_2">
      <defs>
       <path d="M 0 0 
L 0 0 
" id="m9ac339add9" style="stroke:#262626;"/>
      </defs>
      <g>
       <use style="fill:#262626;stroke:#262626;" x="50.3625" xlink:href="#m9ac339add9" y="242.7"/>
      </g>
     </g>
     <g id="line2d_3">
      <g>
       <use style="fill:#262626;stroke:#262626;" x="50.3625" xlink:href="#m9ac339add9" y="15.3"/>
      </g>
     </g>
     <g id="text_1">
      <!-- 1.0 -->
      <defs>
       <path d="M 4.15625 35.296875 
Q 4.15625 48 6.765625 55.734375 
Q 9.375 63.484375 14.515625 67.671875 
Q 19.671875 71.875 27.484375 71.875 
Q 33.25 71.875 37.59375 69.546875 
Q 41.9375 67.234375 44.765625 62.859375 
Q 47.609375 58.5 49.21875 52.21875 
Q 50.828125 45.953125 50.828125 35.296875 
Q 50.828125 22.703125 48.234375 14.96875 
Q 45.65625 7.234375 40.5 3 
Q 35.359375 -1.21875 27.484375 -1.21875 
Q 17.140625 -1.21875 11.234375 6.203125 
Q 4.15625 15.140625 4.15625 35.296875 
M 13.1875 35.296875 
Q 13.1875 17.671875 17.3125 11.828125 
Q 21.4375 6 27.484375 6 
Q 33.546875 6 37.671875 11.859375 
Q 41.796875 17.71875 41.796875 35.296875 
Q 41.796875 52.984375 37.671875 58.78125 
Q 33.546875 64.59375 27.390625 64.59375 
Q 21.34375 64.59375 17.71875 59.46875 
Q 13.1875 52.9375 13.1875 35.296875 
" id="ArialMT-30"/>
       <path d="M 37.25 0 
L 28.46875 0 
L 28.46875 56 
Q 25.296875 52.984375 20.140625 49.953125 
Q 14.984375 46.921875 10.890625 45.40625 
L 10.890625 53.90625 
Q 18.265625 57.375 23.78125 62.296875 
Q 29.296875 67.234375 31.59375 71.875 
L 37.25 71.875 
z
" id="ArialMT-31"/>
       <path d="M 9.078125 0 
L 9.078125 10.015625 
L 19.09375 10.015625 
L 19.09375 0 
z
" id="ArialMT-2e"/>
      </defs>
      <g style="fill:#262626;" transform="translate(43.4125 256.8578125)scale(0.1 -0.1)">
       <use xlink:href="#ArialMT-31"/>
       <use x="55.615234375" xlink:href="#ArialMT-2e"/>
       <use x="83.3984375" xlink:href="#ArialMT-30"/>
      </g>
     </g>
    </g>
    <g id="xtick_2">
     <g id="line2d_4">
      <path clip-path="url(#pb72f543cf2)" d="M 91.790854 242.7 
L 91.790854 15.3 
" style="fill:none;stroke:#ffffff;stroke-linecap:round;"/>
     </g>
     <g id="line2d_5">
      <g>
       <use style="fill:#262626;stroke:#262626;" x="91.7908536585" xlink:href="#m9ac339add9" y="242.7"/>
      </g>
     </g>
     <g id="line2d_6">
      <g>
       <use style="fill:#262626;stroke:#262626;" x="91.7908536585" xlink:href="#m9ac339add9" y="15.3"/>
      </g>
     </g>
     <g id="text_2">
      <!-- 1.5 -->
      <defs>
       <path d="M 4.15625 18.75 
L 13.375 19.53125 
Q 14.40625 12.796875 18.140625 9.390625 
Q 21.875 6 27.15625 6 
Q 33.5 6 37.890625 10.78125 
Q 42.28125 15.578125 42.28125 23.484375 
Q 42.28125 31 38.0625 35.34375 
Q 33.84375 39.703125 27 39.703125 
Q 22.75 39.703125 19.328125 37.765625 
Q 15.921875 35.84375 13.96875 32.765625 
L 5.71875 33.84375 
L 12.640625 70.609375 
L 48.25 70.609375 
L 48.25 62.203125 
L 19.671875 62.203125 
L 15.828125 42.96875 
Q 22.265625 47.46875 29.34375 47.46875 
Q 38.71875 47.46875 45.15625 40.96875 
Q 51.609375 34.46875 51.609375 24.265625 
Q 51.609375 14.546875 45.953125 7.46875 
Q 39.0625 -1.21875 27.15625 -1.21875 
Q 17.390625 -1.21875 11.203125 4.25 
Q 5.03125 9.71875 4.15625 18.75 
" id="ArialMT-35"/>
      </defs>
      <g style="fill:#262626;" transform="translate(84.8408536585 256.8578125)scale(0.1 -0.1)">
       <use xlink:href="#ArialMT-31"/>
       <use x="55.615234375" xlink:href="#ArialMT-2e"/>
       <use x="83.3984375" xlink:href="#ArialMT-35"/>
      </g>
     </g>
    </g>
    <g id="xtick_3">
     <g id="line2d_7">
      <path clip-path="url(#pb72f543cf2)" d="M 133.219207 242.7 
L 133.219207 15.3 
" style="fill:none;stroke:#ffffff;stroke-linecap:round;"/>
     </g>
     <g id="line2d_8">
      <g>
       <use style="fill:#262626;stroke:#262626;" x="133.219207317" xlink:href="#m9ac339add9" y="242.7"/>
      </g>
     </g>
     <g id="line2d_9">
      <g>
       <use style="fill:#262626;stroke:#262626;" x="133.219207317" xlink:href="#m9ac339add9" y="15.3"/>
      </g>
     </g>
     <g id="text_3">
      <!-- 2.0 -->
      <defs>
       <path d="M 50.34375 8.453125 
L 50.34375 0 
L 3.03125 0 
Q 2.9375 3.171875 4.046875 6.109375 
Q 5.859375 10.9375 9.828125 15.625 
Q 13.8125 20.3125 21.34375 26.46875 
Q 33.015625 36.03125 37.109375 41.625 
Q 41.21875 47.21875 41.21875 52.203125 
Q 41.21875 57.421875 37.46875 61 
Q 33.734375 64.59375 27.734375 64.59375 
Q 21.390625 64.59375 17.578125 60.78125 
Q 13.765625 56.984375 13.71875 50.25 
L 4.6875 51.171875 
Q 5.609375 61.28125 11.65625 66.578125 
Q 17.71875 71.875 27.9375 71.875 
Q 38.234375 71.875 44.234375 66.15625 
Q 50.25 60.453125 50.25 52 
Q 50.25 47.703125 48.484375 43.546875 
Q 46.734375 39.40625 42.65625 34.8125 
Q 38.578125 30.21875 29.109375 22.21875 
Q 21.1875 15.578125 18.9375 13.203125 
Q 16.703125 10.84375 15.234375 8.453125 
z
" id="ArialMT-32"/>
      </defs>
      <g style="fill:#262626;" transform="translate(126.269207317 256.8578125)scale(0.1 -0.1)">
       <use xlink:href="#ArialMT-32"/>
       <use x="55.615234375" xlink:href="#ArialMT-2e"/>
       <use x="83.3984375" xlink:href="#ArialMT-30"/>
      </g>
     </g>
    </g>
    <g id="xtick_4">
     <g id="line2d_10">
      <path clip-path="url(#pb72f543cf2)" d="M 174.647561 242.7 
L 174.647561 15.3 
" style="fill:none;stroke:#ffffff;stroke-linecap:round;"/>
     </g>
     <g id="line2d_11">
      <g>
       <use style="fill:#262626;stroke:#262626;" x="174.647560976" xlink:href="#m9ac339add9" y="242.7"/>
      </g>
     </g>
     <g id="line2d_12">
      <g>
       <use style="fill:#262626;stroke:#262626;" x="174.647560976" xlink:href="#m9ac339add9" y="15.3"/>
      </g>
     </g>
     <g id="text_4">
      <!-- 2.5 -->
      <g style="fill:#262626;" transform="translate(167.697560976 256.8578125)scale(0.1 -0.1)">
       <use xlink:href="#ArialMT-32"/>
       <use x="55.615234375" xlink:href="#ArialMT-2e"/>
       <use x="83.3984375" xlink:href="#ArialMT-35"/>
      </g>
     </g>
    </g>
    <g id="xtick_5">
     <g id="line2d_13">
      <path clip-path="url(#pb72f543cf2)" d="M 216.075915 242.7 
L 216.075915 15.3 
" style="fill:none;stroke:#ffffff;stroke-linecap:round;"/>
     </g>
     <g id="line2d_14">
      <g>
       <use style="fill:#262626;stroke:#262626;" x="216.075914634" xlink:href="#m9ac339add9" y="242.7"/>
      </g>
     </g>
     <g id="line2d_15">
      <g>
       <use style="fill:#262626;stroke:#262626;" x="216.075914634" xlink:href="#m9ac339add9" y="15.3"/>
      </g>
     </g>
     <g id="text_5">
      <!-- 3.0 -->
      <defs>
       <path d="M 4.203125 18.890625 
L 12.984375 20.0625 
Q 14.5 12.59375 18.140625 9.296875 
Q 21.78125 6 27 6 
Q 33.203125 6 37.46875 10.296875 
Q 41.75 14.59375 41.75 20.953125 
Q 41.75 27 37.796875 30.921875 
Q 33.84375 34.859375 27.734375 34.859375 
Q 25.25 34.859375 21.53125 33.890625 
L 22.515625 41.609375 
Q 23.390625 41.5 23.921875 41.5 
Q 29.546875 41.5 34.03125 44.421875 
Q 38.53125 47.359375 38.53125 53.46875 
Q 38.53125 58.296875 35.25 61.46875 
Q 31.984375 64.65625 26.8125 64.65625 
Q 21.6875 64.65625 18.265625 61.421875 
Q 14.84375 58.203125 13.875 51.765625 
L 5.078125 53.328125 
Q 6.6875 62.15625 12.390625 67.015625 
Q 18.109375 71.875 26.609375 71.875 
Q 32.46875 71.875 37.390625 69.359375 
Q 42.328125 66.84375 44.9375 62.5 
Q 47.5625 58.15625 47.5625 53.265625 
Q 47.5625 48.640625 45.0625 44.828125 
Q 42.578125 41.015625 37.703125 38.765625 
Q 44.046875 37.3125 47.5625 32.6875 
Q 51.078125 28.078125 51.078125 21.140625 
Q 51.078125 11.765625 44.234375 5.25 
Q 37.40625 -1.265625 26.953125 -1.265625 
Q 17.53125 -1.265625 11.296875 4.34375 
Q 5.078125 9.96875 4.203125 18.890625 
" id="ArialMT-33"/>
      </defs>
      <g style="fill:#262626;" transform="translate(209.125914634 256.8578125)scale(0.1 -0.1)">
       <use xlink:href="#ArialMT-33"/>
       <use x="55.615234375" xlink:href="#ArialMT-2e"/>
       <use x="83.3984375" xlink:href="#ArialMT-30"/>
      </g>
     </g>
    </g>
    <g id="xtick_6">
     <g id="line2d_16">
      <path clip-path="url(#pb72f543cf2)" d="M 257.504268 242.7 
L 257.504268 15.3 
" style="fill:none;stroke:#ffffff;stroke-linecap:round;"/>
     </g>
     <g id="line2d_17">
      <g>
       <use style="fill:#262626;stroke:#262626;" x="257.504268293" xlink:href="#m9ac339add9" y="242.7"/>
      </g>
     </g>
     <g id="line2d_18">
      <g>
       <use style="fill:#262626;stroke:#262626;" x="257.504268293" xlink:href="#m9ac339add9" y="15.3"/>
      </g>
     </g>
     <g id="text_6">
      <!-- 3.5 -->
      <g style="fill:#262626;" transform="translate(250.554268293 256.8578125)scale(0.1 -0.1)">
       <use xlink:href="#ArialMT-33"/>
       <use x="55.615234375" xlink:href="#ArialMT-2e"/>
       <use x="83.3984375" xlink:href="#ArialMT-35"/>
      </g>
     </g>
    </g>
    <g id="xtick_7">
     <g id="line2d_19">
      <path clip-path="url(#pb72f543cf2)" d="M 298.932622 242.7 
L 298.932622 15.3 
" style="fill:none;stroke:#ffffff;stroke-linecap:round;"/>
     </g>
     <g id="line2d_20">
      <g>
       <use style="fill:#262626;stroke:#262626;" x="298.932621951" xlink:href="#m9ac339add9" y="242.7"/>
      </g>
     </g>
     <g id="line2d_21">
      <g>
       <use style="fill:#262626;stroke:#262626;" x="298.932621951" xlink:href="#m9ac339add9" y="15.3"/>
      </g>
     </g>
     <g id="text_7">
      <!-- 4.0 -->
      <defs>
       <path d="M 32.328125 0 
L 32.328125 17.140625 
L 1.265625 17.140625 
L 1.265625 25.203125 
L 33.9375 71.578125 
L 41.109375 71.578125 
L 41.109375 25.203125 
L 50.78125 25.203125 
L 50.78125 17.140625 
L 41.109375 17.140625 
L 41.109375 0 
z
M 32.328125 25.203125 
L 32.328125 57.46875 
L 9.90625 25.203125 
z
" id="ArialMT-34"/>
      </defs>
      <g style="fill:#262626;" transform="translate(291.982621951 256.8578125)scale(0.1 -0.1)">
       <use xlink:href="#ArialMT-34"/>
       <use x="55.615234375" xlink:href="#ArialMT-2e"/>
       <use x="83.3984375" xlink:href="#ArialMT-30"/>
      </g>
     </g>
    </g>
    <g id="xtick_8">
     <g id="line2d_22">
      <path clip-path="url(#pb72f543cf2)" d="M 340.360976 242.7 
L 340.360976 15.3 
" style="fill:none;stroke:#ffffff;stroke-linecap:round;"/>
     </g>
     <g id="line2d_23">
      <g>
       <use style="fill:#262626;stroke:#262626;" x="340.36097561" xlink:href="#m9ac339add9" y="242.7"/>
      </g>
     </g>
     <g id="line2d_24">
      <g>
       <use style="fill:#262626;stroke:#262626;" x="340.36097561" xlink:href="#m9ac339add9" y="15.3"/>
      </g>
     </g>
     <g id="text_8">
      <!-- 4.5 -->
      <g style="fill:#262626;" transform="translate(333.41097561 256.8578125)scale(0.1 -0.1)">
       <use xlink:href="#ArialMT-34"/>
       <use x="55.615234375" xlink:href="#ArialMT-2e"/>
       <use x="83.3984375" xlink:href="#ArialMT-35"/>
      </g>
     </g>
    </g>
    <g id="xtick_9">
     <g id="line2d_25">
      <path clip-path="url(#pb72f543cf2)" d="M 381.789329 242.7 
L 381.789329 15.3 
" style="fill:none;stroke:#ffffff;stroke-linecap:round;"/>
     </g>
     <g id="line2d_26">
      <g>
       <use style="fill:#262626;stroke:#262626;" x="381.789329268" xlink:href="#m9ac339add9" y="242.7"/>
      </g>
     </g>
     <g id="line2d_27">
      <g>
       <use style="fill:#262626;stroke:#262626;" x="381.789329268" xlink:href="#m9ac339add9" y="15.3"/>
      </g>
     </g>
     <g id="text_9">
      <!-- 5.0 -->
      <g style="fill:#262626;" transform="translate(374.839329268 256.8578125)scale(0.1 -0.1)">
       <use xlink:href="#ArialMT-35"/>
       <use x="55.615234375" xlink:href="#ArialMT-2e"/>
       <use x="83.3984375" xlink:href="#ArialMT-30"/>
      </g>
     </g>
    </g>
    <g id="text_10">
     <!-- Lifetime of the contract -->
     <defs>
      <path d="M 40.4375 19 
L 49.078125 17.875 
Q 47.65625 8.9375 41.8125 3.875 
Q 35.984375 -1.171875 27.484375 -1.171875 
Q 16.84375 -1.171875 10.375 5.78125 
Q 3.90625 12.75 3.90625 25.734375 
Q 3.90625 34.125 6.6875 40.421875 
Q 9.46875 46.734375 15.15625 49.875 
Q 20.84375 53.03125 27.546875 53.03125 
Q 35.984375 53.03125 41.359375 48.75 
Q 46.734375 44.484375 48.25 36.625 
L 39.703125 35.296875 
Q 38.484375 40.53125 35.375 43.15625 
Q 32.28125 45.796875 27.875 45.796875 
Q 21.234375 45.796875 17.078125 41.03125 
Q 12.9375 36.28125 12.9375 25.984375 
Q 12.9375 15.53125 16.9375 10.796875 
Q 20.953125 6.0625 27.390625 6.0625 
Q 32.5625 6.0625 36.03125 9.234375 
Q 39.5 12.40625 40.4375 19 
" id="ArialMT-63"/>
      <path d="M 40.4375 6.390625 
Q 35.546875 2.25 31.03125 0.53125 
Q 26.515625 -1.171875 21.34375 -1.171875 
Q 12.796875 -1.171875 8.203125 3 
Q 3.609375 7.171875 3.609375 13.671875 
Q 3.609375 17.484375 5.34375 20.625 
Q 7.078125 23.78125 9.890625 25.6875 
Q 12.703125 27.59375 16.21875 28.5625 
Q 18.796875 29.25 24.03125 29.890625 
Q 34.671875 31.15625 39.703125 32.90625 
Q 39.75 34.71875 39.75 35.203125 
Q 39.75 40.578125 37.25 42.78125 
Q 33.890625 45.75 27.25 45.75 
Q 21.046875 45.75 18.09375 43.578125 
Q 15.140625 41.40625 13.71875 35.890625 
L 5.125 37.0625 
Q 6.296875 42.578125 8.984375 45.96875 
Q 11.671875 49.359375 16.75 51.1875 
Q 21.828125 53.03125 28.515625 53.03125 
Q 35.15625 53.03125 39.296875 51.46875 
Q 43.453125 49.90625 45.40625 47.53125 
Q 47.359375 45.171875 48.140625 41.546875 
Q 48.578125 39.3125 48.578125 33.453125 
L 48.578125 21.734375 
Q 48.578125 9.46875 49.140625 6.21875 
Q 49.703125 2.984375 51.375 0 
L 42.1875 0 
Q 40.828125 2.734375 40.4375 6.390625 
M 39.703125 26.03125 
Q 34.90625 24.078125 25.34375 22.703125 
Q 19.921875 21.921875 17.671875 20.9375 
Q 15.4375 19.96875 14.203125 18.09375 
Q 12.984375 16.21875 12.984375 13.921875 
Q 12.984375 10.40625 15.640625 8.0625 
Q 18.3125 5.71875 23.4375 5.71875 
Q 28.515625 5.71875 32.46875 7.9375 
Q 36.421875 10.15625 38.28125 14.015625 
Q 39.703125 17 39.703125 22.796875 
z
" id="ArialMT-61"/>
      <path d="M 8.6875 0 
L 8.6875 45.015625 
L 0.921875 45.015625 
L 0.921875 51.859375 
L 8.6875 51.859375 
L 8.6875 57.375 
Q 8.6875 62.59375 9.625 65.140625 
Q 10.890625 68.5625 14.078125 70.671875 
Q 17.28125 72.796875 23.046875 72.796875 
Q 26.765625 72.796875 31.25 71.921875 
L 29.9375 64.265625 
Q 27.203125 64.75 24.75 64.75 
Q 20.75 64.75 19.09375 63.03125 
Q 17.4375 61.328125 17.4375 56.640625 
L 17.4375 51.859375 
L 27.546875 51.859375 
L 27.546875 45.015625 
L 17.4375 45.015625 
L 17.4375 0 
z
" id="ArialMT-66"/>
      <path d="M 42.09375 16.703125 
L 51.171875 15.578125 
Q 49.03125 7.625 43.21875 3.21875 
Q 37.40625 -1.171875 28.375 -1.171875 
Q 17 -1.171875 10.328125 5.828125 
Q 3.65625 12.84375 3.65625 25.484375 
Q 3.65625 38.578125 10.390625 45.796875 
Q 17.140625 53.03125 27.875 53.03125 
Q 38.28125 53.03125 44.875 45.953125 
Q 51.46875 38.875 51.46875 26.03125 
Q 51.46875 25.25 51.421875 23.6875 
L 12.75 23.6875 
Q 13.234375 15.140625 17.578125 10.59375 
Q 21.921875 6.0625 28.421875 6.0625 
Q 33.25 6.0625 36.671875 8.59375 
Q 40.09375 11.140625 42.09375 16.703125 
M 13.234375 30.90625 
L 42.1875 30.90625 
Q 41.609375 37.453125 38.875 40.71875 
Q 34.671875 45.796875 27.984375 45.796875 
Q 21.921875 45.796875 17.796875 41.75 
Q 13.671875 37.703125 13.234375 30.90625 
" id="ArialMT-65"/>
      <path d="M 25.78125 7.859375 
L 27.046875 0.09375 
Q 23.34375 -0.6875 20.40625 -0.6875 
Q 15.625 -0.6875 12.984375 0.828125 
Q 10.359375 2.34375 9.28125 4.8125 
Q 8.203125 7.28125 8.203125 15.1875 
L 8.203125 45.015625 
L 1.765625 45.015625 
L 1.765625 51.859375 
L 8.203125 51.859375 
L 8.203125 64.703125 
L 16.9375 69.96875 
L 16.9375 51.859375 
L 25.78125 51.859375 
L 25.78125 45.015625 
L 16.9375 45.015625 
L 16.9375 14.703125 
Q 16.9375 10.9375 17.40625 9.859375 
Q 17.875 8.796875 18.921875 8.15625 
Q 19.96875 7.515625 21.921875 7.515625 
Q 23.390625 7.515625 25.78125 7.859375 
" id="ArialMT-74"/>
      <path d="M 6.640625 61.46875 
L 6.640625 71.578125 
L 15.4375 71.578125 
L 15.4375 61.46875 
z
M 6.640625 0 
L 6.640625 51.859375 
L 15.4375 51.859375 
L 15.4375 0 
z
" id="ArialMT-69"/>
      <path d="M 6.59375 0 
L 6.59375 71.578125 
L 15.375 71.578125 
L 15.375 45.90625 
Q 21.53125 53.03125 30.90625 53.03125 
Q 36.671875 53.03125 40.921875 50.75 
Q 45.171875 48.484375 47 44.484375 
Q 48.828125 40.484375 48.828125 32.859375 
L 48.828125 0 
L 40.046875 0 
L 40.046875 32.859375 
Q 40.046875 39.453125 37.1875 42.453125 
Q 34.328125 45.453125 29.109375 45.453125 
Q 25.203125 45.453125 21.75 43.421875 
Q 18.3125 41.40625 16.84375 37.9375 
Q 15.375 34.46875 15.375 28.375 
L 15.375 0 
z
" id="ArialMT-68"/>
      <path d="M 6.5 0 
L 6.5 51.859375 
L 14.40625 51.859375 
L 14.40625 44 
Q 17.4375 49.515625 20 51.265625 
Q 22.5625 53.03125 25.640625 53.03125 
Q 30.078125 53.03125 34.671875 50.203125 
L 31.640625 42.046875 
Q 28.421875 43.953125 25.203125 43.953125 
Q 22.3125 43.953125 20.015625 42.21875 
Q 17.71875 40.484375 16.75 37.40625 
Q 15.28125 32.71875 15.28125 27.15625 
L 15.28125 0 
z
" id="ArialMT-72"/>
      <path d="M 3.328125 25.921875 
Q 3.328125 40.328125 11.328125 47.265625 
Q 18.015625 53.03125 27.640625 53.03125 
Q 38.328125 53.03125 45.109375 46.015625 
Q 51.90625 39.015625 51.90625 26.65625 
Q 51.90625 16.65625 48.90625 10.90625 
Q 45.90625 5.171875 40.15625 2 
Q 34.421875 -1.171875 27.640625 -1.171875 
Q 16.75 -1.171875 10.03125 5.8125 
Q 3.328125 12.796875 3.328125 25.921875 
M 12.359375 25.921875 
Q 12.359375 15.96875 16.703125 11.015625 
Q 21.046875 6.0625 27.640625 6.0625 
Q 34.1875 6.0625 38.53125 11.03125 
Q 42.875 16.015625 42.875 26.21875 
Q 42.875 35.84375 38.5 40.796875 
Q 34.125 45.75 27.640625 45.75 
Q 21.046875 45.75 16.703125 40.8125 
Q 12.359375 35.890625 12.359375 25.921875 
" id="ArialMT-6f"/>
      <path d="M 6.59375 0 
L 6.59375 51.859375 
L 14.5 51.859375 
L 14.5 44.484375 
Q 20.21875 53.03125 31 53.03125 
Q 35.6875 53.03125 39.625 51.34375 
Q 43.5625 49.65625 45.515625 46.921875 
Q 47.46875 44.1875 48.25 40.4375 
Q 48.734375 37.984375 48.734375 31.890625 
L 48.734375 0 
L 39.9375 0 
L 39.9375 31.546875 
Q 39.9375 36.921875 38.90625 39.578125 
Q 37.890625 42.234375 35.28125 43.8125 
Q 32.671875 45.40625 29.15625 45.40625 
Q 23.53125 45.40625 19.453125 41.84375 
Q 15.375 38.28125 15.375 28.328125 
L 15.375 0 
z
" id="ArialMT-6e"/>
      <path d="M 6.59375 0 
L 6.59375 51.859375 
L 14.453125 51.859375 
L 14.453125 44.578125 
Q 16.890625 48.390625 20.9375 50.703125 
Q 25 53.03125 30.171875 53.03125 
Q 35.9375 53.03125 39.625 50.640625 
Q 43.3125 48.25 44.828125 43.953125 
Q 50.984375 53.03125 60.84375 53.03125 
Q 68.5625 53.03125 72.703125 48.75 
Q 76.859375 44.484375 76.859375 35.59375 
L 76.859375 0 
L 68.109375 0 
L 68.109375 32.671875 
Q 68.109375 37.9375 67.25 40.25 
Q 66.40625 42.578125 64.15625 43.984375 
Q 61.921875 45.40625 58.890625 45.40625 
Q 53.421875 45.40625 49.796875 41.765625 
Q 46.1875 38.140625 46.1875 30.125 
L 46.1875 0 
L 37.40625 0 
L 37.40625 33.6875 
Q 37.40625 39.546875 35.25 42.46875 
Q 33.109375 45.40625 28.21875 45.40625 
Q 24.515625 45.40625 21.359375 43.453125 
Q 18.21875 41.5 16.796875 37.734375 
Q 15.375 33.984375 15.375 26.90625 
L 15.375 0 
z
" id="ArialMT-6d"/>
      <path d="M 7.328125 0 
L 7.328125 71.578125 
L 16.796875 71.578125 
L 16.796875 8.453125 
L 52.046875 8.453125 
L 52.046875 0 
z
" id="ArialMT-4c"/>
      <path id="ArialMT-20"/>
     </defs>
     <g style="fill:#262626;" transform="translate(149.41046875 273.86625)scale(0.14 -0.14)">
      <use xlink:href="#ArialMT-4c"/>
      <use x="55.615234375" xlink:href="#ArialMT-69"/>
      <use x="77.83203125" xlink:href="#ArialMT-66"/>
      <use x="105.615234375" xlink:href="#ArialMT-65"/>
      <use x="161.23046875" xlink:href="#ArialMT-74"/>
      <use x="189.013671875" xlink:href="#ArialMT-69"/>
      <use x="211.23046875" xlink:href="#ArialMT-6d"/>
      <use x="294.53125" xlink:href="#ArialMT-65"/>
      <use x="350.146484375" xlink:href="#ArialMT-20"/>
      <use x="377.9296875" xlink:href="#ArialMT-6f"/>
      <use x="433.544921875" xlink:href="#ArialMT-66"/>
      <use x="461.328125" xlink:href="#ArialMT-20"/>
      <use x="489.111328125" xlink:href="#ArialMT-74"/>
      <use x="516.89453125" xlink:href="#ArialMT-68"/>
      <use x="572.509765625" xlink:href="#ArialMT-65"/>
      <use x="628.125" xlink:href="#ArialMT-20"/>
      <use x="655.908203125" xlink:href="#ArialMT-63"/>
      <use x="705.908203125" xlink:href="#ArialMT-6f"/>
      <use x="761.5234375" xlink:href="#ArialMT-6e"/>
      <use x="817.138671875" xlink:href="#ArialMT-74"/>
      <use x="844.921875" xlink:href="#ArialMT-72"/>
      <use x="878.22265625" xlink:href="#ArialMT-61"/>
      <use x="933.837890625" xlink:href="#ArialMT-63"/>
      <use x="983.837890625" xlink:href="#ArialMT-74"/>
     </g>
    </g>
   </g>
   <g id="matplotlib.axis_2">
    <g id="ytick_1">
     <g id="line2d_28">
      <path clip-path="url(#pb72f543cf2)" d="M 50.3625 242.7 
L 390.075 242.7 
" style="fill:none;stroke:#ffffff;stroke-linecap:round;"/>
     </g>
     <g id="line2d_29">
      <g>
       <use style="fill:#262626;stroke:#262626;" x="50.3625" xlink:href="#m9ac339add9" y="242.7"/>
      </g>
     </g>
     <g id="text_11">
      <!-- 0.4 -->
      <g style="fill:#262626;" transform="translate(29.4625 245.28515625)scale(0.1 -0.1)">
       <use xlink:href="#ArialMT-30"/>
       <use x="55.615234375" xlink:href="#ArialMT-2e"/>
       <use x="83.3984375" xlink:href="#ArialMT-34"/>
      </g>
     </g>
    </g>
    <g id="ytick_2">
     <g id="line2d_30">
      <path clip-path="url(#pb72f543cf2)" d="M 50.3625 214.275 
L 390.075 214.275 
" style="fill:none;stroke:#ffffff;stroke-linecap:round;"/>
     </g>
     <g id="line2d_31">
      <g>
       <use style="fill:#262626;stroke:#262626;" x="50.3625" xlink:href="#m9ac339add9" y="214.275"/>
      </g>
     </g>
     <g id="text_12">
      <!-- 0.6 -->
      <defs>
       <path d="M 49.75 54.046875 
L 41.015625 53.375 
Q 39.84375 58.546875 37.703125 60.890625 
Q 34.125 64.65625 28.90625 64.65625 
Q 24.703125 64.65625 21.53125 62.3125 
Q 17.390625 59.28125 14.984375 53.46875 
Q 12.59375 47.65625 12.5 36.921875 
Q 15.671875 41.75 20.265625 44.09375 
Q 24.859375 46.4375 29.890625 46.4375 
Q 38.671875 46.4375 44.84375 39.96875 
Q 51.03125 33.5 51.03125 23.25 
Q 51.03125 16.5 48.125 10.71875 
Q 45.21875 4.9375 40.140625 1.859375 
Q 35.0625 -1.21875 28.609375 -1.21875 
Q 17.625 -1.21875 10.6875 6.859375 
Q 3.765625 14.9375 3.765625 33.5 
Q 3.765625 54.25 11.421875 63.671875 
Q 18.109375 71.875 29.4375 71.875 
Q 37.890625 71.875 43.28125 67.140625 
Q 48.6875 62.40625 49.75 54.046875 
M 13.875 23.1875 
Q 13.875 18.65625 15.796875 14.5 
Q 17.71875 10.359375 21.1875 8.171875 
Q 24.65625 6 28.46875 6 
Q 34.03125 6 38.03125 10.484375 
Q 42.046875 14.984375 42.046875 22.703125 
Q 42.046875 30.125 38.078125 34.390625 
Q 34.125 38.671875 28.125 38.671875 
Q 22.171875 38.671875 18.015625 34.390625 
Q 13.875 30.125 13.875 23.1875 
" id="ArialMT-36"/>
      </defs>
      <g style="fill:#262626;" transform="translate(29.4625 216.86015625)scale(0.1 -0.1)">
       <use xlink:href="#ArialMT-30"/>
       <use x="55.615234375" xlink:href="#ArialMT-2e"/>
       <use x="83.3984375" xlink:href="#ArialMT-36"/>
      </g>
     </g>
    </g>
    <g id="ytick_3">
     <g id="line2d_32">
      <path clip-path="url(#pb72f543cf2)" d="M 50.3625 185.85 
L 390.075 185.85 
" style="fill:none;stroke:#ffffff;stroke-linecap:round;"/>
     </g>
     <g id="line2d_33">
      <g>
       <use style="fill:#262626;stroke:#262626;" x="50.3625" xlink:href="#m9ac339add9" y="185.85"/>
      </g>
     </g>
     <g id="text_13">
      <!-- 0.8 -->
      <defs>
       <path d="M 17.671875 38.8125 
Q 12.203125 40.828125 9.5625 44.53125 
Q 6.9375 48.25 6.9375 53.421875 
Q 6.9375 61.234375 12.546875 66.546875 
Q 18.171875 71.875 27.484375 71.875 
Q 36.859375 71.875 42.578125 66.421875 
Q 48.296875 60.984375 48.296875 53.171875 
Q 48.296875 48.1875 45.671875 44.5 
Q 43.0625 40.828125 37.75 38.8125 
Q 44.34375 36.671875 47.78125 31.875 
Q 51.21875 27.09375 51.21875 20.453125 
Q 51.21875 11.28125 44.71875 5.03125 
Q 38.234375 -1.21875 27.640625 -1.21875 
Q 17.046875 -1.21875 10.546875 5.046875 
Q 4.046875 11.328125 4.046875 20.703125 
Q 4.046875 27.6875 7.59375 32.390625 
Q 11.140625 37.109375 17.671875 38.8125 
M 15.921875 53.71875 
Q 15.921875 48.640625 19.1875 45.40625 
Q 22.46875 42.1875 27.6875 42.1875 
Q 32.765625 42.1875 36.015625 45.375 
Q 39.265625 48.578125 39.265625 53.21875 
Q 39.265625 58.0625 35.90625 61.359375 
Q 32.5625 64.65625 27.59375 64.65625 
Q 22.5625 64.65625 19.234375 61.421875 
Q 15.921875 58.203125 15.921875 53.71875 
M 13.09375 20.65625 
Q 13.09375 16.890625 14.875 13.375 
Q 16.65625 9.859375 20.171875 7.921875 
Q 23.6875 6 27.734375 6 
Q 34.03125 6 38.125 10.046875 
Q 42.234375 14.109375 42.234375 20.359375 
Q 42.234375 26.703125 38.015625 30.859375 
Q 33.796875 35.015625 27.4375 35.015625 
Q 21.234375 35.015625 17.15625 30.90625 
Q 13.09375 26.8125 13.09375 20.65625 
" id="ArialMT-38"/>
      </defs>
      <g style="fill:#262626;" transform="translate(29.4625 188.43515625)scale(0.1 -0.1)">
       <use xlink:href="#ArialMT-30"/>
       <use x="55.615234375" xlink:href="#ArialMT-2e"/>
       <use x="83.3984375" xlink:href="#ArialMT-38"/>
      </g>
     </g>
    </g>
    <g id="ytick_4">
     <g id="line2d_34">
      <path clip-path="url(#pb72f543cf2)" d="M 50.3625 157.425 
L 390.075 157.425 
" style="fill:none;stroke:#ffffff;stroke-linecap:round;"/>
     </g>
     <g id="line2d_35">
      <g>
       <use style="fill:#262626;stroke:#262626;" x="50.3625" xlink:href="#m9ac339add9" y="157.425"/>
      </g>
     </g>
     <g id="text_14">
      <!-- 1.0 -->
      <g style="fill:#262626;" transform="translate(29.4625 160.01015625)scale(0.1 -0.1)">
       <use xlink:href="#ArialMT-31"/>
       <use x="55.615234375" xlink:href="#ArialMT-2e"/>
       <use x="83.3984375" xlink:href="#ArialMT-30"/>
      </g>
     </g>
    </g>
    <g id="ytick_5">
     <g id="line2d_36">
      <path clip-path="url(#pb72f543cf2)" d="M 50.3625 129 
L 390.075 129 
" style="fill:none;stroke:#ffffff;stroke-linecap:round;"/>
     </g>
     <g id="line2d_37">
      <g>
       <use style="fill:#262626;stroke:#262626;" x="50.3625" xlink:href="#m9ac339add9" y="129.0"/>
      </g>
     </g>
     <g id="text_15">
      <!-- 1.2 -->
      <g style="fill:#262626;" transform="translate(29.4625 131.58515625)scale(0.1 -0.1)">
       <use xlink:href="#ArialMT-31"/>
       <use x="55.615234375" xlink:href="#ArialMT-2e"/>
       <use x="83.3984375" xlink:href="#ArialMT-32"/>
      </g>
     </g>
    </g>
    <g id="ytick_6">
     <g id="line2d_38">
      <path clip-path="url(#pb72f543cf2)" d="M 50.3625 100.575 
L 390.075 100.575 
" style="fill:none;stroke:#ffffff;stroke-linecap:round;"/>
     </g>
     <g id="line2d_39">
      <g>
       <use style="fill:#262626;stroke:#262626;" x="50.3625" xlink:href="#m9ac339add9" y="100.575"/>
      </g>
     </g>
     <g id="text_16">
      <!-- 1.4 -->
      <g style="fill:#262626;" transform="translate(29.4625 103.16015625)scale(0.1 -0.1)">
       <use xlink:href="#ArialMT-31"/>
       <use x="55.615234375" xlink:href="#ArialMT-2e"/>
       <use x="83.3984375" xlink:href="#ArialMT-34"/>
      </g>
     </g>
    </g>
    <g id="ytick_7">
     <g id="line2d_40">
      <path clip-path="url(#pb72f543cf2)" d="M 50.3625 72.15 
L 390.075 72.15 
" style="fill:none;stroke:#ffffff;stroke-linecap:round;"/>
     </g>
     <g id="line2d_41">
      <g>
       <use style="fill:#262626;stroke:#262626;" x="50.3625" xlink:href="#m9ac339add9" y="72.15"/>
      </g>
     </g>
     <g id="text_17">
      <!-- 1.6 -->
      <g style="fill:#262626;" transform="translate(29.4625 74.73515625)scale(0.1 -0.1)">
       <use xlink:href="#ArialMT-31"/>
       <use x="55.615234375" xlink:href="#ArialMT-2e"/>
       <use x="83.3984375" xlink:href="#ArialMT-36"/>
      </g>
     </g>
    </g>
    <g id="ytick_8">
     <g id="line2d_42">
      <path clip-path="url(#pb72f543cf2)" d="M 50.3625 43.725 
L 390.075 43.725 
" style="fill:none;stroke:#ffffff;stroke-linecap:round;"/>
     </g>
     <g id="line2d_43">
      <g>
       <use style="fill:#262626;stroke:#262626;" x="50.3625" xlink:href="#m9ac339add9" y="43.725"/>
      </g>
     </g>
     <g id="text_18">
      <!-- 1.8 -->
      <g style="fill:#262626;" transform="translate(29.4625 46.31015625)scale(0.1 -0.1)">
       <use xlink:href="#ArialMT-31"/>
       <use x="55.615234375" xlink:href="#ArialMT-2e"/>
       <use x="83.3984375" xlink:href="#ArialMT-38"/>
      </g>
     </g>
    </g>
    <g id="ytick_9">
     <g id="line2d_44">
      <path clip-path="url(#pb72f543cf2)" d="M 50.3625 15.3 
L 390.075 15.3 
" style="fill:none;stroke:#ffffff;stroke-linecap:round;"/>
     </g>
     <g id="line2d_45">
      <g>
       <use style="fill:#262626;stroke:#262626;" x="50.3625" xlink:href="#m9ac339add9" y="15.3"/>
      </g>
     </g>
     <g id="text_19">
      <!-- 2.0 -->
      <g style="fill:#262626;" transform="translate(29.4625 17.88515625)scale(0.1 -0.1)">
       <use xlink:href="#ArialMT-32"/>
       <use x="55.615234375" xlink:href="#ArialMT-2e"/>
       <use x="83.3984375" xlink:href="#ArialMT-30"/>
      </g>
     </g>
    </g>
    <g id="text_20">
     <!-- Theta -->
     <defs>
      <path d="M 25.921875 0 
L 25.921875 63.140625 
L 2.34375 63.140625 
L 2.34375 71.578125 
L 59.078125 71.578125 
L 59.078125 63.140625 
L 35.40625 63.140625 
L 35.40625 0 
z
" id="ArialMT-54"/>
     </defs>
     <g style="fill:#262626;" transform="translate(21.68 146.898125)rotate(-90.0)scale(0.14 -0.14)">
      <use xlink:href="#ArialMT-54"/>
      <use x="61.083984375" xlink:href="#ArialMT-68"/>
      <use x="116.69921875" xlink:href="#ArialMT-65"/>
      <use x="172.314453125" xlink:href="#ArialMT-74"/>
      <use x="200.09765625" xlink:href="#ArialMT-61"/>
     </g>
    </g>
   </g>
   <g id="line2d_46">
    <path clip-path="url(#pb72f543cf2)" d="M 50.3625 239.134563 
L 53.793939 233.720408 
L 57.225379 228.314856 
L 60.656818 222.936308 
L 64.088258 217.600262 
L 67.519697 212.319659 
L 70.951136 207.105206 
L 74.382576 201.965663 
L 77.814015 196.908106 
L 81.245455 191.93816 
L 84.676894 187.0602 
L 88.108333 182.277537 
L 91.539773 177.592568 
L 94.971212 173.006916 
L 98.402652 168.521549 
L 101.834091 164.136878 
L 105.26553 159.852851 
L 108.69697 155.669026 
L 112.128409 151.584636 
L 115.559848 147.598647 
L 118.991288 143.709807 
L 122.422727 139.916683 
L 125.854167 136.217703 
L 129.285606 132.61118 
L 132.717045 129.095342 
L 136.148485 125.66835 
L 139.579924 122.328323 
L 143.011364 119.073347 
L 146.442803 115.901491 
L 149.874242 112.810819 
L 153.305682 109.799399 
L 156.737121 106.86531 
L 160.168561 104.006649 
L 163.6 101.221538 
L 167.031439 98.508123 
L 170.462879 95.864585 
L 173.894318 93.289137 
L 177.325758 90.780029 
L 180.757197 88.335548 
L 184.188636 85.954022 
L 187.620076 83.633817 
L 191.051515 81.373339 
L 194.482955 79.171038 
L 197.914394 77.025401 
L 201.345833 74.934956 
L 204.777273 72.898274 
L 208.208712 70.913963 
L 211.640152 68.980671 
L 215.071591 67.097083 
L 218.50303 65.261925 
L 221.93447 63.473956 
L 225.365909 61.731973 
L 228.797348 60.03481 
L 232.228788 58.381331 
L 235.660227 56.770438 
L 239.091667 55.201062 
L 242.523106 53.672166 
L 245.954545 52.182747 
L 249.385985 50.731828 
L 252.817424 49.318462 
L 256.248864 47.941731 
L 259.680303 46.600743 
L 263.111742 45.294632 
L 266.543182 44.022559 
L 269.974621 42.783709 
L 273.406061 41.577291 
L 276.8375 40.402535 
L 280.268939 39.258697 
L 283.700379 38.145052 
L 287.131818 37.060896 
L 290.563258 36.005547 
L 293.994697 34.978341 
L 297.426136 33.978633 
L 300.857576 33.005797 
L 304.289015 32.059225 
L 307.720455 31.138325 
L 311.151894 30.242522 
L 314.583333 29.371257 
L 318.014773 28.523987 
L 321.446212 27.700183 
L 324.877652 26.899332 
L 328.309091 26.120933 
L 331.74053 25.3645 
L 335.17197 24.62956 
L 338.603409 23.915652 
L 342.034848 23.222329 
L 345.466288 22.549154 
L 348.897727 21.895701 
L 352.329167 21.261558 
L 355.760606 20.646322 
L 359.192045 20.0496 
L 362.623485 19.471009 
L 366.054924 18.910179 
L 369.486364 18.366744 
L 372.917803 17.840353 
L 376.349242 17.330659 
L 379.780682 16.837327 
L 383.212121 16.360029 
L 386.643561 15.898446 
L 390.075 15.452264 
" style="fill:none;stroke:#4c72b0;stroke-linecap:round;stroke-width:2.5;"/>
   </g>
   <g id="patch_3">
    <path d="M 50.3625 15.3 
L 390.075 15.3 
" style="fill:none;"/>
   </g>
   <g id="patch_4">
    <path d="M 390.075 242.7 
L 390.075 15.3 
" style="fill:none;"/>
   </g>
   <g id="patch_5">
    <path d="M 50.3625 242.7 
L 390.075 242.7 
" style="fill:none;"/>
   </g>
   <g id="patch_6">
    <path d="M 50.3625 242.7 
L 50.3625 15.3 
" style="fill:none;"/>
   </g>
   <g id="legend_1">
    <g id="line2d_47">
     <path d="M 302.47875 202.614062 
L 330.47875 202.614062 
" style="fill:none;stroke:#4c72b0;stroke-linecap:round;stroke-width:2.5;"/>
    </g>
    <g id="line2d_48"/>
    <g id="text_21">
     <!-- Theta -->
     <g style="fill:#262626;" transform="translate(341.67875 207.5140625)scale(0.14 -0.14)">
      <use xlink:href="#ArialMT-54"/>
      <use x="61.083984375" xlink:href="#ArialMT-68"/>
      <use x="116.69921875" xlink:href="#ArialMT-65"/>
      <use x="172.314453125" xlink:href="#ArialMT-74"/>
      <use x="200.09765625" xlink:href="#ArialMT-61"/>
     </g>
    </g>
    <g id="line2d_49">
     <path d="M 302.47875 222.4175 
L 330.47875 222.4175 
" style="fill:none;stroke:#ffa500;stroke-linecap:round;stroke-width:2.5;"/>
    </g>
    <g id="line2d_50"/>
    <g id="text_22">
     <!-- Price -->
     <defs>
      <path d="M 7.71875 0 
L 7.71875 71.578125 
L 34.71875 71.578125 
Q 41.84375 71.578125 45.609375 70.90625 
Q 50.875 70.015625 54.4375 67.546875 
Q 58.015625 65.09375 60.1875 60.640625 
Q 62.359375 56.203125 62.359375 50.875 
Q 62.359375 41.75 56.546875 35.421875 
Q 50.734375 29.109375 35.546875 29.109375 
L 17.1875 29.109375 
L 17.1875 0 
z
M 17.1875 37.546875 
L 35.6875 37.546875 
Q 44.875 37.546875 48.734375 40.96875 
Q 52.59375 44.390625 52.59375 50.59375 
Q 52.59375 55.078125 50.3125 58.265625 
Q 48.046875 61.46875 44.34375 62.5 
Q 41.9375 63.140625 35.5 63.140625 
L 17.1875 63.140625 
z
" id="ArialMT-50"/>
     </defs>
     <g style="fill:#262626;" transform="translate(341.67875 227.3175)scale(0.14 -0.14)">
      <use xlink:href="#ArialMT-50"/>
      <use x="66.69921875" xlink:href="#ArialMT-72"/>
      <use x="100.0" xlink:href="#ArialMT-69"/>
      <use x="122.216796875" xlink:href="#ArialMT-63"/>
      <use x="172.216796875" xlink:href="#ArialMT-65"/>
     </g>
    </g>
   </g>
  </g>
  <g id="axes_2">
   <g id="matplotlib.axis_3">
    <g id="ytick_10">
     <g id="line2d_51">
      <g>
       <use style="fill:#262626;stroke:#262626;" x="390.075" xlink:href="#m9ac339add9" y="242.7"/>
      </g>
     </g>
     <g id="text_23">
      <!-- 0 -->
      <g style="fill:#262626;" transform="translate(397.075 245.28515625)scale(0.1 -0.1)">
       <use xlink:href="#ArialMT-30"/>
      </g>
     </g>
    </g>
    <g id="ytick_11">
     <g id="line2d_52">
      <g>
       <use style="fill:#262626;stroke:#262626;" x="390.075" xlink:href="#m9ac339add9" y="206.604761905"/>
      </g>
     </g>
     <g id="text_24">
      <!-- 1 -->
      <g style="fill:#262626;" transform="translate(397.075 209.189918155)scale(0.1 -0.1)">
       <use xlink:href="#ArialMT-31"/>
      </g>
     </g>
    </g>
    <g id="ytick_12">
     <g id="line2d_53">
      <g>
       <use style="fill:#262626;stroke:#262626;" x="390.075" xlink:href="#m9ac339add9" y="170.50952381"/>
      </g>
     </g>
     <g id="text_25">
      <!-- 2 -->
      <g style="fill:#262626;" transform="translate(397.075 173.09468006)scale(0.1 -0.1)">
       <use xlink:href="#ArialMT-32"/>
      </g>
     </g>
    </g>
    <g id="ytick_13">
     <g id="line2d_54">
      <g>
       <use style="fill:#262626;stroke:#262626;" x="390.075" xlink:href="#m9ac339add9" y="134.414285714"/>
      </g>
     </g>
     <g id="text_26">
      <!-- 3 -->
      <g style="fill:#262626;" transform="translate(397.075 136.999441964)scale(0.1 -0.1)">
       <use xlink:href="#ArialMT-33"/>
      </g>
     </g>
    </g>
    <g id="ytick_14">
     <g id="line2d_55">
      <g>
       <use style="fill:#262626;stroke:#262626;" x="390.075" xlink:href="#m9ac339add9" y="98.319047619"/>
      </g>
     </g>
     <g id="text_27">
      <!-- 4 -->
      <g style="fill:#262626;" transform="translate(397.075 100.904203869)scale(0.1 -0.1)">
       <use xlink:href="#ArialMT-34"/>
      </g>
     </g>
    </g>
    <g id="ytick_15">
     <g id="line2d_56">
      <g>
       <use style="fill:#262626;stroke:#262626;" x="390.075" xlink:href="#m9ac339add9" y="62.2238095238"/>
      </g>
     </g>
     <g id="text_28">
      <!-- 5 -->
      <g style="fill:#262626;" transform="translate(397.075 64.8089657738)scale(0.1 -0.1)">
       <use xlink:href="#ArialMT-35"/>
      </g>
     </g>
    </g>
    <g id="ytick_16">
     <g id="line2d_57">
      <g>
       <use style="fill:#262626;stroke:#262626;" x="390.075" xlink:href="#m9ac339add9" y="26.1285714286"/>
      </g>
     </g>
     <g id="text_29">
      <!-- 6 -->
      <g style="fill:#262626;" transform="translate(397.075 28.7137276786)scale(0.1 -0.1)">
       <use xlink:href="#ArialMT-36"/>
      </g>
     </g>
    </g>
    <g id="text_30">
     <!-- Price of the call -->
     <defs>
      <path d="M 6.390625 0 
L 6.390625 71.578125 
L 15.1875 71.578125 
L 15.1875 0 
z
" id="ArialMT-6c"/>
     </defs>
     <g style="fill:#262626;" transform="translate(417.656875 176.85265625)rotate(-90.0)scale(0.14 -0.14)">
      <use xlink:href="#ArialMT-50"/>
      <use x="66.69921875" xlink:href="#ArialMT-72"/>
      <use x="100.0" xlink:href="#ArialMT-69"/>
      <use x="122.216796875" xlink:href="#ArialMT-63"/>
      <use x="172.216796875" xlink:href="#ArialMT-65"/>
      <use x="227.83203125" xlink:href="#ArialMT-20"/>
      <use x="255.615234375" xlink:href="#ArialMT-6f"/>
      <use x="311.23046875" xlink:href="#ArialMT-66"/>
      <use x="339.013671875" xlink:href="#ArialMT-20"/>
      <use x="366.796875" xlink:href="#ArialMT-74"/>
      <use x="394.580078125" xlink:href="#ArialMT-68"/>
      <use x="450.1953125" xlink:href="#ArialMT-65"/>
      <use x="505.810546875" xlink:href="#ArialMT-20"/>
      <use x="533.59375" xlink:href="#ArialMT-63"/>
      <use x="583.59375" xlink:href="#ArialMT-61"/>
      <use x="639.208984375" xlink:href="#ArialMT-6c"/>
      <use x="661.42578125" xlink:href="#ArialMT-6c"/>
     </g>
    </g>
   </g>
   <g id="line2d_58">
    <path clip-path="url(#pb72f543cf2)" d="M 50.3625 238.705062 
L 53.793939 238.041849 
L 57.225379 237.321747 
L 60.656818 236.544942 
L 64.088258 235.711798 
L 67.519697 234.822832 
L 70.951136 233.878682 
L 74.382576 232.88009 
L 77.814015 231.827879 
L 81.245455 230.722941 
L 84.676894 229.566221 
L 88.108333 228.358702 
L 91.539773 227.101398 
L 94.971212 225.795345 
L 98.402652 224.441591 
L 101.834091 223.041194 
L 105.26553 221.595211 
L 108.69697 220.104697 
L 112.128409 218.570703 
L 115.559848 216.994267 
L 118.991288 215.376418 
L 122.422727 213.718169 
L 125.854167 212.020518 
L 129.285606 210.284447 
L 132.717045 208.510917 
L 136.148485 206.700873 
L 139.579924 204.855239 
L 143.011364 202.974918 
L 146.442803 201.060796 
L 149.874242 199.113735 
L 153.305682 197.134579 
L 156.737121 195.124151 
L 160.168561 193.083255 
L 163.6 191.012673 
L 167.031439 188.913169 
L 170.462879 186.785488 
L 173.894318 184.630354 
L 177.325758 182.448475 
L 180.757197 180.240539 
L 184.188636 178.007217 
L 187.620076 175.749162 
L 191.051515 173.467011 
L 194.482955 171.161384 
L 197.914394 168.832884 
L 201.345833 166.4821 
L 204.777273 164.109604 
L 208.208712 161.715955 
L 211.640152 159.301697 
L 215.071591 156.867357 
L 218.50303 154.413454 
L 221.93447 151.94049 
L 225.365909 149.448954 
L 228.797348 146.939324 
L 232.228788 144.412066 
L 235.660227 141.867633 
L 239.091667 139.306467 
L 242.523106 136.728999 
L 245.954545 134.135651 
L 249.385985 131.526832 
L 252.817424 128.902942 
L 256.248864 126.264371 
L 259.680303 123.6115 
L 263.111742 120.9447 
L 266.543182 118.264334 
L 269.974621 115.570754 
L 273.406061 112.864308 
L 276.8375 110.145331 
L 280.268939 107.414153 
L 283.700379 104.671095 
L 287.131818 101.916471 
L 290.563258 99.150587 
L 293.994697 96.373744 
L 297.426136 93.586233 
L 300.857576 90.788341 
L 304.289015 87.980348 
L 307.720455 85.162525 
L 311.151894 82.335141 
L 314.583333 79.498456 
L 318.014773 76.652725 
L 321.446212 73.798199 
L 324.877652 70.935121 
L 328.309091 68.06373 
L 331.74053 65.18426 
L 335.17197 62.296939 
L 338.603409 59.401991 
L 342.034848 56.499635 
L 345.466288 53.590085 
L 348.897727 50.673551 
L 352.329167 47.750237 
L 355.760606 44.820346 
L 359.192045 41.884074 
L 362.623485 38.941614 
L 366.054924 35.993154 
L 369.486364 33.038879 
L 372.917803 30.078971 
L 376.349242 27.113606 
L 379.780682 24.14296 
L 383.212121 21.167201 
L 386.643561 18.186498 
L 390.075 15.201014 
" style="fill:none;stroke:#ffa500;stroke-linecap:round;stroke-width:2.5;"/>
   </g>
   <g id="patch_7">
    <path d="M 50.3625 15.3 
L 390.075 15.3 
" style="fill:none;"/>
   </g>
   <g id="patch_8">
    <path d="M 390.075 242.7 
L 390.075 15.3 
" style="fill:none;"/>
   </g>
   <g id="patch_9">
    <path d="M 50.3625 242.7 
L 390.075 242.7 
" style="fill:none;"/>
   </g>
   <g id="patch_10">
    <path d="M 50.3625 242.7 
L 50.3625 15.3 
" style="fill:none;"/>
   </g>
  </g>
 </g>
 <defs>
  <clipPath id="pb72f543cf2">
   <rect height="227.4" width="339.7125" x="50.3625" y="15.3"/>
  </clipPath>
 </defs>
</svg>
