<?xml version="1.0" encoding="UTF-8"?>
<svg xmlns="http://www.w3.org/2000/svg" xmlns:xlink="http://www.w3.org/1999/xlink" width="80.043pt" height="187.796pt" viewBox="0 0 80.043 187.796" version="1.1">
<defs>
<clipPath id="clip1">
  <path d="M 72 30 L 80.042969 30 L 80.042969 38 L 72 38 Z M 72 30 "/>
</clipPath>
<clipPath id="clip2">
  <path d="M 72 0 L 80.042969 0 L 80.042969 8 L 72 8 Z M 72 0 "/>
</clipPath>
<clipPath id="clip3">
  <path d="M 72 60 L 80.042969 60 L 80.042969 68 L 72 68 Z M 72 60 "/>
</clipPath>
<clipPath id="clip4">
  <path d="M 72 90 L 80.042969 90 L 80.042969 98 L 72 98 Z M 72 90 "/>
</clipPath>
<clipPath id="clip5">
  <path d="M 72 120 L 80.042969 120 L 80.042969 128 L 72 128 Z M 72 120 "/>
</clipPath>
<clipPath id="clip6">
  <path d="M 72 150 L 80.042969 150 L 80.042969 158 L 72 158 Z M 72 150 "/>
</clipPath>
<clipPath id="clip7">
  <path d="M 72 180 L 80.042969 180 L 80.042969 187.796875 L 72 187.796875 Z M 72 180 "/>
</clipPath>
<clipPath id="clip8">
  <path d="M 26 25 L 80.042969 25 L 80.042969 73 L 26 73 Z M 26 25 "/>
</clipPath>
<clipPath id="clip9">
  <path d="M 26 55 L 80.042969 55 L 80.042969 102 L 26 102 Z M 26 55 "/>
</clipPath>
<clipPath id="clip10">
  <path d="M 26 56 L 80.042969 56 L 80.042969 103 L 26 103 Z M 26 56 "/>
</clipPath>
<clipPath id="clip11">
  <path d="M 26 85 L 80.042969 85 L 80.042969 132 L 26 132 Z M 26 85 "/>
</clipPath>
<clipPath id="clip12">
  <path d="M 26 86 L 80.042969 86 L 80.042969 133 L 26 133 Z M 26 86 "/>
</clipPath>
<clipPath id="clip13">
  <path d="M 26 115 L 80.042969 115 L 80.042969 162 L 26 162 Z M 26 115 "/>
</clipPath>
<clipPath id="clip14">
  <path d="M 26 0 L 80.042969 0 L 80.042969 43 L 26 43 Z M 26 0 "/>
</clipPath>
<clipPath id="clip15">
  <path d="M 26 22 L 80.042969 22 L 80.042969 46 L 26 46 Z M 26 22 "/>
</clipPath>
<clipPath id="clip16">
  <path d="M 26 25 L 80.042969 25 L 80.042969 72 L 26 72 Z M 26 25 "/>
</clipPath>
<clipPath id="clip17">
  <path d="M 26 145 L 80.042969 145 L 80.042969 187.796875 L 26 187.796875 Z M 26 145 "/>
</clipPath>
<clipPath id="clip18">
  <path d="M 26 142 L 80.042969 142 L 80.042969 166 L 26 166 Z M 26 142 "/>
</clipPath>
<clipPath id="clip19">
  <path d="M 26 116 L 80.042969 116 L 80.042969 163 L 26 163 Z M 26 116 "/>
</clipPath>
</defs>
<g id="surface1">
<path style="fill:none;stroke-width:0.79701;stroke-linecap:butt;stroke-linejoin:miter;stroke:rgb(0%,0%,0%);stroke-opacity:1;stroke-miterlimit:10;" d="M -3.320562 -3.32075 L 3.320063 -3.32075 L 3.320063 3.319875 L -3.320562 3.319875 Z M -3.320562 -3.32075 " transform="matrix(1,0,0,-1,3.719,93.898)"/>
<path style="fill:none;stroke-width:0.79701;stroke-linecap:butt;stroke-linejoin:miter;stroke:rgb(0%,0%,0%);stroke-opacity:1;stroke-miterlimit:10;" d="M -3.320562 26.726125 L 3.320063 26.726125 L 3.320063 33.36675 L -3.320562 33.36675 Z M -3.320562 26.726125 " transform="matrix(1,0,0,-1,3.719,93.898)"/>
<path style="fill:none;stroke-width:0.79701;stroke-linecap:butt;stroke-linejoin:miter;stroke:rgb(0%,0%,0%);stroke-opacity:1;stroke-miterlimit:10;" d="M -3.320562 -33.367625 L 3.320063 -33.367625 L 3.320063 -26.727 L -3.320562 -26.727 Z M -3.320562 -33.367625 " transform="matrix(1,0,0,-1,3.719,93.898)"/>
<path style="fill:none;stroke-width:0.79701;stroke-linecap:butt;stroke-linejoin:miter;stroke:rgb(0%,0%,0%);stroke-opacity:1;stroke-miterlimit:10;" d="M 26.745844 26.745656 L 33.386469 26.745656 L 33.386469 33.386281 L 26.745844 33.386281 Z M 26.745844 26.745656 " transform="matrix(1,0,0,-1,3.719,93.898)"/>
<path style="fill:none;stroke-width:0.79701;stroke-linecap:butt;stroke-linejoin:miter;stroke:rgb(0%,0%,0%);stroke-opacity:1;stroke-miterlimit:10;" d="M 26.745844 56.792531 L 33.386469 56.792531 L 33.386469 63.433156 L 26.745844 63.433156 Z M 26.745844 56.792531 " transform="matrix(1,0,0,-1,3.719,93.898)"/>
<path style="fill:none;stroke-width:0.79701;stroke-linecap:butt;stroke-linejoin:miter;stroke:rgb(0%,0%,0%);stroke-opacity:1;stroke-miterlimit:10;" d="M 26.726312 -3.32075 L 33.366937 -3.32075 L 33.366937 3.319875 L 26.726312 3.319875 Z M 26.726312 -3.32075 " transform="matrix(1,0,0,-1,3.719,93.898)"/>
<path style="fill:none;stroke-width:0.79701;stroke-linecap:butt;stroke-linejoin:miter;stroke:rgb(0%,0%,0%);stroke-opacity:1;stroke-miterlimit:10;" d="M 26.745844 -33.387156 L 33.386469 -33.387156 L 33.386469 -26.746531 L 26.745844 -26.746531 Z M 26.745844 -33.387156 " transform="matrix(1,0,0,-1,3.719,93.898)"/>
<path style="fill:none;stroke-width:0.79701;stroke-linecap:butt;stroke-linejoin:miter;stroke:rgb(0%,0%,0%);stroke-opacity:1;stroke-miterlimit:10;" d="M 26.745844 -63.434031 L 33.386469 -63.434031 L 33.386469 -56.793406 L 26.745844 -56.793406 Z M 26.745844 -63.434031 " transform="matrix(1,0,0,-1,3.719,93.898)"/>
<g clip-path="url(#clip1)" clip-rule="nonzero">
<path style="fill:none;stroke-width:0.79701;stroke-linecap:butt;stroke-linejoin:miter;stroke:rgb(0%,0%,0%);stroke-opacity:1;stroke-miterlimit:10;" d="M 69.284906 56.812062 L 75.925531 56.812062 L 75.925531 63.452687 L 69.284906 63.452687 Z M 69.284906 56.812062 " transform="matrix(1,0,0,-1,3.719,93.898)"/>
</g>
<g clip-path="url(#clip2)" clip-rule="nonzero">
<path style="fill:none;stroke-width:0.79701;stroke-linecap:butt;stroke-linejoin:miter;stroke:rgb(0%,0%,0%);stroke-opacity:1;stroke-miterlimit:10;" d="M 69.284906 86.858937 L 75.925531 86.858937 L 75.925531 93.499562 L 69.284906 93.499562 Z M 69.284906 86.858937 " transform="matrix(1,0,0,-1,3.719,93.898)"/>
</g>
<g clip-path="url(#clip3)" clip-rule="nonzero">
<path style="fill:none;stroke-width:0.79701;stroke-linecap:butt;stroke-linejoin:miter;stroke:rgb(0%,0%,0%);stroke-opacity:1;stroke-miterlimit:10;" d="M 69.265375 26.745656 L 75.906 26.745656 L 75.906 33.386281 L 69.265375 33.386281 Z M 69.265375 26.745656 " transform="matrix(1,0,0,-1,3.719,93.898)"/>
</g>
<g clip-path="url(#clip4)" clip-rule="nonzero">
<path style="fill:none;stroke-width:0.79701;stroke-linecap:butt;stroke-linejoin:miter;stroke:rgb(0%,0%,0%);stroke-opacity:1;stroke-miterlimit:10;" d="M 69.245844 -3.32075 L 75.886469 -3.32075 L 75.886469 3.319875 L 69.245844 3.319875 Z M 69.245844 -3.32075 " transform="matrix(1,0,0,-1,3.719,93.898)"/>
</g>
<g clip-path="url(#clip5)" clip-rule="nonzero">
<path style="fill:none;stroke-width:0.79701;stroke-linecap:butt;stroke-linejoin:miter;stroke:rgb(0%,0%,0%);stroke-opacity:1;stroke-miterlimit:10;" d="M 69.265375 -33.387156 L 75.906 -33.387156 L 75.906 -26.746531 L 69.265375 -26.746531 Z M 69.265375 -33.387156 " transform="matrix(1,0,0,-1,3.719,93.898)"/>
</g>
<g clip-path="url(#clip6)" clip-rule="nonzero">
<path style="fill:none;stroke-width:0.79701;stroke-linecap:butt;stroke-linejoin:miter;stroke:rgb(0%,0%,0%);stroke-opacity:1;stroke-miterlimit:10;" d="M 69.284906 -63.453563 L 75.925531 -63.453563 L 75.925531 -56.812938 L 69.284906 -56.812938 Z M 69.284906 -63.453563 " transform="matrix(1,0,0,-1,3.719,93.898)"/>
</g>
<g clip-path="url(#clip7)" clip-rule="nonzero">
<path style="fill:none;stroke-width:0.79701;stroke-linecap:butt;stroke-linejoin:miter;stroke:rgb(0%,0%,0%);stroke-opacity:1;stroke-miterlimit:10;" d="M 69.284906 -93.500438 L 75.925531 -93.500438 L 75.925531 -86.859813 L 69.284906 -86.859813 Z M 69.284906 -93.500438 " transform="matrix(1,0,0,-1,3.719,93.898)"/>
</g>
<path style="fill:none;stroke-width:0.79701;stroke-linecap:butt;stroke-linejoin:miter;stroke:rgb(0%,0%,0%);stroke-opacity:1;stroke-miterlimit:10;" d="M 3.7185 3.718312 L 25.335687 25.331594 " transform="matrix(1,0,0,-1,3.719,93.898)"/>
<path style="fill-rule:nonzero;fill:rgb(0%,0%,0%);fill-opacity:1;stroke-width:0.79701;stroke-linecap:butt;stroke-linejoin:round;stroke:rgb(0%,0%,0%);stroke-opacity:1;stroke-miterlimit:10;" d="M 1.036178 0.000601774 C -0.259232 0.257512 -1.551873 0.776821 -3.109662 1.682828 C -1.554642 0.519947 -1.554671 -0.518597 -3.106996 -1.684152 C -1.554679 -0.778233 -0.256484 -0.258998 1.036178 0.000601774 Z M 1.036178 0.000601774 " transform="matrix(0.7071,-0.70714,-0.70714,-0.7071,29.0529,68.56518)"/>
<path style="fill:none;stroke-width:0.79701;stroke-linecap:butt;stroke-linejoin:miter;stroke:rgb(0%,0%,0%);stroke-opacity:1;stroke-miterlimit:10;" d="M 3.7185 -0.0004375 L 24.894281 -0.0004375 " transform="matrix(1,0,0,-1,3.719,93.898)"/>
<path style="fill-rule:nonzero;fill:rgb(0%,0%,0%);fill-opacity:1;stroke-width:0.79701;stroke-linecap:butt;stroke-linejoin:round;stroke:rgb(0%,0%,0%);stroke-opacity:1;stroke-miterlimit:10;" d="M 1.035557 -0.0004375 C -0.257411 0.257375 -1.554286 0.776906 -3.108974 1.683156 C -1.554286 0.519094 -1.554286 -0.519969 -3.108974 -1.684031 C -1.554286 -0.777781 -0.257411 -0.25825 1.035557 -0.0004375 Z M 1.035557 -0.0004375 " transform="matrix(1,0,0,-1,28.61288,93.898)"/>
<path style="fill:none;stroke-width:0.79701;stroke-linecap:butt;stroke-linejoin:miter;stroke:rgb(0%,0%,0%);stroke-opacity:1;stroke-miterlimit:10;" d="M 3.7185 -3.719188 L 25.335687 -25.332469 " transform="matrix(1,0,0,-1,3.719,93.898)"/>
<path style="fill-rule:nonzero;fill:rgb(0%,0%,0%);fill-opacity:1;stroke-width:0.79701;stroke-linecap:butt;stroke-linejoin:round;stroke:rgb(0%,0%,0%);stroke-opacity:1;stroke-miterlimit:10;" d="M 1.036797 -0.00122046 C -0.258628 0.261141 -1.55406 0.777614 -3.106377 1.683534 C -1.554053 0.517978 -1.554023 -0.520566 -3.109044 -1.683447 C -1.554016 -0.774677 -0.258613 -0.258131 1.036797 -0.00122046 Z M 1.036797 -0.00122046 " transform="matrix(0.7071,0.70714,0.70714,-0.7071,29.0529,119.23082)"/>
<g clip-path="url(#clip8)" clip-rule="nonzero">
<path style="fill:none;stroke-width:0.79701;stroke-linecap:butt;stroke-linejoin:miter;stroke:rgb(0%,0%,0%);stroke-opacity:1;stroke-miterlimit:10;" d="M 33.784906 32.694875 L 67.710688 56.675344 " transform="matrix(1,0,0,-1,3.719,93.898)"/>
</g>
<path style="fill-rule:nonzero;fill:rgb(0%,0%,0%);fill-opacity:1;stroke-width:0.79701;stroke-linecap:butt;stroke-linejoin:round;stroke:rgb(0%,0%,0%);stroke-opacity:1;stroke-miterlimit:10;" d="M 1.033831 -0.000636178 C -0.259723 0.260497 -1.55498 0.775548 -3.107452 1.682218 C -1.555524 0.51845 -1.553588 -0.517617 -3.107614 -1.684015 C -1.554132 -0.774716 -0.259878 -0.259127 1.033831 -0.000636178 Z M 1.033831 -0.000636178 " transform="matrix(0.81923,-0.57909,-0.57909,-0.81923,71.43003,37.22316)"/>
<path style="fill:none;stroke-width:0.79701;stroke-linecap:butt;stroke-linejoin:miter;stroke:rgb(0%,0%,0%);stroke-opacity:1;stroke-miterlimit:10;" d="M 33.784906 30.065969 L 67.433344 30.065969 " transform="matrix(1,0,0,-1,3.719,93.898)"/>
<path style="fill-rule:nonzero;fill:rgb(0%,0%,0%);fill-opacity:1;stroke-width:0.79701;stroke-linecap:butt;stroke-linejoin:round;stroke:rgb(0%,0%,0%);stroke-opacity:1;stroke-miterlimit:10;" d="M 1.03561 -0.00039125 C -0.257359 0.257421 -1.554234 0.776952 -3.108921 1.683202 C -1.554234 0.51914 -1.554234 -0.519923 -3.108921 -1.683985 C -1.554234 -0.777735 -0.257359 -0.258204 1.03561 -0.00039125 Z M 1.03561 -0.00039125 " transform="matrix(1,0,0,-1,71.15189,63.83164)"/>
<g clip-path="url(#clip9)" clip-rule="nonzero">
<path style="fill:none;stroke-width:0.79701;stroke-linecap:butt;stroke-linejoin:miter;stroke:rgb(0%,0%,0%);stroke-opacity:1;stroke-miterlimit:10;" d="M 33.784906 27.437062 L 67.671625 3.4605 " transform="matrix(1,0,0,-1,3.719,93.898)"/>
</g>
<path style="fill-rule:nonzero;fill:rgb(0%,0%,0%);fill-opacity:1;stroke-width:0.79701;stroke-linecap:butt;stroke-linejoin:round;stroke:rgb(0%,0%,0%);stroke-opacity:1;stroke-miterlimit:10;" d="M 1.036103 0.00165769 C -0.25735 0.259572 -1.553695 0.777691 -3.110281 1.683884 C -1.556229 0.518415 -1.552334 -0.518296 -3.106557 -1.684597 C -1.554868 -0.777571 -0.256991 -0.259908 1.036103 0.00165769 Z M 1.036103 0.00165769 " transform="matrix(0.81923,0.57957,0.57957,-0.81923,71.39242,90.43602)"/>
<g clip-path="url(#clip10)" clip-rule="nonzero">
<path style="fill:none;stroke-width:0.79701;stroke-linecap:butt;stroke-linejoin:miter;stroke:rgb(0%,0%,0%);stroke-opacity:1;stroke-miterlimit:10;" d="M 33.765375 2.628469 L 67.691156 26.608937 " transform="matrix(1,0,0,-1,3.719,93.898)"/>
</g>
<path style="fill-rule:nonzero;fill:rgb(0%,0%,0%);fill-opacity:1;stroke-width:0.79701;stroke-linecap:butt;stroke-linejoin:round;stroke:rgb(0%,0%,0%);stroke-opacity:1;stroke-miterlimit:10;" d="M 1.036394 -0.00249245 C -0.257159 0.25864 -1.555596 0.775939 -3.108068 1.682609 C -1.552961 0.516594 -1.554204 -0.517226 -3.108231 -1.683623 C -1.551568 -0.776572 -0.260495 -0.258736 1.036394 -0.00249245 Z M 1.036394 -0.00249245 " transform="matrix(0.81923,-0.57909,-0.57909,-0.81923,71.41123,67.28953)"/>
<path style="fill:none;stroke-width:0.79701;stroke-linecap:butt;stroke-linejoin:miter;stroke:rgb(0%,0%,0%);stroke-opacity:1;stroke-miterlimit:10;" d="M 33.765375 -0.0004375 L 67.413813 -0.0004375 " transform="matrix(1,0,0,-1,3.719,93.898)"/>
<path style="fill-rule:nonzero;fill:rgb(0%,0%,0%);fill-opacity:1;stroke-width:0.79701;stroke-linecap:butt;stroke-linejoin:round;stroke:rgb(0%,0%,0%);stroke-opacity:1;stroke-miterlimit:10;" d="M 1.034869 -0.0004375 C -0.2581 0.257375 -1.554975 0.776906 -3.109663 1.683156 C -1.554975 0.519094 -1.554975 -0.519969 -3.109663 -1.684031 C -1.554975 -0.777781 -0.2581 -0.25825 1.034869 -0.0004375 Z M 1.034869 -0.0004375 " transform="matrix(1,0,0,-1,71.1331,93.898)"/>
<g clip-path="url(#clip11)" clip-rule="nonzero">
<path style="fill:none;stroke-width:0.79701;stroke-linecap:butt;stroke-linejoin:miter;stroke:rgb(0%,0%,0%);stroke-opacity:1;stroke-miterlimit:10;" d="M 33.765375 -2.625438 L 67.691156 -26.609813 " transform="matrix(1,0,0,-1,3.719,93.898)"/>
</g>
<path style="fill-rule:nonzero;fill:rgb(0%,0%,0%);fill-opacity:1;stroke-width:0.79701;stroke-linecap:butt;stroke-linejoin:round;stroke:rgb(0%,0%,0%);stroke-opacity:1;stroke-miterlimit:10;" d="M 1.036898 0.00178024 C -0.259991 0.258023 -1.553312 0.779039 -3.107727 1.682911 C -1.553701 0.516514 -1.552457 -0.517306 -3.107565 -1.683321 C -1.555093 -0.776652 -0.256656 -0.259353 1.036898 0.00178024 Z M 1.036898 0.00178024 " transform="matrix(0.81923,0.57909,0.57909,-0.81923,71.41123,120.50647)"/>
<g clip-path="url(#clip12)" clip-rule="nonzero">
<path style="fill:none;stroke-width:0.79701;stroke-linecap:butt;stroke-linejoin:miter;stroke:rgb(0%,0%,0%);stroke-opacity:1;stroke-miterlimit:10;" d="M 33.784906 -27.437938 L 67.671625 -3.461375 " transform="matrix(1,0,0,-1,3.719,93.898)"/>
</g>
<path style="fill-rule:nonzero;fill:rgb(0%,0%,0%);fill-opacity:1;stroke-width:0.79701;stroke-linecap:butt;stroke-linejoin:round;stroke:rgb(0%,0%,0%);stroke-opacity:1;stroke-miterlimit:10;" d="M 1.037848 0.000808242 C -0.257495 0.259196 -1.555371 0.776859 -3.10706 1.683885 C -1.552838 0.517584 -1.554484 -0.51595 -3.108537 -1.681418 C -1.554199 -0.778402 -0.257853 -0.260284 1.037848 0.000808242 Z M 1.037848 0.000808242 " transform="matrix(0.81923,-0.57957,-0.57957,-0.81923,71.39242,97.35998)"/>
<path style="fill:none;stroke-width:0.79701;stroke-linecap:butt;stroke-linejoin:miter;stroke:rgb(0%,0%,0%);stroke-opacity:1;stroke-miterlimit:10;" d="M 33.784906 -30.066844 L 67.433344 -30.066844 " transform="matrix(1,0,0,-1,3.719,93.898)"/>
<path style="fill-rule:nonzero;fill:rgb(0%,0%,0%);fill-opacity:1;stroke-width:0.79701;stroke-linecap:butt;stroke-linejoin:round;stroke:rgb(0%,0%,0%);stroke-opacity:1;stroke-miterlimit:10;" d="M 1.03561 -0.00048375 C -0.257359 0.257329 -1.554234 0.77686 -3.108921 1.68311 C -1.554234 0.519047 -1.554234 -0.516109 -3.108921 -1.684078 C -1.554234 -0.777828 -0.257359 -0.258296 1.03561 -0.00048375 Z M 1.03561 -0.00048375 " transform="matrix(1,0,0,-1,71.15189,123.96436)"/>
<g clip-path="url(#clip13)" clip-rule="nonzero">
<path style="fill:none;stroke-width:0.79701;stroke-linecap:butt;stroke-linejoin:miter;stroke:rgb(0%,0%,0%);stroke-opacity:1;stroke-miterlimit:10;" d="M 33.784906 -32.691844 L 67.710688 -56.676219 " transform="matrix(1,0,0,-1,3.719,93.898)"/>
</g>
<path style="fill-rule:nonzero;fill:rgb(0%,0%,0%);fill-opacity:1;stroke-width:0.79701;stroke-linecap:butt;stroke-linejoin:round;stroke:rgb(0%,0%,0%);stroke-opacity:1;stroke-miterlimit:10;" d="M 1.034334 -0.0000760307 C -0.259375 0.258415 -1.555876 0.777183 -3.107111 1.683302 C -1.553085 0.516905 -1.555021 -0.519162 -3.106949 -1.68293 C -1.554477 -0.77626 -0.259219 -0.261209 1.034334 -0.0000760307 Z M 1.034334 -0.0000760307 " transform="matrix(0.81923,0.57909,0.57909,-0.81923,71.43003,150.57284)"/>
<path style="fill:none;stroke-width:0.79701;stroke-linecap:butt;stroke-linejoin:miter;stroke:rgb(0%,0%,0%);stroke-opacity:1;stroke-miterlimit:10;" d="M 3.7185 30.050344 L 24.913812 30.062062 " transform="matrix(1,0,0,-1,3.719,93.898)"/>
<path style="fill-rule:nonzero;fill:rgb(0%,0%,0%);fill-opacity:1;stroke-width:0.79701;stroke-linecap:butt;stroke-linejoin:round;stroke:rgb(0%,0%,0%);stroke-opacity:1;stroke-miterlimit:10;" d="M 1.036298 -0.00178964 C -0.260417 0.26072 -1.553071 0.777134 -3.107205 1.684332 C -1.553228 0.519321 -1.553862 -0.519741 -3.109259 -1.682855 C -1.554019 -0.777553 -0.260734 -0.258811 1.036298 -0.00178964 Z M 1.036298 -0.00178964 " transform="matrix(1,-0.00061,-0.00061,-1,28.63167,63.83478)"/>
<path style="fill:none;stroke-width:0.79701;stroke-linecap:butt;stroke-linejoin:miter;stroke:rgb(0%,0%,0%);stroke-opacity:1;stroke-miterlimit:10;" d="M 3.7185 33.765187 L 25.335687 55.378469 " transform="matrix(1,0,0,-1,3.719,93.898)"/>
<path style="fill-rule:nonzero;fill:rgb(0%,0%,0%);fill-opacity:1;stroke-width:0.79701;stroke-linecap:butt;stroke-linejoin:round;stroke:rgb(0%,0%,0%);stroke-opacity:1;stroke-miterlimit:10;" d="M 1.035687 0.000110358 C -0.259723 0.257021 -1.552364 0.776329 -3.107392 1.685099 C -1.555133 0.519455 -1.555163 -0.519088 -3.107487 -1.684644 C -1.55517 -0.778724 -0.256976 -0.259489 1.035687 0.000110358 Z M 1.035687 0.000110358 " transform="matrix(0.7071,-0.70714,-0.70714,-0.7071,29.0529,38.51761)"/>
<path style="fill:none;stroke-width:0.79701;stroke-linecap:butt;stroke-linejoin:miter;stroke:rgb(0%,0%,0%);stroke-opacity:1;stroke-miterlimit:10;" d="M 3.7185 26.331594 L 25.31225 4.737844 " transform="matrix(1,0,0,-1,3.719,93.898)"/>
<path style="fill-rule:nonzero;fill:rgb(0%,0%,0%);fill-opacity:1;stroke-width:0.79701;stroke-linecap:butt;stroke-linejoin:round;stroke:rgb(0%,0%,0%);stroke-opacity:1;stroke-miterlimit:10;" d="M 1.035022 0.0006281 C -0.256731 0.259007 -1.553975 0.775738 -3.109563 1.68275 C -1.55398 0.517386 -1.554002 -0.516021 -3.106885 -1.684067 C -1.556756 -0.777121 -0.25949 -0.260445 1.035022 0.0006281 Z M 1.035022 0.0006281 " transform="matrix(0.71065,0.71062,0.71062,-0.71065,29.02964,89.15947)"/>
<path style="fill:none;stroke-width:0.79701;stroke-linecap:butt;stroke-linejoin:miter;stroke:rgb(0%,0%,0%);stroke-opacity:1;stroke-miterlimit:10;" d="M 3.7185 -26.328563 L 25.31225 -4.738719 " transform="matrix(1,0,0,-1,3.719,93.898)"/>
<path style="fill-rule:nonzero;fill:rgb(0%,0%,0%);fill-opacity:1;stroke-width:0.79701;stroke-linecap:butt;stroke-linejoin:round;stroke:rgb(0%,0%,0%);stroke-opacity:1;stroke-miterlimit:10;" d="M 1.037155 0.00150472 C -0.260106 0.259829 -1.554623 0.779253 -3.107501 1.683452 C -1.551869 0.518153 -1.554596 -0.518002 -3.110178 -1.683366 C -1.554591 -0.776353 -0.257346 -0.259623 1.037155 0.00150472 Z M 1.037155 0.00150472 " transform="matrix(0.71065,-0.71062,-0.71062,-0.71065,29.02964,98.63653)"/>
<path style="fill:none;stroke-width:0.79701;stroke-linecap:butt;stroke-linejoin:miter;stroke:rgb(0%,0%,0%);stroke-opacity:1;stroke-miterlimit:10;" d="M 3.7185 -30.051219 L 24.913812 -30.062938 " transform="matrix(1,0,0,-1,3.719,93.898)"/>
<path style="fill-rule:nonzero;fill:rgb(0%,0%,0%);fill-opacity:1;stroke-width:0.79701;stroke-linecap:butt;stroke-linejoin:round;stroke:rgb(0%,0%,0%);stroke-opacity:1;stroke-miterlimit:10;" d="M 1.036298 0.000914642 C -0.260734 0.257936 -1.554019 0.776678 -3.109259 1.68198 C -1.553862 0.518866 -1.55323 -0.51629 -3.107205 -1.685207 C -1.55307 -0.778009 -0.260419 -0.257689 1.036298 0.000914642 Z M 1.036298 0.000914642 " transform="matrix(1,0.00061,0.00061,-1,28.63167,123.96122)"/>
<path style="fill:none;stroke-width:0.79701;stroke-linecap:butt;stroke-linejoin:miter;stroke:rgb(0%,0%,0%);stroke-opacity:1;stroke-miterlimit:10;" d="M 3.7185 -33.766063 L 25.335687 -55.379344 " transform="matrix(1,0,0,-1,3.719,93.898)"/>
<path style="fill-rule:nonzero;fill:rgb(0%,0%,0%);fill-opacity:1;stroke-width:0.79701;stroke-linecap:butt;stroke-linejoin:round;stroke:rgb(0%,0%,0%);stroke-opacity:1;stroke-miterlimit:10;" d="M 1.036306 -0.000729047 C -0.259119 0.261632 -1.554551 0.778105 -3.106868 1.684025 C -1.554544 0.51847 -1.554515 -0.520074 -3.109535 -1.682956 C -1.551745 -0.776948 -0.259104 -0.25764 1.036306 -0.000729047 Z M 1.036306 -0.000729047 " transform="matrix(0.7071,0.70714,0.70714,-0.7071,29.0529,149.27839)"/>
<g clip-path="url(#clip14)" clip-rule="nonzero">
<path style="fill:none;stroke-width:0.79701;stroke-linecap:butt;stroke-linejoin:miter;stroke:rgb(0%,0%,0%);stroke-opacity:1;stroke-miterlimit:10;" d="M 33.784906 62.74175 L 67.710688 86.722219 " transform="matrix(1,0,0,-1,3.719,93.898)"/>
</g>
<path style="fill-rule:nonzero;fill:rgb(0%,0%,0%);fill-opacity:1;stroke-width:0.79701;stroke-linecap:butt;stroke-linejoin:round;stroke:rgb(0%,0%,0%);stroke-opacity:1;stroke-miterlimit:10;" d="M 1.035684 0.00198577 C -0.260117 0.259939 -1.553127 0.77817 -3.107846 1.68166 C -1.555918 0.517892 -1.553982 -0.518175 -3.108009 -1.684572 C -1.554526 -0.775273 -0.260273 -0.259684 1.035684 0.00198577 Z M 1.035684 0.00198577 " transform="matrix(0.81923,-0.57909,-0.57909,-0.81923,71.43003,7.1756)"/>
<g clip-path="url(#clip15)" clip-rule="nonzero">
<path style="fill:none;stroke-width:0.79701;stroke-linecap:butt;stroke-linejoin:miter;stroke:rgb(0%,0%,0%);stroke-opacity:1;stroke-miterlimit:10;" d="M 33.784906 60.11675 L 67.452875 60.132375 " transform="matrix(1,0,0,-1,3.719,93.898)"/>
</g>
<path style="fill-rule:nonzero;fill:rgb(0%,0%,0%);fill-opacity:1;stroke-width:0.79701;stroke-linecap:butt;stroke-linejoin:round;stroke:rgb(0%,0%,0%);stroke-opacity:1;stroke-miterlimit:10;" d="M 1.036332 0.00138938 C -0.260432 0.259759 -1.553179 0.77594 -3.107476 1.682859 C -1.55329 0.518128 -1.553735 -0.517028 -3.108924 -1.684328 C -1.553847 -0.778747 -0.260655 -0.259772 1.036332 0.00138938 Z M 1.036332 0.00138938 " transform="matrix(1,-0.00043,-0.00043,-1,71.1707,33.76746)"/>
<g clip-path="url(#clip16)" clip-rule="nonzero">
<path style="fill:none;stroke-width:0.79701;stroke-linecap:butt;stroke-linejoin:miter;stroke:rgb(0%,0%,0%);stroke-opacity:1;stroke-miterlimit:10;" d="M 33.784906 57.487844 L 67.691156 33.523 " transform="matrix(1,0,0,-1,3.719,93.898)"/>
</g>
<path style="fill-rule:nonzero;fill:rgb(0%,0%,0%);fill-opacity:1;stroke-width:0.79701;stroke-linecap:butt;stroke-linejoin:round;stroke:rgb(0%,0%,0%);stroke-opacity:1;stroke-miterlimit:10;" d="M 1.036841 0.00186107 C -0.260096 0.258212 -1.553446 0.77935 -3.107875 1.683383 C -1.553854 0.516811 -1.552686 -0.517062 -3.10796 -1.683024 C -1.555341 -0.776421 -0.256799 -0.25919 1.036841 0.00186107 Z M 1.036841 0.00186107 " transform="matrix(0.81923,0.579,0.579,-0.81923,71.41123,60.37385)"/>
<g clip-path="url(#clip17)" clip-rule="nonzero">
<path style="fill:none;stroke-width:0.79701;stroke-linecap:butt;stroke-linejoin:miter;stroke:rgb(0%,0%,0%);stroke-opacity:1;stroke-miterlimit:10;" d="M 33.784906 -62.742625 L 67.710688 -86.723094 " transform="matrix(1,0,0,-1,3.719,93.898)"/>
</g>
<path style="fill-rule:nonzero;fill:rgb(0%,0%,0%);fill-opacity:1;stroke-width:0.79701;stroke-linecap:butt;stroke-linejoin:round;stroke:rgb(0%,0%,0%);stroke-opacity:1;stroke-miterlimit:10;" d="M 1.03394 0.000481527 C -0.259769 0.258972 -1.55627 0.777741 -3.107505 1.68386 C -1.553479 0.517463 -1.555415 -0.518605 -3.107343 -1.682373 C -1.554871 -0.775703 -0.259614 -0.260651 1.03394 0.000481527 Z M 1.03394 0.000481527 " transform="matrix(0.81923,0.57909,0.57909,-0.81923,71.43003,180.6204)"/>
<g clip-path="url(#clip18)" clip-rule="nonzero">
<path style="fill:none;stroke-width:0.79701;stroke-linecap:butt;stroke-linejoin:miter;stroke:rgb(0%,0%,0%);stroke-opacity:1;stroke-miterlimit:10;" d="M 33.784906 -60.113719 L 67.452875 -60.129344 " transform="matrix(1,0,0,-1,3.719,93.898)"/>
</g>
<path style="fill-rule:nonzero;fill:rgb(0%,0%,0%);fill-opacity:1;stroke-width:0.79701;stroke-linecap:butt;stroke-linejoin:round;stroke:rgb(0%,0%,0%);stroke-opacity:1;stroke-miterlimit:10;" d="M 1.036331 0.00164187 C -0.260655 0.258897 -1.553847 0.777872 -3.108924 1.683453 C -1.553734 0.516153 -1.553289 -0.519003 -3.107476 -1.683734 C -1.553178 -0.776815 -0.260432 -0.260634 1.036331 0.00164187 Z M 1.036331 0.00164187 " transform="matrix(1,0.00043,0.00043,-1,71.1707,154.02854)"/>
<g clip-path="url(#clip19)" clip-rule="nonzero">
<path style="fill:none;stroke-width:0.79701;stroke-linecap:butt;stroke-linejoin:miter;stroke:rgb(0%,0%,0%);stroke-opacity:1;stroke-miterlimit:10;" d="M 33.784906 -57.488719 L 67.691156 -33.523875 " transform="matrix(1,0,0,-1,3.719,93.898)"/>
</g>
<path style="fill-rule:nonzero;fill:rgb(0%,0%,0%);fill-opacity:1;stroke-width:0.79701;stroke-linecap:butt;stroke-linejoin:round;stroke:rgb(0%,0%,0%);stroke-opacity:1;stroke-miterlimit:10;" d="M 1.038585 0.00060648 C -0.257302 0.258478 -1.553597 0.778889 -3.108463 1.682312 C -1.55319 0.51635 -1.554357 -0.517524 -3.108379 -1.684095 C -1.551703 -0.776883 -0.2606 -0.258925 1.038585 0.00060648 Z M 1.038585 0.00060648 " transform="matrix(0.81923,-0.579,-0.579,-0.81923,71.41123,127.42215)"/>
</g>
</svg>
