<?xml version="1.0" encoding="UTF-8"?>
<svg xmlns="http://www.w3.org/2000/svg" xmlns:xlink="http://www.w3.org/1999/xlink" width="68.685pt" height="82.348pt" viewBox="0 0 68.685 82.348" version="1.1">
<defs>
<clipPath id="clip1">
  <path d="M 61 27 L 68.683594 27 L 68.683594 35 L 61 35 Z M 61 27 "/>
</clipPath>
<clipPath id="clip2">
  <path d="M 61 47 L 68.683594 47 L 68.683594 56 L 61 56 Z M 61 47 "/>
</clipPath>
<clipPath id="clip3">
  <path d="M 60 74 L 68 74 L 68 82.347656 L 60 82.347656 Z M 60 74 "/>
</clipPath>
<clipPath id="clip4">
  <path d="M 26 0 L 68.683594 0 L 68.683594 29 L 26 29 Z M 26 0 "/>
</clipPath>
<clipPath id="clip5">
  <path d="M 26 9 L 68.683594 9 L 68.683594 41 L 26 41 Z M 26 9 "/>
</clipPath>
<clipPath id="clip6">
  <path d="M 26 41 L 68.683594 41 L 68.683594 73 L 26 73 Z M 26 41 "/>
</clipPath>
<clipPath id="clip7">
  <path d="M 26 53 L 68.683594 53 L 68.683594 82.347656 L 26 82.347656 Z M 26 53 "/>
</clipPath>
</defs>
<g id="surface1">
<path style="fill:none;stroke-width:0.79701;stroke-linecap:butt;stroke-linejoin:miter;stroke:rgb(0%,0%,0%);stroke-opacity:1;stroke-miterlimit:10;" d="M -3.320562 -3.322094 L 3.320063 -3.322094 L 3.320063 3.322437 L -3.320562 3.322437 Z M -3.320562 -3.322094 " transform="matrix(1,0,0,-1,3.719,41.174)"/>
<path style="fill:none;stroke-width:0.79701;stroke-linecap:butt;stroke-linejoin:miter;stroke:rgb(0%,0%,0%);stroke-opacity:1;stroke-miterlimit:10;" d="M 26.745844 18.240406 L 33.386469 18.240406 L 33.386469 24.881031 L 26.745844 24.881031 Z M 26.745844 18.240406 " transform="matrix(1,0,0,-1,3.719,41.174)"/>
<path style="fill:none;stroke-width:0.79701;stroke-linecap:butt;stroke-linejoin:miter;stroke:rgb(0%,0%,0%);stroke-opacity:1;stroke-miterlimit:10;" d="M 26.745844 -24.884594 L 33.386469 -24.884594 L 33.386469 -18.240063 L 26.745844 -18.240063 Z M 26.745844 -24.884594 " transform="matrix(1,0,0,-1,3.719,41.174)"/>
<path style="fill:none;stroke-width:0.79701;stroke-linecap:butt;stroke-linejoin:miter;stroke:rgb(0%,0%,0%);stroke-opacity:1;stroke-miterlimit:10;" d="M 56.81225 34.134937 L 63.452875 34.134937 L 63.452875 40.775562 L 56.81225 40.775562 Z M 56.81225 34.134937 " transform="matrix(1,0,0,-1,3.719,41.174)"/>
<g clip-path="url(#clip1)" clip-rule="nonzero">
<path style="fill:none;stroke-width:0.79701;stroke-linecap:butt;stroke-linejoin:miter;stroke:rgb(0%,0%,0%);stroke-opacity:1;stroke-miterlimit:10;" d="M 57.925531 6.904469 L 64.570063 6.904469 L 64.570063 13.545094 L 57.925531 13.545094 Z M 57.925531 6.904469 " transform="matrix(1,0,0,-1,3.719,41.174)"/>
</g>
<g clip-path="url(#clip2)" clip-rule="nonzero">
<path style="fill:none;stroke-width:0.79701;stroke-linecap:butt;stroke-linejoin:miter;stroke:rgb(0%,0%,0%);stroke-opacity:1;stroke-miterlimit:10;" d="M 57.925531 -13.54475 L 64.570063 -13.54475 L 64.570063 -6.904125 L 57.925531 -6.904125 Z M 57.925531 -13.54475 " transform="matrix(1,0,0,-1,3.719,41.174)"/>
</g>
<g clip-path="url(#clip3)" clip-rule="nonzero">
<path style="fill:none;stroke-width:0.79701;stroke-linecap:butt;stroke-linejoin:miter;stroke:rgb(0%,0%,0%);stroke-opacity:1;stroke-miterlimit:10;" d="M 56.81225 -40.775219 L 63.452875 -40.775219 L 63.452875 -34.134594 L 56.81225 -34.134594 Z M 56.81225 -40.775219 " transform="matrix(1,0,0,-1,3.719,41.174)"/>
</g>
<path style="fill:none;stroke-width:0.79701;stroke-linecap:butt;stroke-linejoin:miter;stroke:rgb(0%,0%,0%);stroke-opacity:1;stroke-miterlimit:10;" d="M 3.7185 2.666187 L 25.179437 18.056812 " transform="matrix(1,0,0,-1,3.719,41.174)"/>
<path style="fill-rule:nonzero;fill:rgb(0%,0%,0%);fill-opacity:1;stroke-width:0.79701;stroke-linecap:butt;stroke-linejoin:round;stroke:rgb(0%,0%,0%);stroke-opacity:1;stroke-miterlimit:10;" d="M 1.036482 -0.000924272 C -0.258666 0.257272 -1.552402 0.777944 -3.107421 1.68243 C -1.553815 0.515468 -1.553554 -0.519513 -3.108053 -1.684987 C -1.555862 -0.776556 -0.260118 -0.259084 1.036482 -0.000924272 Z M 1.036482 -0.000924272 " transform="matrix(0.81538,-0.5848,-0.5848,-0.81538,28.89652,23.1171)"/>
<path style="fill:none;stroke-width:0.79701;stroke-linecap:butt;stroke-linejoin:miter;stroke:rgb(0%,0%,0%);stroke-opacity:1;stroke-miterlimit:10;" d="M 3.7185 -2.665844 L 25.179437 -18.056469 " transform="matrix(1,0,0,-1,3.719,41.174)"/>
<path style="fill-rule:nonzero;fill:rgb(0%,0%,0%);fill-opacity:1;stroke-width:0.79701;stroke-linecap:butt;stroke-linejoin:round;stroke:rgb(0%,0%,0%);stroke-opacity:1;stroke-miterlimit:10;" d="M 1.036283 0.00120266 C -0.260317 0.259362 -1.556062 0.776834 -3.108252 1.685265 C -1.553754 0.519791 -1.551746 -0.518353 -3.10762 -1.682151 C -1.552601 -0.777665 -0.258866 -0.256993 1.036283 0.00120266 Z M 1.036283 0.00120266 " transform="matrix(0.81538,0.5848,0.5848,-0.81538,28.89652,59.2309)"/>
<g clip-path="url(#clip4)" clip-rule="nonzero">
<path style="fill:none;stroke-width:0.79701;stroke-linecap:butt;stroke-linejoin:miter;stroke:rgb(0%,0%,0%);stroke-opacity:1;stroke-miterlimit:10;" d="M 33.784906 23.529469 L 55.140375 34.818531 " transform="matrix(1,0,0,-1,3.719,41.174)"/>
</g>
<path style="fill-rule:nonzero;fill:rgb(0%,0%,0%);fill-opacity:1;stroke-width:0.79701;stroke-linecap:butt;stroke-linejoin:round;stroke:rgb(0%,0%,0%);stroke-opacity:1;stroke-miterlimit:10;" d="M 1.034523 0.000737689 C -0.260309 0.258152 -1.552672 0.778429 -3.107929 1.684235 C -1.553323 0.519008 -1.555926 -0.518677 -3.109309 -1.683175 C -1.554757 -0.774657 -0.259792 -0.257249 1.034523 0.000737689 Z M 1.034523 0.000737689 " transform="matrix(0.88722,-0.46901,-0.46901,-0.88722,58.85984,6.35695)"/>
<g clip-path="url(#clip5)" clip-rule="nonzero">
<path style="fill:none;stroke-width:0.79701;stroke-linecap:butt;stroke-linejoin:miter;stroke:rgb(0%,0%,0%);stroke-opacity:1;stroke-miterlimit:10;" d="M 33.784906 20.209156 L 56.179437 12.064625 " transform="matrix(1,0,0,-1,3.719,41.174)"/>
</g>
<path style="fill-rule:nonzero;fill:rgb(0%,0%,0%);fill-opacity:1;stroke-width:0.79701;stroke-linecap:butt;stroke-linejoin:round;stroke:rgb(0%,0%,0%);stroke-opacity:1;stroke-miterlimit:10;" d="M 1.03387 0.000543526 C -0.260503 0.260529 -1.553214 0.778521 -3.106939 1.683185 C -1.553543 0.516847 -1.555192 -0.517515 -3.107215 -1.683906 C -1.551854 -0.777855 -0.258828 -0.257819 1.03387 0.000543526 Z M 1.03387 0.000543526 " transform="matrix(0.94089,0.34216,0.34216,-0.94089,59.89815,29.1077)"/>
<g clip-path="url(#clip6)" clip-rule="nonzero">
<path style="fill:none;stroke-width:0.79701;stroke-linecap:butt;stroke-linejoin:miter;stroke:rgb(0%,0%,0%);stroke-opacity:1;stroke-miterlimit:10;" d="M 33.784906 -20.208813 L 56.179437 -12.068188 " transform="matrix(1,0,0,-1,3.719,41.174)"/>
</g>
<path style="fill-rule:nonzero;fill:rgb(0%,0%,0%);fill-opacity:1;stroke-width:0.79701;stroke-linecap:butt;stroke-linejoin:round;stroke:rgb(0%,0%,0%);stroke-opacity:1;stroke-miterlimit:10;" d="M 1.033987 -0.000220853 C -0.25871 0.258142 -1.551737 0.778178 -3.107097 1.684229 C -1.555075 0.517837 -1.553426 -0.516524 -3.106821 -1.682863 C -1.553097 -0.778198 -0.260386 -0.260206 1.033987 -0.000220853 Z M 1.033987 -0.000220853 " transform="matrix(0.94089,-0.34216,-0.34216,-0.94089,59.89815,53.2403)"/>
<g clip-path="url(#clip7)" clip-rule="nonzero">
<path style="fill:none;stroke-width:0.79701;stroke-linecap:butt;stroke-linejoin:miter;stroke:rgb(0%,0%,0%);stroke-opacity:1;stroke-miterlimit:10;" d="M 33.784906 -23.529125 L 55.140375 -34.818188 " transform="matrix(1,0,0,-1,3.719,41.174)"/>
</g>
<path style="fill-rule:nonzero;fill:rgb(0%,0%,0%);fill-opacity:1;stroke-width:0.79701;stroke-linecap:butt;stroke-linejoin:round;stroke:rgb(0%,0%,0%);stroke-opacity:1;stroke-miterlimit:10;" d="M 1.034363 -0.000434866 C -0.259952 0.257552 -1.554917 0.774959 -3.109469 1.683478 C -1.556086 0.51898 -1.553483 -0.518705 -3.108089 -1.683933 C -1.552832 -0.778126 -0.260469 -0.257849 1.034363 -0.000434866 Z M 1.034363 -0.000434866 " transform="matrix(0.88722,0.46901,0.46901,-0.88722,58.85984,75.99105)"/>
</g>
</svg>
